<svg width="20" height="20" fill="none" xmlns="http://www.w3.org/2000/svg"><path d="M17.493 7.355a.771.771 0 0 0-.305-.5.748.748 0 0 0-.562-.135c-4.313.712-8.77.712-13.254 0a.743.743 0 0 0-.562.138.778.778 0 0 0-.165 1.073.754.754 0 0 0 .494.306c1.557.248 3.126.415 4.7.499l.297.015.285.005-.042.608a33.958 33.958 0 0 1-2.04 8.96.78.78 0 0 0 .023.583.76.76 0 0 0 .42.399.744.744 0 0 0 .574-.016.762.762 0 0 0 .397-.422c.736-1.968 1.3-3.999 1.686-6.068L10 9.755l.561 3.045c.385 2.07.95 4.1 1.687 6.068.072.188.215.34.397.422a.744.744 0 0 0 .574.016.76.76 0 0 0 .42-.399.78.78 0 0 0 .022-.583 33.942 33.942 0 0 1-2.039-8.952l-.051-.602.592-.03a41.803 41.803 0 0 0 4.704-.504.755.755 0 0 0 .492-.309.779.779 0 0 0 .134-.572ZM10.001 6.249c.527 0 1.042-.16 1.48-.457a2.7 2.7 0 0 0 .982-1.215 2.75 2.75 0 0 0 .151-1.564 2.722 2.722 0 0 0-.729-1.387 2.651 2.651 0 0 0-1.364-.74 2.624 2.624 0 0 0-1.54.153 2.674 2.674 0 0 0-1.195.998 2.74 2.74 0 0 0 .333 3.417c.5.508 1.176.794 1.882.795Zm0-4.055c.262 0 .518.079.736.227.218.148.387.358.488.604a1.366 1.366 0 0 1-.288 1.467 1.304 1.304 0 0 1-1.443.291 1.33 1.33 0 0 1-.594-.496 1.362 1.362 0 0 1 .165-1.699c.248-.252.585-.394.936-.394Z" fill="#151931"/></svg>