<svg width="129" height="63" viewBox="0 0 129 63" fill="none" xmlns="http://www.w3.org/2000/svg">
<path d="M125.374 0.389893H3.4004C1.57203 0.389893 0.0898438 1.87208 0.0898438 3.70045V59.55C0.0898438 61.3784 1.57203 62.8606 3.4004 62.8606H125.374C127.202 62.8606 128.684 61.3784 128.684 59.55V3.70045C128.684 1.87208 127.202 0.389893 125.374 0.389893Z" fill="#B9DFE0"/>
<path d="M9.13955 17.3741C9.08947 17.3741 9.0441 17.3538 9.00341 17.3131C8.96273 17.2724 8.94238 17.227 8.94238 17.1769C8.94238 17.1394 8.94551 17.1112 8.95177 17.0924L11.1582 11.0648C11.1769 10.9897 11.2176 10.9271 11.2802 10.877C11.3428 10.8269 11.4242 10.8019 11.5243 10.8019H12.9139C13.014 10.8019 13.0954 10.8269 13.158 10.877C13.2206 10.9271 13.2613 10.9897 13.28 11.0648L15.477 17.0924L15.4958 17.1769C15.4958 17.227 15.4755 17.2724 15.4348 17.3131C15.3941 17.3538 15.3456 17.3741 15.2893 17.3741H14.1344C13.9842 17.3741 13.8841 17.3084 13.834 17.1769L13.4678 16.2193H10.961L10.6042 17.1769C10.5541 17.3084 10.4509 17.3741 10.2944 17.3741H9.13955ZM13.0923 14.8673L12.2191 12.3886L11.3459 14.8673H13.0923ZM18.8832 17.468C17.9882 17.468 17.2887 17.2505 16.7848 16.8155C16.2809 16.3804 16.0134 15.7498 15.9821 14.9236L15.9756 14.6352L15.9731 13.8544C15.9742 13.5894 15.9772 13.3887 15.9821 13.2524C16.0134 12.4387 16.2856 11.8112 16.7989 11.3699C17.3122 10.9286 18.0069 10.708 18.8832 10.708C19.434 10.708 19.9285 10.8003 20.3667 10.985C20.8048 11.1696 21.1506 11.4325 21.4041 11.7736C21.6576 12.1148 21.7875 12.5138 21.7938 12.9707V12.9895C21.7938 13.0396 21.7734 13.0818 21.7327 13.1163C21.6921 13.1507 21.6467 13.1679 21.5966 13.1679H20.3291C20.2477 13.1679 20.1852 13.1507 20.1413 13.1163C20.0975 13.0818 20.06 13.0177 20.0287 12.9238C19.941 12.6046 19.8033 12.3808 19.6156 12.2525C19.4278 12.1242 19.1805 12.06 18.8738 12.06C18.166 12.06 17.7859 12.4394 17.7334 13.1982L17.7284 13.2993C17.7237 13.4261 17.7208 13.6039 17.7196 13.8327V14.3257C17.7208 14.5569 17.7237 14.7405 17.7284 14.8767C17.7534 15.7029 18.1352 16.116 18.8738 16.116C19.1805 16.116 19.4309 16.0487 19.6249 15.9141C19.819 15.7796 19.9536 15.5589 20.0287 15.2522C20.0537 15.1583 20.0881 15.0942 20.1319 15.0597C20.1758 15.0253 20.2415 15.0081 20.3291 15.0081H21.5966C21.6529 15.0081 21.7015 15.0269 21.7421 15.0644C21.7828 15.102 21.8 15.1489 21.7938 15.2053C21.7875 15.6622 21.6576 16.0612 21.4041 16.4024C21.1506 16.7435 20.8048 17.0064 20.3667 17.191C19.9285 17.3757 19.434 17.468 18.8832 17.468ZM24.5521 17.3741C24.4895 17.3741 24.4348 17.3506 24.3878 17.3037C24.3409 17.2567 24.3174 17.202 24.3174 17.1394V12.2759H22.6462C22.5836 12.2759 22.5288 12.2525 22.4819 12.2055C22.435 12.1586 22.4115 12.1038 22.4115 12.0412V11.0366C22.4115 10.9678 22.435 10.9114 22.4819 10.8676C22.5288 10.8238 22.5836 10.8019 22.6462 10.8019H27.6974C27.7663 10.8019 27.8226 10.8238 27.8664 10.8676C27.9102 10.9114 27.9321 10.9678 27.9321 11.0366V12.0412C27.9321 12.1101 27.9102 12.1664 27.8664 12.2102C27.8226 12.254 27.7663 12.2759 27.6974 12.2759H26.0262V17.1394C26.0262 17.202 26.0043 17.2567 25.9605 17.3037C25.9167 17.3506 25.8603 17.3741 25.7915 17.3741H24.5521ZM29.1132 17.3741C29.0506 17.3741 28.9958 17.3506 28.9489 17.3037C28.9019 17.2567 28.8784 17.202 28.8784 17.1394V11.0366C28.8784 10.9678 28.9019 10.9114 28.9489 10.8676C28.9958 10.8238 29.0506 10.8019 29.1132 10.8019H30.3713C30.4401 10.8019 30.498 10.8238 30.545 10.8676C30.5919 10.9114 30.6154 10.9678 30.6154 11.0366V17.1394C30.6154 17.2082 30.5919 17.2646 30.545 17.3084C30.498 17.3522 30.4401 17.3741 30.3713 17.3741H29.1132ZM33.8901 17.3741C33.6898 17.3741 33.5615 17.2802 33.5052 17.0924L31.5899 11.0836L31.5711 10.9991C31.5711 10.949 31.5914 10.9036 31.6321 10.8629C31.6728 10.8222 31.7213 10.8019 31.7776 10.8019H32.9419C33.0295 10.8019 33.103 10.8269 33.1625 10.877C33.222 10.9271 33.2611 10.9834 33.2799 11.046L34.6131 15.3837L35.9369 11.046C35.9557 10.9834 35.9948 10.9271 36.0543 10.877C36.1137 10.8269 36.1873 10.8019 36.2749 10.8019H37.4485C37.4986 10.8019 37.544 10.8222 37.5847 10.8629C37.6253 10.9036 37.6457 10.949 37.6457 10.9991L37.6269 11.0836L35.7116 17.0924C35.6552 17.2802 35.5269 17.3741 35.3266 17.3741H33.8901ZM38.8455 17.3741C38.7829 17.3741 38.7281 17.3506 38.6812 17.3037C38.6342 17.2567 38.6108 17.202 38.6108 17.1394V11.0366C38.6108 10.9678 38.6342 10.9114 38.6812 10.8676C38.7281 10.8238 38.7829 10.8019 38.8455 10.8019H40.1036C40.1725 10.8019 40.2304 10.8238 40.2773 10.8676C40.3242 10.9114 40.3477 10.9678 40.3477 11.0366V17.1394C40.3477 17.2082 40.3242 17.2646 40.2773 17.3084C40.2304 17.3522 40.1725 17.3741 40.1036 17.3741H38.8455ZM43.4253 17.3741C43.3627 17.3741 43.3079 17.3506 43.261 17.3037C43.214 17.2567 43.1906 17.202 43.1906 17.1394V12.2759H41.5194C41.4568 12.2759 41.402 12.2525 41.3551 12.2055C41.3081 12.1586 41.2846 12.1038 41.2846 12.0412V11.0366C41.2846 10.9678 41.3081 10.9114 41.3551 10.8676C41.402 10.8238 41.4568 10.8019 41.5194 10.8019H46.5706C46.6394 10.8019 46.6958 10.8238 46.7396 10.8676C46.7834 10.9114 46.8053 10.9678 46.8053 11.0366V12.0412C46.8053 12.1101 46.7834 12.1664 46.7396 12.2102C46.6958 12.254 46.6394 12.2759 46.5706 12.2759H44.8993V17.1394C44.8993 17.202 44.8774 17.2567 44.8336 17.3037C44.7898 17.3506 44.7335 17.3741 44.6646 17.3741H43.4253ZM47.9863 17.3741C47.9237 17.3741 47.869 17.3506 47.822 17.3037C47.7751 17.2567 47.7516 17.202 47.7516 17.1394V11.0366C47.7516 10.9678 47.7751 10.9114 47.822 10.8676C47.869 10.8238 47.9237 10.8019 47.9863 10.8019H49.2444C49.3133 10.8019 49.3712 10.8238 49.4181 10.8676C49.4651 10.9114 49.4885 10.9678 49.4885 11.0366V17.1394C49.4885 17.2082 49.4651 17.2646 49.4181 17.3084C49.3712 17.3522 49.3133 17.3741 49.2444 17.3741H47.9863ZM51.1202 17.3741C51.0577 17.3741 51.0029 17.3506 50.9559 17.3037C50.909 17.2567 50.8855 17.202 50.8855 17.1394V11.0366C50.8855 10.9678 50.909 10.9114 50.9559 10.8676C51.0029 10.8238 51.0577 10.8019 51.1202 10.8019H55.5048C55.5737 10.8019 55.63 10.8238 55.6738 10.8676C55.7177 10.9114 55.7396 10.9678 55.7396 11.0366V11.9192C55.7396 11.9818 55.7177 12.0365 55.6738 12.0835C55.63 12.1304 55.5737 12.1539 55.5048 12.1539H52.5098V13.4214H55.2983C55.3671 13.4214 55.4235 13.4449 55.4673 13.4918C55.5111 13.5388 55.533 13.5966 55.533 13.6655V14.4823C55.533 14.5449 55.5111 14.5997 55.4673 14.6466C55.4235 14.6936 55.3671 14.7171 55.2983 14.7171H52.5098V16.0221H55.58C55.6488 16.0221 55.7051 16.044 55.749 16.0878C55.7928 16.1316 55.8147 16.188 55.8147 16.2568V17.1394C55.8147 17.202 55.7928 17.2567 55.749 17.3037C55.7051 17.3506 55.6488 17.3741 55.58 17.3741H51.1202ZM59.4274 17.468C58.8328 17.468 58.3227 17.3804 57.897 17.2051C57.4714 17.0298 57.1506 16.7998 56.9347 16.515C56.7187 16.2302 56.6045 15.9188 56.592 15.5808C56.592 15.5308 56.6123 15.4854 56.653 15.4447C56.6937 15.404 56.7422 15.3837 56.7985 15.3837H57.9815C58.0566 15.3837 58.1177 15.3977 58.1646 15.4259C58.2116 15.4541 58.2601 15.4963 58.3101 15.5527C58.3915 15.7154 58.523 15.85 58.7045 15.9564C58.886 16.0628 59.127 16.116 59.4274 16.116C59.7842 16.116 60.0565 16.0597 60.2443 15.947C60.432 15.8343 60.5259 15.681 60.5259 15.4869C60.5259 15.3492 60.4774 15.2366 60.3804 15.1489C60.2834 15.0613 60.1316 14.9831 59.925 14.9142L59.7725 14.8669C59.633 14.8264 59.4626 14.7829 59.2613 14.7365L59.0049 14.6795C58.2538 14.523 57.6921 14.293 57.3196 13.9894C56.9472 13.6858 56.761 13.2524 56.761 12.6891C56.761 12.3072 56.8674 11.9661 57.0802 11.6657C57.293 11.3652 57.5966 11.1305 57.9909 10.9615C58.3853 10.7925 58.8453 10.708 59.3711 10.708C59.9156 10.708 60.3882 10.8019 60.7888 10.9897C61.1894 11.1775 61.4945 11.4137 61.7042 11.6985C61.9139 11.9833 62.025 12.2634 62.0375 12.5388C62.0375 12.5952 62.0188 12.6421 61.9812 12.6797C61.9436 12.7172 61.8967 12.736 61.8404 12.736H60.601C60.5259 12.736 60.4649 12.7235 60.4179 12.6984C60.371 12.6734 60.3288 12.6327 60.2912 12.5764C60.2536 12.4324 60.1519 12.3104 59.9861 12.2102C59.8202 12.1101 59.6152 12.06 59.3711 12.06C59.0894 12.06 58.8735 12.1101 58.7233 12.2102C58.573 12.3104 58.4979 12.4575 58.4979 12.6515C58.4979 12.7829 58.5402 12.8925 58.6247 12.9801C58.7092 13.0677 58.8469 13.1475 59.0378 13.2195C59.2287 13.2915 59.5025 13.3651 59.8593 13.4402C60.4414 13.5466 60.9062 13.6796 61.2536 13.8392C61.6009 13.9988 61.856 14.2054 62.0188 14.4589C62.1815 14.7124 62.2629 15.03 62.2629 15.4118C62.2629 15.8312 62.1424 16.1958 61.9014 16.5056C61.6604 16.8155 61.3255 17.0533 60.8968 17.2192C60.468 17.3851 59.9782 17.468 59.4274 17.468Z" fill="#1B3861"/>
<path fill-rule="evenodd" clip-rule="evenodd" d="M121.298 42.009C120.141 36.5054 115.09 32.4197 109.326 32.4197C103.562 32.4197 98.5113 36.5054 97.3543 42.009C96.3317 42.3695 95.6191 43.3267 95.6191 44.4419C95.6191 45.5572 96.3317 46.5144 97.3543 46.8749C98.5113 52.3784 103.562 56.464 109.326 56.464C115.09 56.464 120.141 52.3784 121.298 46.8749C122.321 46.5144 123.033 45.5572 123.033 44.4419C123.033 43.3267 122.321 42.3695 121.298 42.009Z" fill="#8ACACC"/>
<path fill-rule="evenodd" clip-rule="evenodd" d="M120.404 45.6207C120.393 45.6207 120.382 45.6197 120.37 45.6189L120.341 45.6171C120.178 45.6109 120.042 45.7226 120.021 45.8777C119.301 51.1111 114.703 55.0575 109.326 55.0575C103.95 55.0575 99.3518 51.1111 98.6317 45.8777C98.6113 45.7276 98.4807 45.6167 98.3283 45.6167C98.3229 45.6167 98.3174 45.6169 98.3119 45.6171L98.2823 45.6189C98.2712 45.6197 98.26 45.6207 98.2484 45.6207C97.5873 45.6207 97.0495 45.0919 97.0495 44.4419C97.0495 43.7917 97.5873 43.263 98.2484 43.263C98.26 43.263 98.2712 43.264 98.2823 43.2646L98.3119 43.2664C98.4774 43.2713 98.6106 43.1613 98.6317 43.0058C99.3518 37.7724 103.95 33.8262 109.326 33.8262C114.703 33.8262 119.301 37.7724 120.021 43.0058C120.042 43.1613 120.178 43.2721 120.341 43.2664L120.37 43.2646C120.382 43.264 120.393 43.263 120.404 43.263C121.065 43.263 121.603 43.7917 121.603 44.4419C121.603 45.0919 121.065 45.6207 120.404 45.6207ZM120.59 42.6695C119.77 37.595 115.49 33.7209 110.338 33.2682C110.715 32.9087 110.951 32.4064 110.951 31.8502C110.951 30.7608 110.05 29.8745 108.942 29.8745C107.834 29.8745 106.933 30.7608 106.933 31.8502C106.933 32.0166 107.07 32.1516 107.239 32.1516C107.408 32.1516 107.546 32.0166 107.546 31.8502C107.546 31.0931 108.172 30.4773 108.942 30.4773C109.712 30.4773 110.338 31.0931 110.338 31.8502C110.338 32.6073 109.712 33.2234 108.942 33.2234C108.916 33.2234 108.891 33.2276 108.866 33.2338C103.471 33.4482 98.9112 37.4148 98.0624 42.6695C97.1505 42.7613 96.4365 43.5212 96.4365 44.4419C96.4365 45.3625 97.1505 46.1224 98.0624 46.2143C98.9355 51.6176 103.732 55.6603 109.326 55.6603C114.921 55.6603 119.717 51.6176 120.59 46.2143C121.502 46.1224 122.216 45.3625 122.216 44.4419C122.216 43.5212 121.502 42.7613 120.59 42.6695Z" fill="#1B3861"/>
<path fill-rule="evenodd" clip-rule="evenodd" d="M114.757 41.6444C113.809 40.7388 112.47 40.3472 111.174 40.5963C111.008 40.6281 110.9 40.7864 110.932 40.95C110.965 41.1133 111.126 41.2214 111.292 41.1879C112.39 40.9771 113.526 41.3088 114.33 42.0768C114.389 42.1338 114.466 42.162 114.543 42.162C114.623 42.162 114.703 42.1314 114.763 42.0705C114.881 41.9512 114.878 41.7605 114.757 41.6444Z" fill="#1B3861"/>
<path fill-rule="evenodd" clip-rule="evenodd" d="M107.361 41.1877C107.526 41.2197 107.688 41.1134 107.72 40.9498C107.753 40.7865 107.644 40.6281 107.478 40.5964C106.183 40.347 104.843 40.739 103.896 41.6442C103.774 41.7606 103.772 41.9512 103.889 42.0706C103.95 42.1313 104.029 42.162 104.109 42.162C104.186 42.162 104.263 42.1337 104.323 42.0768C105.127 41.3089 106.263 40.9771 107.361 41.1877Z" fill="#1B3861"/>
<path fill-rule="evenodd" clip-rule="evenodd" d="M109.326 46.0828C107.149 46.0828 105.188 47.0914 104.33 48.652C104.249 48.7985 104.305 48.9814 104.454 49.0603C104.602 49.1397 104.789 49.0848 104.869 48.9386C105.621 47.5698 107.371 46.6855 109.326 46.6855C111.282 46.6855 113.031 47.5698 113.784 48.9386C113.839 49.0394 113.945 49.0967 114.054 49.0967C114.103 49.0967 114.153 49.085 114.199 49.0603C114.348 48.9814 114.404 48.7985 114.323 48.652C113.465 47.0914 111.504 46.0828 109.326 46.0828Z" fill="#1B3861"/>
<path fill-rule="evenodd" clip-rule="evenodd" d="M117.261 45.6888C117.165 45.9242 116.981 46.1085 116.743 46.2076C116.253 46.4129 115.684 46.1869 115.476 45.7048C115.34 45.3906 115.49 44.4629 115.673 43.7313C116.336 44.1099 117.119 44.6471 117.255 44.9616C117.356 45.1951 117.358 45.4535 117.261 45.6888ZM115.621 43.0134C115.539 42.971 115.443 42.9672 115.358 43.0023C115.273 43.0379 115.209 43.109 115.183 43.1964C115.085 43.532 114.609 45.2411 114.912 45.9407C115.167 46.5311 115.753 46.8861 116.367 46.8861C116.573 46.8861 116.782 46.8465 116.983 46.7625C117.371 46.6002 117.672 46.299 117.83 45.9144C117.988 45.5296 117.984 45.1075 117.819 44.7257C117.517 44.0267 115.935 43.1765 115.621 43.0134Z" fill="#1B3861"/>
<path fill-rule="evenodd" clip-rule="evenodd" d="M108.713 44.5422H109.939C110.108 44.5422 110.246 44.4072 110.246 44.2408C110.246 44.0745 110.108 43.9395 109.939 43.9395H108.713C108.544 43.9395 108.407 44.0745 108.407 44.2408C108.407 44.4072 108.544 44.5422 108.713 44.5422Z" fill="#1B3861"/>
</svg>
