<svg width="20" height="20" fill="none" xmlns="http://www.w3.org/2000/svg"><path d="M15.997 8.875a6.612 6.612 0 0 0-2.057-4.523A6.75 6.75 0 0 0 9.29 2.5a6.75 6.75 0 0 0-4.65 1.852 6.612 6.612 0 0 0-2.057 4.523v1.5l-.305-.322a.746.746 0 0 0-1.028.003.71.71 0 0 0 0 1.006l1.521 1.495a.724.724 0 0 0 1.019 0l1.51-1.495a.709.709 0 0 0-.007-1 .724.724 0 0 0-1.01-.008l-.26.258v-1.44c0-1.032.309-2.04.888-2.899a5.26 5.26 0 0 1 2.366-1.921 5.323 5.323 0 0 1 3.045-.297 5.289 5.289 0 0 1 2.7 1.428 5.2 5.2 0 0 1 1.442 2.67 5.166 5.166 0 0 1-.3 3.015 5.229 5.229 0 0 1-1.941 2.341 5.311 5.311 0 0 1-2.929.88H.72a.724.724 0 0 0-.509.208.71.71 0 0 0 0 1.008.724.724 0 0 0 .51.209h8.574a6.748 6.748 0 0 0 4.739-1.948 6.607 6.607 0 0 0 1.963-4.692v.001ZM20 14.818a.709.709 0 0 0-.225-.518l-1.512-1.475a.72.72 0 0 0-.79-.164.721.721 0 0 0-.393.389.705.705 0 0 0 .164.781l.003.003.27.288h-1.918a.724.724 0 0 0-.51.209.71.71 0 0 0 0 1.008.724.724 0 0 0 .51.209h1.928l-.282.279a.704.704 0 0 0-.159.776c.037.087.091.165.159.23a.683.683 0 0 0 .508.21h.003a.723.723 0 0 0 .507-.207l1.512-1.495a.716.716 0 0 0 .225-.523Z" fill="#151931"/></svg>