<svg width="20" height="20" fill="none" xmlns="http://www.w3.org/2000/svg"><path d="M19.277 3.835a1.61 1.61 0 0 0-.742-.812L16.7 1.941a1.662 1.662 0 0 0-1.069-.218 1.325 1.325 0 0 0-.551.197 1.29 1.29 0 0 0-.407.412l-6.68 11.031a2.147 2.147 0 0 0-.29.776l-.096 3.2c0 .173.047.343.134.492a1.01 1.01 0 0 0 .869.502c.178 0 .354-.045.51-.13l2.777-1.597.089-.058a2.36 2.36 0 0 0 .267-.253c.088-.103.168-.212.238-.327l2.182-3.577 4.514-7.46a1.259 1.259 0 0 0 .089-1.096Zm-5.694 7.932-2.161 3.585c-.03.05-.066.099-.104.145l-.088.086-2.332 1.335.074-2.605a.91.91 0 0 1 .126-.312L15.78 2.978a.32.32 0 0 1 .29.044l1.863 1.08a.333.333 0 0 1 .178.22l-4.527 7.445ZM6.612 11.273H3.996a.638.638 0 0 0-.446.18.61.61 0 0 0 0 .873c.118.115.279.18.446.18h2.616a.638.638 0 0 0 .446-.18.61.61 0 0 0 0-.872.638.638 0 0 0-.446-.181ZM4.01 8.82a.638.638 0 0 0-.446.181.61.61 0 0 0 0 .872c.119.116.279.18.446.18h4.102a.638.638 0 0 0 .446-.18.61.61 0 0 0 0-.872.638.638 0 0 0-.446-.18H4.01Z" fill="#151931"/><path d="M10.591 4.914a.61.61 0 0 0-.178-.374L6.79.99a.54.54 0 0 0-.216-.152.536.536 0 0 0-.148 0H2.229a1.513 1.513 0 0 0-1.084.494 1.36 1.36 0 0 0-.311.87v14.6c.002.32.118.63.326.878a1.51 1.51 0 0 0 1.076.493h2.93a.638.638 0 0 0 .446-.18.61.61 0 0 0 0-.872.638.638 0 0 0-.447-.18l-2.936-.037a.144.144 0 0 1-.089 0 .137.137 0 0 1-.044-.102v-14.6a.134.134 0 0 1 .044-.101c.029-.01.06-.01.09 0h3.885l3.051 2.982H6.12a.623.623 0 0 0-.436.177.596.596 0 0 0 0 .851.623.623 0 0 0 .436.177h3.426a.636.636 0 0 0 .549-.32l.394-.652a.608.608 0 0 0 .103-.402Z" fill="#151931"/></svg>