<svg width="36" height="36" fill="none" xmlns="http://www.w3.org/2000/svg"><path fill-rule="evenodd" clip-rule="evenodd" d="M18 5.75a12.25 12.25 0 1 0 0 24.5 12.25 12.25 0 0 0 0-24.5ZM4 18a14 14 0 1 1 28 0 14 14 0 0 1-28 0Zm5.17-1.11a8.98 8.98 0 0 0-.03 1.86c2.05-.2 3.97.33 5.34 1.71 1.4 1.4 2.07 3.55 1.87 6.28a8.95 8.95 0 0 0 3.3 0c-.2-2.77.5-4.94 1.93-6.34a6.46 6.46 0 0 1 5.28-1.65 9.05 9.05 0 0 0-.03-1.86A28.23 28.23 0 0 0 18 15.38a28.22 28.22 0 0 0-8.83 1.51Zm17.38 3.6a4.67 4.67 0 0 0-3.75 1.16c-.9.9-1.52 2.37-1.43 4.58a8.92 8.92 0 0 0 5.18-5.75Zm-11.92 5.74a8.92 8.92 0 0 1-5.18-5.75c1.6-.12 2.9.32 3.79 1.21.88.9 1.48 2.37 1.39 4.54ZM9.66 14.9c2.7-.82 5.5-1.24 8.33-1.28h.02c2.83.04 5.63.47 8.33 1.28a8.9 8.9 0 0 0-16.68 0ZM7.65 18a10.35 10.35 0 1 1 20.7 0 10.35 10.35 0 0 1-20.7 0Zm11.66.44a1.31 1.31 0 1 1-2.62 0 1.31 1.31 0 0 1 2.62 0Z" fill="#151931" opacity=".8"/></svg>
