<svg width="58" height="54" viewBox="0 0 58 54" fill="none" xmlns="http://www.w3.org/2000/svg">
<path fill-rule="evenodd" clip-rule="evenodd" d="M25.5 51C39.5833 51 51 39.5833 51 25.5C51 11.4167 39.5833 0 25.5 0C11.4167 0 0 11.4167 0 25.5C0 39.5833 11.4167 51 25.5 51ZM14 29.25C16.0711 29.25 17.75 27.571 17.75 25.5C17.75 23.429 16.0711 21.75 14 21.75C11.9289 21.75 10.25 23.429 10.25 25.5C10.25 27.571 11.9289 29.25 14 29.25ZM29.25 25.5C29.25 27.571 27.5711 29.25 25.5 29.25C23.4289 29.25 21.75 27.571 21.75 25.5C21.75 23.429 23.4289 21.75 25.5 21.75C27.5711 21.75 29.25 23.429 29.25 25.5ZM37 29.25C39.0711 29.25 40.75 27.571 40.75 25.5C40.75 23.429 39.0711 21.75 37 21.75C34.9289 21.75 33.25 23.429 33.25 25.5C33.25 27.571 34.9289 29.25 37 29.25Z" fill="url(#paint0_linear_741_156)" fill-opacity="0.6"/>
<circle cx="47" cy="43" r="11" fill="url(#paint1_linear_741_156)"/>
<defs>
<linearGradient id="paint0_linear_741_156" x1="7.5" y1="43.5" x2="44" y2="6" gradientUnits="userSpaceOnUse">
<stop stop-color="#151931"/>
<stop offset="1" stop-color="#151931" stop-opacity="0"/>
</linearGradient>
<linearGradient id="paint1_linear_741_156" x1="39" y1="50.5" x2="54.5" y2="35.5" gradientUnits="userSpaceOnUse">
<stop stop-color="#151931"/>
<stop offset="1" stop-color="#151931" stop-opacity="0"/>
</linearGradient>
</defs>
</svg>
