<svg width="58" height="54" fill="none" xmlns="http://www.w3.org/2000/svg"><path fill-rule="evenodd" clip-rule="evenodd" d="M25.5 51a25.5 25.5 0 1 0 0-51 25.5 25.5 0 0 0 0 51ZM14 29.25a3.75 3.75 0 1 0 0-7.5 3.75 3.75 0 0 0 0 7.5Zm15.25-3.75a3.75 3.75 0 1 1-7.5 0 3.75 3.75 0 0 1 7.5 0ZM37 29.25a3.75 3.75 0 1 0 0-7.5 3.75 3.75 0 0 0 0 7.5Z" fill="url(#a)" fill-opacity=".6"/><circle cx="47" cy="43" r="11" fill="url(#b)"/><defs><linearGradient id="a" x1="7.5" y1="43.5" x2="44" y2="6" gradientUnits="userSpaceOnUse"><stop stop-color="#151931"/><stop offset="1" stop-color="#151931" stop-opacity="0"/></linearGradient><linearGradient id="b" x1="39" y1="50.5" x2="54.5" y2="35.5" gradientUnits="userSpaceOnUse"><stop stop-color="#151931"/><stop offset="1" stop-color="#151931" stop-opacity="0"/></linearGradient></defs></svg>
