<svg width="363" height="505" viewBox="0 0 363 505" fill="none" xmlns="http://www.w3.org/2000/svg">
<g filter="url(#filter0_d)">
<path fill-rule="evenodd" clip-rule="evenodd" d="M54.5272 18H308.281C311.886 18 314.808 20.9226 314.808 24.528V420.226C314.808 423.831 311.886 426.753 308.281 426.753H54.5272C50.9225 426.753 48 423.831 48 420.226V24.528C48 20.9226 50.9225 18 54.5272 18Z" fill="white"/>
<path fill-rule="evenodd" clip-rule="evenodd" d="M251.494 125.182C218.735 137.712 206.819 181.4 191.872 200.733C168.882 230.469 104.686 172.69 100.288 135.363C95.8897 98.0346 122.54 63.8288 159.909 59.811C212.686 54.1368 286.597 111.754 251.494 125.182Z" fill="#6159EE"/>
<g style="mix-blend-mode:multiply">
<path fill-rule="evenodd" clip-rule="evenodd" d="M261.344 156.011C261.344 160.164 260.122 160.221 189.903 160.221C119.684 160.221 118.462 160.164 118.462 156.011C118.462 151.857 119.684 148.49 189.903 148.49C260.122 148.49 261.344 151.857 261.344 156.011Z" fill="#EBEBEB"/>
</g>
<path fill-rule="evenodd" clip-rule="evenodd" d="M132.567 146.697L132.501 146.519L136.922 143.526L132.089 141.053L132.126 140.873C132.2 140.508 132.296 140.144 132.412 139.778L132.5 139.501L139.543 143.264L133.16 148.022L133.03 147.763C132.853 147.408 132.698 147.054 132.567 146.697ZM137.872 143.467L133.089 146.707C133.164 146.899 133.247 147.092 133.337 147.285L138.641 143.331L132.789 140.205C132.733 140.4 132.683 140.595 132.639 140.79L137.872 143.467Z" fill="white"/>
<path fill-rule="evenodd" clip-rule="evenodd" d="M253.929 145.39L252.095 144.234L255.763 134.627L261.902 136.42C261.902 136.42 261.105 133.79 256.441 132.713L255.125 130.241L263.137 131.477L264.413 128.227C264.413 128.227 258.115 121.99 243.206 119.159C228.297 116.329 219.928 116.169 219.928 116.169C219.928 116.169 206.793 108.06 193.186 102.585L194.761 102.004C194.761 102.004 171.799 96.4582 144.361 101.34L132.295 103.014L129.103 102.495C128.649 102.422 128.185 102.548 127.83 102.841L127.791 102.874L132.555 105.226L138.055 107.199L128.734 113.405L121.4 115.903C121.4 115.903 119.632 117.405 118.596 118.561L120.417 127.331C120.417 127.331 117.36 130.202 116.138 132.381L115.593 137.317L114.676 137.915L117.732 145.324L127.54 147.718L127.77 143.012C127.77 134.847 134.389 128.227 142.554 128.227C149.55 128.227 155.407 133.088 156.941 139.616L156.945 139.616C157.456 141.308 157.855 148.489 157.886 149.058H157.888H215.873L216.031 149.059L216.327 143.012C216.327 134.847 222.945 128.227 231.111 128.227C238.106 128.227 243.963 133.088 245.498 139.616L245.502 139.616C245.946 141.086 246.52 147.904 246.698 150.122L253.53 148.779L254.527 147.743L264.294 146.467L265.131 145.39H253.929Z" fill="white"/>
<path fill-rule="evenodd" clip-rule="evenodd" d="M128.735 113.405L138.056 107.199L132.555 105.226L132.402 105.151V106.761C127.991 109.578 121.822 115.759 121.822 115.759L128.735 113.405Z" fill="#373287"/>
<path fill-rule="evenodd" clip-rule="evenodd" d="M119.332 117.795C119.332 117.795 121.054 115.87 132.395 116.448C132.395 116.448 133.292 116.511 134.01 117.067C134.727 117.624 135.445 118.043 134.648 118.701C133.945 119.28 128.521 122.414 127.243 123.15C127.066 123.252 126.867 123.305 126.662 123.305H122.771C122.451 123.305 122.146 123.174 121.925 122.942L121.072 122.043C120.88 121.841 120.623 121.715 120.346 121.686L119.221 121.57L118.596 118.561L119.332 117.795Z" fill="#373287"/>
<path fill-rule="evenodd" clip-rule="evenodd" d="M155.364 143.012C155.364 150.087 149.629 155.822 142.554 155.822C135.48 155.822 129.745 150.087 129.745 143.012C129.745 135.937 135.48 130.202 142.554 130.202C149.629 130.202 155.364 135.937 155.364 143.012Z" fill="#2E2A70"/>
<path fill-rule="evenodd" clip-rule="evenodd" d="M152.955 143.011C152.955 148.756 148.298 153.413 142.554 153.413C136.81 153.413 132.153 148.756 132.153 143.011C132.153 137.267 136.81 132.61 142.554 132.61C148.298 132.61 152.955 137.267 152.955 143.011Z" fill="#373287"/>
<path fill-rule="evenodd" clip-rule="evenodd" d="M244.672 143.012C244.672 150.087 238.937 155.822 231.863 155.822C224.789 155.822 219.053 150.087 219.053 143.012C219.053 135.937 224.789 130.202 231.863 130.202C238.937 130.202 244.672 135.937 244.672 143.012Z" fill="#2E2A70"/>
<path fill-rule="evenodd" clip-rule="evenodd" d="M242.263 143.011C242.263 148.756 237.607 153.413 231.863 153.413C226.119 153.413 221.462 148.756 221.462 143.011C221.462 137.267 226.119 132.61 231.863 132.61C237.607 132.61 242.263 137.267 242.263 143.011Z" fill="#373287"/>
<path fill-rule="evenodd" clip-rule="evenodd" d="M224.172 150.015C224.418 150.286 224.679 150.546 224.957 150.792L229.704 147.72L230.102 153.265C230.477 153.329 230.853 153.371 231.23 153.393L230.379 146.153L224.172 150.015ZM221.952 139.852C221.841 140.201 221.747 140.557 221.672 140.921L226.706 143.496L222.103 146.613C222.235 146.97 222.387 147.317 222.556 147.654L228.401 143.297L221.952 139.852ZM238.768 135.231L234.021 138.304L233.624 132.758C233.249 132.694 232.872 132.653 232.496 132.63L233.346 139.87L239.554 136.008C239.308 135.738 239.047 135.477 238.768 135.231ZM237.019 142.527L241.622 139.41C241.491 139.053 241.338 138.706 241.169 138.369L235.325 142.726L241.773 146.171C241.885 145.823 241.979 145.466 242.053 145.102L237.019 142.527ZM234.082 153.175C234.44 153.096 234.795 153 235.148 152.883L234.861 147.235L239.861 149.663C240.104 149.371 240.329 149.065 240.537 148.75L233.841 145.867L234.082 153.175ZM229.643 132.848C229.286 132.926 228.93 133.023 228.578 133.141L228.865 138.789L223.864 136.36C223.621 136.653 223.397 136.958 223.189 137.273L229.884 140.156L229.643 132.848ZM231.863 141.624C231.096 141.624 230.475 142.245 230.475 143.011C230.475 143.778 231.096 144.4 231.863 144.4C232.629 144.4 233.251 143.778 233.251 143.011C233.251 142.245 232.629 141.624 231.863 141.624ZM142.554 141.624C141.787 141.624 141.166 142.245 141.166 143.011C141.166 143.778 141.787 144.4 142.554 144.4C143.32 144.4 143.942 143.778 143.942 143.011C143.942 142.245 143.32 141.624 142.554 141.624ZM140.335 132.848C139.977 132.926 139.621 133.023 139.269 133.141L139.556 138.789L134.555 136.36C134.312 136.653 134.088 136.958 133.88 137.273L140.575 140.156L140.335 132.848ZM149.46 135.231L144.712 138.304L144.315 132.758C143.94 132.694 143.563 132.653 143.187 132.63L144.037 139.87L150.245 136.008C149.999 135.738 149.738 135.477 149.46 135.231ZM144.773 153.175C145.131 153.096 145.487 153 145.839 152.883L145.552 147.235L150.553 149.663C150.796 149.371 151.02 149.065 151.228 148.75L144.532 145.867L144.773 153.175ZM152.314 139.41C152.182 139.053 152.029 138.706 151.861 138.369L146.016 142.726L152.464 146.171C152.576 145.823 152.67 145.466 152.744 145.102L147.71 142.527L152.314 139.41ZM134.863 150.015C135.109 150.286 135.371 150.546 135.648 150.792L140.396 147.72L140.793 153.265C141.168 153.329 141.544 153.371 141.921 153.393L141.07 146.153L134.863 150.015ZM132.643 139.852C132.532 140.201 132.437 140.557 132.364 140.921L137.398 143.496L132.794 146.613C132.926 146.97 133.079 147.317 133.247 147.654L139.092 143.297L132.643 139.852Z" fill="white"/>
<path fill-rule="evenodd" clip-rule="evenodd" d="M212.28 113.628C212.457 113.978 212.56 114.372 212.56 114.793C212.56 116.329 211.232 117.527 209.705 117.369L206.762 117.066C205.598 116.946 204.712 115.964 204.712 114.793C204.712 113.622 205.598 112.641 206.762 112.521L209.705 112.217C209.897 112.198 210.086 112.199 210.269 112.221C201.173 106.711 191.241 102.694 177.448 102.004C156.361 100.948 149.92 104.672 144.351 106.903C142.884 107.491 142.42 109.34 143.434 110.553L146.527 114.255C162.99 117.498 219.184 118.667 219.184 118.667C216.874 117.023 214.635 115.312 212.28 113.628Z" fill="#373287"/>
<path fill-rule="evenodd" clip-rule="evenodd" d="M146.767 100.936C148.452 100.706 150.059 100.458 151.663 100.261L148.166 98.4822L146.034 98.5093L146.767 100.936Z" fill="#373287"/>
<path fill-rule="evenodd" clip-rule="evenodd" d="M161.903 123.85H163.906C164.511 123.85 165.019 123.417 165.138 122.847H160.672C160.791 123.417 161.298 123.85 161.903 123.85ZM163.906 120.156H161.903C161.298 120.156 160.791 120.588 160.672 121.159H165.138C165.019 120.588 164.511 120.156 163.906 120.156Z" fill="#373287"/>
<path fill-rule="evenodd" clip-rule="evenodd" d="M167.21 122.847H158.135C157.67 122.847 157.291 122.467 157.291 122.003C157.291 121.539 157.67 121.159 158.135 121.159H167.21C167.674 121.159 168.054 121.539 168.054 122.003C168.054 122.467 167.674 122.847 167.21 122.847Z" fill="#373287"/>
<path fill-rule="evenodd" clip-rule="evenodd" d="M197.863 125.152H199.866C200.471 125.152 200.979 124.72 201.097 124.149H196.631C196.75 124.72 197.258 125.152 197.863 125.152ZM199.866 121.458H197.863C197.258 121.458 196.75 121.891 196.631 122.461H201.097C200.979 121.891 200.471 121.458 199.866 121.458Z" fill="#373287"/>
<path fill-rule="evenodd" clip-rule="evenodd" d="M203.129 124.149H194.053C193.589 124.149 193.209 123.769 193.209 123.305C193.209 122.841 193.589 122.461 194.053 122.461H203.129C203.593 122.461 203.972 122.841 203.972 123.305C203.972 123.769 203.593 124.149 203.129 124.149Z" fill="#373287"/>
<path fill-rule="evenodd" clip-rule="evenodd" d="M264.254 137.776L263.138 131.477L255.125 130.241L256.44 132.713C261.104 133.789 261.902 136.421 261.902 136.421L255.763 134.627L252.096 144.234L253.929 145.39H263.357V140.008L264.254 137.776Z" fill="#373287"/>
<path fill-rule="evenodd" clip-rule="evenodd" d="M255.244 143.537L256.141 137.636L255.11 136.338L252.095 144.234L253.929 145.39H263.357V144.633H256.42L255.244 143.537Z" fill="#2E2A70"/>
<path fill-rule="evenodd" clip-rule="evenodd" d="M241.173 122.122C241.173 122.122 257.835 123.185 261.344 127.783C261.344 127.783 260.732 129.962 259.217 129.856L254.141 129.351L253.238 130.016L248.189 129.431C248.189 129.431 241.226 123.451 241.173 122.122Z" fill="#373287"/>
<path d="M186.425 122.201L189.128 144.719C189.24 145.642 190.023 146.337 190.953 146.337H211.567V144.883H190.953C190.759 144.883 190.595 144.738 190.572 144.545L187.868 122.028L186.425 122.201Z" fill="#373287"/>
<path fill-rule="evenodd" clip-rule="evenodd" d="M219.929 116.169C219.929 116.169 221.559 116.31 224.304 116.446L224.98 116.507C211.104 108.091 194.762 102.004 194.762 102.004L193.186 102.585C206.793 108.06 219.929 116.169 219.929 116.169Z" fill="#373287"/>
<path d="M149.455 118.267L148.241 119.067L166.217 146.337H183.383V144.884H167L149.455 118.267Z" fill="#373287"/>
<path fill-rule="evenodd" clip-rule="evenodd" d="M156.941 139.616C155.407 133.088 149.55 128.227 142.554 128.227C134.389 128.227 127.771 134.846 127.771 143.012L127.594 146.625L130.31 146.782C129.943 145.589 129.745 144.324 129.745 143.012C129.745 135.937 135.48 130.202 142.554 130.202C149.629 130.202 155.363 135.937 155.363 143.012C155.363 145.203 154.81 147.263 153.839 149.066H157.879C157.881 149.064 157.884 149.061 157.886 149.058C157.772 147.132 157.381 141.057 156.946 139.616L156.941 139.616ZM246.612 149.066C246.376 146.249 245.89 140.899 245.502 139.616L245.498 139.616C243.963 133.088 238.107 128.227 231.111 128.227C222.946 128.227 216.327 134.846 216.327 143.012L216.031 149.059L216.04 149.066H220.578C219.607 147.263 219.054 145.203 219.054 143.012C219.054 135.937 224.789 130.202 231.863 130.202C238.937 130.202 244.673 135.937 244.673 143.012C244.673 145.203 244.119 147.263 243.149 149.066H246.612Z" fill="#373287"/>
<path fill-rule="evenodd" clip-rule="evenodd" d="M242.912 89.3133C237.159 95.0665 227.832 95.0665 222.078 89.3133C216.325 83.5597 216.325 74.2312 222.078 68.4781C227.832 62.7244 237.159 62.7244 242.912 68.4781C248.666 74.2312 248.666 83.5597 242.912 89.3133Z" fill="#62C264"/>
<path d="M227.016 77.3834L224.618 79.782L230.478 85.6427L240.374 75.7463L237.975 73.3477L230.478 80.8454L227.016 77.3834Z" fill="white"/>
<path fill-rule="evenodd" clip-rule="evenodd" d="M209.749 243.568C209.076 243.568 208.502 242.99 208.502 242.276C208.502 241.561 209.076 241 209.749 241C210.438 241 210.996 241.561 210.996 242.276C210.996 242.99 210.438 243.568 209.749 243.568ZM125.824 252.871C122.543 252.871 120 250.49 120 247.003C120 243.517 122.543 241.136 125.824 241.136C128.235 241.136 129.629 242.497 130.4 243.908L128.399 244.929C127.94 244.01 126.955 243.279 125.824 243.279C123.839 243.279 122.395 244.861 122.395 247.003C122.395 249.146 123.839 250.728 125.824 250.728C126.955 250.728 127.94 250.014 128.399 249.078L130.4 250.082C129.613 251.493 128.235 252.871 125.824 252.871ZM135.42 252.871C132.812 252.871 131.237 250.898 131.237 248.551C131.237 246.221 132.812 244.248 135.42 244.248C138.045 244.248 139.62 246.221 139.62 248.551C139.62 250.898 138.045 252.871 135.42 252.871ZM137.454 248.551C137.454 249.844 136.716 250.949 135.42 250.949C134.124 250.949 133.402 249.844 133.402 248.551C133.402 247.276 134.124 246.17 135.42 246.17C136.716 246.17 137.454 247.276 137.454 248.551ZM148.593 252.667H146.51V247.701C146.51 246.561 145.935 246.17 145.05 246.17C144.229 246.17 143.59 246.646 143.245 247.139V252.667H141.162V244.452H143.245V245.524C143.754 244.895 144.722 244.248 146.017 244.248C147.756 244.248 148.593 245.269 148.593 246.867V252.667ZM150.496 254.776C151.497 255.677 152.546 256 153.908 256C155.86 256 158.19 255.235 158.19 252.105V244.452H156.09V245.507C155.45 244.673 154.597 244.248 153.646 244.248C151.644 244.248 150.151 245.745 150.151 248.432C150.151 251.17 151.661 252.616 153.646 252.616C154.613 252.616 155.466 252.139 156.09 251.323V252.156C156.09 253.772 154.909 254.231 153.908 254.231C152.907 254.231 152.071 253.942 151.431 253.211L150.496 254.776ZM154.302 250.694C154.991 250.694 155.745 250.286 156.09 249.759V247.105C155.745 246.561 154.991 246.17 154.302 246.17C153.121 246.17 152.3 247.02 152.3 248.432C152.3 249.844 153.121 250.694 154.302 250.694ZM160.257 252.667H162.34V247.241C162.684 246.714 163.603 246.306 164.292 246.306C164.522 246.306 164.719 246.323 164.866 246.357V244.248C163.882 244.248 162.898 244.844 162.34 245.575V244.452H160.257V252.667ZM173.003 252.667H170.919V251.816C170.378 252.48 169.443 252.871 168.41 252.871C167.146 252.871 165.654 251.986 165.654 250.15C165.654 248.228 167.146 247.497 168.41 247.497C169.459 247.497 170.395 247.854 170.919 248.5V247.395C170.919 246.561 170.23 246.017 169.181 246.017C168.328 246.017 167.54 246.34 166.868 246.986L166.08 245.541C167.048 244.656 168.295 244.248 169.541 244.248C171.346 244.248 173.003 244.997 173.003 247.361V252.667ZM170.919 250.694C170.575 251.17 169.919 251.408 169.246 251.408C168.426 251.408 167.753 250.966 167.753 250.201C167.753 249.401 168.426 248.959 169.246 248.959C169.919 248.959 170.575 249.197 170.919 249.673V250.694ZM177.727 252.871C176.267 252.871 175.48 252.088 175.48 250.626V246.34H174.168V244.452H175.48V242.207H177.58V244.452H179.187V246.34H177.58V250.048C177.58 250.558 177.842 250.949 178.301 250.949C178.613 250.949 178.908 250.83 179.023 250.711L179.466 252.344C179.154 252.633 178.597 252.871 177.727 252.871ZM185.962 252.667H188.046V244.452H185.962V250.014C185.601 250.49 184.962 250.949 184.158 250.949C183.272 250.949 182.698 250.575 182.698 249.435V244.452H180.614V250.286C180.614 251.884 181.435 252.871 183.174 252.871C184.47 252.871 185.421 252.259 185.962 251.629V252.667ZM192.196 252.667H190.113V241.323H192.196V252.667ZM199.02 252.667H201.104V247.361C201.104 244.997 199.447 244.248 197.642 244.248C196.396 244.248 195.149 244.656 194.181 245.541L194.968 246.986C195.641 246.34 196.428 246.017 197.281 246.017C198.331 246.017 199.02 246.561 199.02 247.395V248.5C198.495 247.854 197.56 247.497 196.51 247.497C195.247 247.497 193.754 248.228 193.754 250.15C193.754 251.986 195.247 252.871 196.51 252.871C197.544 252.871 198.479 252.48 199.02 251.816V252.667ZM197.347 251.408C198.02 251.408 198.676 251.17 199.02 250.694V249.673C198.676 249.197 198.02 248.959 197.347 248.959C196.527 248.959 195.854 249.401 195.854 250.201C195.854 250.966 196.527 251.408 197.347 251.408ZM203.581 250.626C203.581 252.088 204.368 252.871 205.828 252.871C206.698 252.871 207.255 252.633 207.567 252.344L207.124 250.711C207.009 250.83 206.714 250.949 206.402 250.949C205.943 250.949 205.681 250.558 205.681 250.048V246.34H207.288V244.452H205.681V242.207H203.581V244.452H202.268V246.34H203.581V250.626ZM208.715 252.667H210.799V244.452H208.715V252.667ZM216.54 252.871C213.932 252.871 212.357 250.898 212.357 248.551C212.357 246.221 213.932 244.248 216.54 244.248C219.165 244.248 220.74 246.221 220.74 248.551C220.74 250.898 219.165 252.871 216.54 252.871ZM218.574 248.551C218.574 249.844 217.836 250.949 216.54 250.949C215.244 250.949 214.523 249.844 214.523 248.551C214.523 247.276 215.244 246.17 216.54 246.17C217.836 246.17 218.574 247.276 218.574 248.551ZM229.713 252.667H227.63V247.701C227.63 246.561 227.056 246.17 226.17 246.17C225.349 246.17 224.71 246.646 224.365 247.139V252.667H222.282V244.452H224.365V245.524C224.874 244.895 225.842 244.248 227.138 244.248C228.876 244.248 229.713 245.269 229.713 246.867V252.667ZM231.091 251.595C231.928 252.395 233.256 252.871 234.634 252.871C236.833 252.871 238.063 251.731 238.063 250.235C238.063 248.172 236.248 247.787 234.875 247.496C234.042 247.319 233.371 247.177 233.371 246.714C233.371 246.255 233.863 245.898 234.618 245.898C235.586 245.898 236.488 246.323 236.964 246.85L237.8 245.371C237.013 244.724 235.947 244.248 234.602 244.248C232.518 244.248 231.354 245.456 231.354 246.833C231.354 248.793 233.085 249.158 234.448 249.445C235.332 249.631 236.062 249.784 236.062 250.32C236.062 250.83 235.635 251.204 234.733 251.204C233.749 251.204 232.567 250.643 231.993 250.082L231.091 251.595ZM241.59 248.976H239.753L239.408 241.323H241.918L241.59 248.976ZM239.359 251.476C239.359 252.207 239.949 252.837 240.671 252.837C241.393 252.837 242 252.207 242 251.476C242 250.728 241.393 250.099 240.671 250.099C239.949 250.099 239.359 250.728 239.359 251.476Z" fill="#222222"/>
<path fill-rule="evenodd" clip-rule="evenodd" d="M295.838 49L291 44.1622L286.162 49L285 47.8383L289.838 43.0005L285 38.1617L286.162 37L291 41.8387L295.838 37L297 38.1617L292.162 43.0005L297 47.8383L295.838 49Z" fill="#535E78"/>
<path fill-rule="evenodd" clip-rule="evenodd" d="M202.896 290.843H209.459V289.21H205.903C208.165 287.565 209.393 286.271 209.393 284.782C209.393 283.045 207.916 282 206.06 282C204.844 282 203.549 282.444 202.7 283.424L203.759 284.652C204.347 284.038 205.105 283.646 206.099 283.646C206.818 283.646 207.511 284.025 207.511 284.782C207.511 285.853 206.465 286.755 202.896 289.393V290.843ZM86.5236 290.843H85.4385V287.16L82 282.131H83.2682L85.9745 286.18L88.6808 282.131H89.949L86.5236 287.16V290.843ZM92.1455 291C90.2236 291 89.0208 289.511 89.0208 287.682C89.0208 285.853 90.2236 284.377 92.1455 284.377C94.0673 284.377 95.2702 285.853 95.2702 287.682C95.2702 289.511 94.0673 291 92.1455 291ZM94.2373 287.682C94.2373 288.975 93.4921 290.125 92.1455 290.125C90.7988 290.125 90.0536 288.975 90.0536 287.682C90.0536 286.402 90.7988 285.253 92.1455 285.253C93.4921 285.253 94.2373 286.402 94.2373 287.682ZM102.108 290.843H101.127V289.955C100.644 290.504 99.8199 291 98.8786 291C97.5581 291 96.8652 290.347 96.8652 288.988V284.534H97.8457V288.688C97.8457 289.798 98.4079 290.125 99.2708 290.125C100.029 290.125 100.761 289.681 101.127 289.171V284.534H102.108V290.843ZM104.069 290.843H105.05V286.376C105.337 285.866 106.161 285.37 106.775 285.37C106.919 285.37 107.037 285.383 107.154 285.396V284.39C106.292 284.39 105.559 284.887 105.05 285.54V284.534H104.069V290.843ZM113.508 290.843H111.652V282.131H117.823V283.763H113.508V285.605H117.731V287.238H113.508V290.843ZM118.673 287.682C118.673 289.485 119.928 291 122.007 291C124.098 291 125.354 289.485 125.354 287.682C125.354 285.893 124.098 284.377 122.007 284.377C119.928 284.377 118.673 285.893 118.673 287.682ZM122.007 289.524C123.039 289.524 123.628 288.675 123.628 287.682C123.628 286.702 123.039 285.853 122.007 285.853C120.974 285.853 120.398 286.702 120.398 287.682C120.398 288.675 120.974 289.524 122.007 289.524ZM126.582 290.843H128.243V286.676C128.517 286.271 129.25 285.958 129.799 285.958C129.982 285.958 130.139 285.971 130.256 285.997V284.377C129.472 284.377 128.687 284.835 128.243 285.396V284.534H126.582V290.843ZM137.303 290.843H135.63V290.033C135.133 290.66 134.44 291 133.682 291C132.087 291 130.884 289.798 130.884 287.695C130.884 285.631 132.074 284.377 133.682 284.377C134.427 284.377 135.133 284.704 135.63 285.344V282.131H137.303V290.843ZM135.63 288.806C135.355 289.224 134.754 289.524 134.192 289.524C133.25 289.524 132.597 288.779 132.597 287.695C132.597 286.598 133.25 285.853 134.192 285.853C134.754 285.853 135.355 286.154 135.63 286.572V288.806ZM144.193 290.843H142.337V282.131H148.508V283.763H144.193V285.605H148.416V287.238H144.193V290.843ZM149.357 287.682C149.357 289.485 150.613 291 152.691 291C154.783 291 156.038 289.485 156.038 287.682C156.038 285.893 154.783 284.377 152.691 284.377C150.613 284.377 149.357 285.893 149.357 287.682ZM152.691 289.524C153.724 289.524 154.313 288.675 154.313 287.682C154.313 286.702 153.724 285.853 152.691 285.853C151.658 285.853 151.083 286.702 151.083 287.682C151.083 288.675 151.658 289.524 152.691 289.524ZM156.862 287.682C156.862 289.628 158.261 291 160.209 291C161.503 291 162.288 290.438 162.706 289.851L161.621 288.845C161.32 289.263 160.863 289.524 160.287 289.524C159.281 289.524 158.575 288.779 158.575 287.682C158.575 286.585 159.281 285.853 160.287 285.853C160.863 285.853 161.32 286.089 161.621 286.533L162.706 285.514C162.288 284.939 161.503 284.377 160.209 284.377C158.261 284.377 156.862 285.749 156.862 287.682ZM169.714 290.843H168.053V290.046C167.622 290.53 166.864 291 165.831 291C164.445 291 163.791 290.242 163.791 289.015V284.534H165.452V288.361C165.452 289.237 165.909 289.524 166.615 289.524C167.256 289.524 167.766 289.171 168.053 288.806V284.534H169.714V290.843ZM170.812 290.02C171.479 290.634 172.538 291 173.636 291C175.388 291 176.368 290.125 176.368 288.975C176.368 287.391 174.922 287.095 173.828 286.872C173.163 286.736 172.629 286.627 172.629 286.271C172.629 285.919 173.021 285.644 173.623 285.644C174.394 285.644 175.113 285.971 175.492 286.376L176.159 285.239C175.532 284.743 174.682 284.377 173.61 284.377C171.949 284.377 171.021 285.305 171.021 286.363C171.021 287.868 172.401 288.148 173.487 288.368C174.192 288.511 174.773 288.629 174.773 289.041C174.773 289.433 174.433 289.72 173.714 289.72C172.93 289.72 171.989 289.289 171.531 288.858L170.812 290.02ZM182.84 290.843H180.984V282.131H182.84V290.843ZM186.579 290.843H188.449V283.763H190.985V282.131H184.03V283.763H186.579V290.843ZM198.346 290.843H192.175V282.131H198.346V283.763H194.031V285.605H198.254V287.238H194.031V289.21H198.346V290.843ZM213.826 291C212.217 291 211.028 290.386 210.387 289.602L211.355 288.361C211.956 288.988 212.91 289.354 213.76 289.354C214.819 289.354 215.408 288.897 215.408 288.244C215.408 287.552 214.871 287.238 213.656 287.238C213.29 287.238 212.701 287.251 212.57 287.264V285.592C212.727 285.605 213.329 285.605 213.656 285.605C214.623 285.605 215.264 285.318 215.264 284.678C215.264 283.985 214.558 283.646 213.643 283.646C212.806 283.646 212.048 283.959 211.433 284.547L210.505 283.385C211.211 282.588 212.309 282 213.839 282C215.878 282 217.133 282.914 217.133 284.364C217.133 285.462 216.192 286.18 215.225 286.35C216.114 286.441 217.264 287.134 217.264 288.44C217.264 289.942 215.917 291 213.826 291ZM222.298 290.843H224.154V289.041H225.278V287.408H224.154V282.131H221.592L218.127 287.578V289.041H222.298V290.843ZM219.944 287.408H222.298V283.776L219.944 287.408ZM234.208 290.843H235.189V286.389C235.189 285.017 234.496 284.377 233.175 284.377C232.221 284.377 231.358 284.913 230.926 285.448V282.131H229.946V290.843H230.926V286.232C231.292 285.723 232.025 285.253 232.783 285.253C233.646 285.253 234.208 285.566 234.208 286.689V290.843ZM242.079 290.843H241.098V290.125C240.588 290.7 239.856 291 239.006 291C237.947 291 236.81 290.282 236.81 288.91C236.81 287.486 237.934 286.833 239.006 286.833C239.869 286.833 240.588 287.107 241.098 287.682V286.546C241.098 285.71 240.418 285.226 239.503 285.226C238.745 285.226 238.13 285.488 237.568 286.102L237.11 285.422C237.79 284.717 238.601 284.377 239.634 284.377C240.98 284.377 242.079 284.978 242.079 286.507V290.843ZM241.098 289.511C240.719 290.033 240.052 290.295 239.372 290.295C238.444 290.295 237.803 289.72 237.803 288.91C237.803 288.113 238.444 287.538 239.372 287.538C240.052 287.538 240.719 287.8 241.098 288.309V289.511ZM246.066 291C245.02 291 244.157 290.673 243.517 290.007L244.014 289.302C244.432 289.785 245.229 290.203 246.092 290.203C247.06 290.203 247.596 289.746 247.596 289.119C247.596 288.436 246.815 288.246 245.951 288.036C244.882 287.776 243.687 287.486 243.687 286.193C243.687 285.2 244.523 284.377 246.027 284.377C247.112 284.377 247.87 284.782 248.367 285.292L247.91 285.971C247.53 285.514 246.851 285.174 246.027 285.174C245.164 285.174 244.628 285.605 244.628 286.167C244.628 286.754 245.343 286.924 246.162 287.12C247.257 287.382 248.537 287.687 248.537 289.093C248.537 290.151 247.687 291 246.066 291ZM256.395 290.125C255.61 290.125 254.839 289.681 254.499 289.132V286.271C254.839 285.723 255.61 285.253 256.395 285.253C257.663 285.253 258.421 286.298 258.421 287.695C258.421 289.093 257.663 290.125 256.395 290.125ZM254.499 290.843H253.518V282.131H254.499V285.488C255.009 284.795 255.78 284.377 256.63 284.377C258.29 284.377 259.441 285.671 259.441 287.695C259.441 289.746 258.277 291 256.63 291C255.741 291 254.97 290.543 254.499 289.903V290.843ZM260.67 287.682C260.67 289.655 262.016 291 263.899 291C264.919 291 265.769 290.647 266.409 290.02L265.939 289.38C265.429 289.903 264.71 290.19 263.978 290.19C262.618 290.19 261.794 289.197 261.716 288.009H266.815V287.761C266.815 285.866 265.69 284.377 263.781 284.377C261.977 284.377 260.67 285.853 260.67 287.682ZM265.847 287.277C265.834 286.35 265.207 285.187 263.768 285.187C262.422 285.187 261.755 286.324 261.703 287.277H265.847ZM268.031 287.682C268.031 289.655 269.377 291 271.26 291C272.28 291 273.129 290.647 273.77 290.02L273.299 289.38C272.79 289.903 272.07 290.19 271.338 290.19C269.979 290.19 269.155 289.197 269.076 288.009H274.175V287.761C274.175 285.866 273.051 284.377 271.142 284.377C269.338 284.377 268.031 285.853 268.031 287.682ZM273.208 287.277C273.195 286.35 272.567 285.187 271.129 285.187C269.782 285.187 269.116 286.324 269.063 287.277H273.208ZM280.033 290.843H281V286.415C281 285.044 280.307 284.377 279 284.377C278.045 284.377 277.182 284.913 276.738 285.448V284.534H275.757V290.843H276.738V286.232C277.117 285.723 277.836 285.253 278.607 285.253C279.457 285.253 280.033 285.592 280.033 286.716V290.843Z" fill="#222222"/>
<path fill-rule="evenodd" clip-rule="evenodd" d="M220.741 310.306H221.717V304.574H222.993V303.667H221.717V303.158C221.717 302.306 222.069 301.852 222.719 301.852C222.954 301.852 223.123 301.907 223.279 302.003L223.526 301.22C223.266 301.069 222.941 301 222.563 301C221.483 301 220.741 301.784 220.741 303.158V303.667H219.699V304.574H220.741V310.306ZM81.0778 310.306H82.0541V305.619C82.0541 304.175 81.3641 303.502 80.0494 303.502C79.0991 303.502 78.24 304.065 77.8104 304.629V301.137H76.8341V310.306H77.8104V305.454C78.1749 304.918 78.9039 304.423 79.6589 304.423C80.518 304.423 81.0778 304.753 81.0778 305.935V310.306ZM70 306.979C70 308.945 71.2627 310.471 73.1372 310.471C74.2827 310.471 74.9596 309.976 75.4412 309.316L74.7904 308.684C74.3738 309.275 73.8401 309.55 73.1892 309.55C71.8615 309.55 71.0154 308.45 71.0154 306.979C71.0154 305.509 71.8615 304.423 73.1892 304.423C73.8401 304.423 74.3738 304.67 74.7904 305.275L75.4412 304.656C74.9596 303.997 74.2827 303.502 73.1372 303.502C71.2627 303.502 70 305.014 70 306.979ZM86.8575 310.471C84.983 310.471 83.6422 309.055 83.6422 306.979C83.6422 305.055 84.9439 303.502 86.7403 303.502C88.6408 303.502 89.7603 305.069 89.7603 307.062V307.323H84.6836C84.7617 308.574 85.5818 309.619 86.9356 309.619C87.6645 309.619 88.3805 309.316 88.8882 308.766L89.3568 309.44C88.7189 310.1 87.8728 310.471 86.8575 310.471ZM86.7273 304.354C88.1592 304.354 88.784 305.577 88.797 306.553H84.6705C84.7226 305.55 85.3865 304.354 86.7273 304.354ZM94.1081 310.471C92.2336 310.471 90.9709 308.945 90.9709 306.979C90.9709 305.014 92.2336 303.502 94.1081 303.502C95.2536 303.502 95.9305 303.997 96.4122 304.656L95.7613 305.275C95.3448 304.67 94.811 304.423 94.1602 304.423C92.8324 304.423 91.9863 305.509 91.9863 306.979C91.9863 308.45 92.8324 309.55 94.1602 309.55C94.811 309.55 95.3448 309.275 95.7613 308.684L96.4122 309.316C95.9305 309.976 95.2536 310.471 94.1081 310.471ZM102.075 310.306H103.324L100.526 306.677L103.311 303.667H102.075L98.7683 307.199V301.137H97.792V310.306H98.7683V308.409L99.8227 307.323L102.075 310.306ZM107.295 310.471C105.42 310.471 104.079 309.055 104.079 306.979C104.079 305.055 105.381 303.502 107.178 303.502C109.078 303.502 110.198 305.069 110.198 307.062V307.323H105.121C105.199 308.574 106.019 309.619 107.373 309.619C108.102 309.619 108.818 309.316 109.325 308.766L109.794 309.44C109.156 310.1 108.31 310.471 107.295 310.471ZM107.164 304.354C108.596 304.354 109.221 305.577 109.234 306.553H105.108C105.16 305.55 105.824 304.354 107.164 304.354ZM117.305 310.306H116.329V309.316C115.86 309.99 115.092 310.471 114.207 310.471C112.567 310.471 111.408 309.151 111.408 306.993C111.408 304.863 112.567 303.502 114.207 303.502C115.053 303.502 115.821 303.942 116.329 304.67V301.137H117.305V310.306ZM116.329 308.491C115.99 309.069 115.222 309.55 114.454 309.55C113.179 309.55 112.424 308.464 112.424 306.993C112.424 305.522 113.179 304.423 114.454 304.423C115.222 304.423 115.99 304.918 116.329 305.495V308.491ZM120.572 309.976C120.572 310.814 120.117 311.598 119.518 312.052L119.023 311.625C119.44 311.337 119.817 310.801 119.869 310.347C119.843 310.361 119.752 310.375 119.687 310.375C119.336 310.375 119.062 310.072 119.062 309.674C119.062 309.275 119.362 308.931 119.752 308.931C120.195 308.931 120.572 309.316 120.572 309.976ZM125.61 311.997C126.365 312.78 127.094 313 128.148 313C129.684 313 131.155 312.313 131.155 310.21V303.667H130.179V304.67C129.671 303.942 128.903 303.502 128.057 303.502C126.404 303.502 125.259 304.821 125.259 306.952C125.259 309.096 126.417 310.388 128.057 310.388C128.943 310.388 129.711 309.88 130.179 309.206V310.21C130.179 311.612 129.19 312.148 128.148 312.148C127.25 312.148 126.625 311.9 126.105 311.254L125.61 311.997ZM128.305 309.467C129.073 309.467 129.828 308.973 130.179 308.395V305.481C129.828 304.918 129.073 304.423 128.305 304.423C127.029 304.423 126.274 305.481 126.274 306.952C126.274 308.409 127.029 309.467 128.305 309.467ZM132.744 306.979C132.744 308.904 133.941 310.471 135.855 310.471C137.768 310.471 138.966 308.904 138.966 306.979C138.966 305.055 137.768 303.502 135.855 303.502C133.941 303.502 132.744 305.055 132.744 306.979ZM135.855 309.55C137.195 309.55 137.937 308.34 137.937 306.979C137.937 305.632 137.195 304.423 135.855 304.423C134.514 304.423 133.772 305.632 133.772 306.979C133.772 308.34 134.514 309.55 135.855 309.55ZM144.121 308.918C144.121 309.907 144.589 310.471 145.527 310.471C146.086 310.471 146.438 310.292 146.685 310.045L146.399 309.261C146.269 309.412 146.021 309.55 145.735 309.55C145.318 309.55 145.11 309.192 145.11 308.698V304.574H146.386V303.667H145.11V301.852H144.121V303.667H143.079V304.574H144.121V308.918ZM150.499 310.471C148.586 310.471 147.388 308.904 147.388 306.979C147.388 305.055 148.586 303.502 150.499 303.502C152.413 303.502 153.61 305.055 153.61 306.979C153.61 308.904 152.413 310.471 150.499 310.471ZM152.582 306.979C152.582 308.34 151.84 309.55 150.499 309.55C149.158 309.55 148.416 308.34 148.416 306.979C148.416 305.632 149.158 304.423 150.499 304.423C151.84 304.423 152.582 305.632 152.582 306.979ZM160.171 310.471C159.234 310.471 158.765 309.907 158.765 308.918V304.574H157.724V303.667H158.765V301.852H159.755V303.667H161.03V304.574H159.755V308.698C159.755 309.192 159.963 309.55 160.379 309.55C160.666 309.55 160.913 309.412 161.043 309.261L161.33 310.045C161.082 310.292 160.731 310.471 160.171 310.471ZM166.654 310.306H167.63V305.619C167.63 304.175 166.94 303.502 165.625 303.502C164.675 303.502 163.816 304.065 163.386 304.629V301.137H162.41V310.306H163.386V305.454C163.751 304.918 164.48 304.423 165.235 304.423C166.094 304.423 166.654 304.753 166.654 305.935V310.306ZM172.433 310.471C170.559 310.471 169.218 309.055 169.218 306.979C169.218 305.055 170.52 303.502 172.316 303.502C174.217 303.502 175.336 305.069 175.336 307.062V307.323H170.26C170.338 308.574 171.158 309.619 172.512 309.619C173.24 309.619 173.956 309.316 174.464 308.766L174.933 309.44C174.295 310.1 173.449 310.471 172.433 310.471ZM172.303 304.354C173.735 304.354 174.36 305.577 174.373 306.553H170.247C170.299 305.55 170.962 304.354 172.303 304.354ZM183.056 310.471C181.181 310.471 179.918 308.945 179.918 306.979C179.918 305.014 181.181 303.502 183.056 303.502C184.201 303.502 184.878 303.997 185.36 304.656L184.709 305.275C184.292 304.67 183.759 304.423 183.108 304.423C181.78 304.423 180.934 305.509 180.934 306.979C180.934 308.45 181.78 309.55 183.108 309.55C183.759 309.55 184.292 309.275 184.709 308.684L185.36 309.316C184.878 309.976 184.201 310.471 183.056 310.471ZM190.671 310.306H191.647V305.742C191.647 304.134 190.554 303.502 189.213 303.502C188.184 303.502 187.377 303.859 186.7 304.601L187.156 305.316C187.716 304.67 188.328 304.395 189.083 304.395C189.994 304.395 190.671 304.904 190.671 305.784V306.979C190.163 306.375 189.447 306.086 188.588 306.086C187.521 306.086 186.401 306.773 186.401 308.271C186.401 309.715 187.534 310.471 188.588 310.471C189.434 310.471 190.163 310.155 190.671 309.55V310.306ZM188.952 309.729C189.629 309.729 190.293 309.454 190.671 308.904V307.639C190.293 307.103 189.629 306.828 188.952 306.828C188.028 306.828 187.39 307.433 187.39 308.271C187.39 309.124 188.028 309.729 188.952 309.729ZM193.613 310.306H194.589V305.605C194.875 305.069 195.695 304.546 196.307 304.546C196.45 304.546 196.568 304.56 196.685 304.574V303.515C195.826 303.515 195.097 304.038 194.589 304.725V303.667H193.613V310.306ZM204.378 310.471C203.519 310.471 202.777 310.031 202.256 309.302V312.835H201.28V303.667H202.256V304.656C202.712 303.983 203.493 303.502 204.378 303.502C206.031 303.502 207.177 304.821 207.177 306.979C207.177 309.124 206.031 310.471 204.378 310.471ZM206.148 306.979C206.148 308.45 205.393 309.55 204.131 309.55C203.363 309.55 202.595 309.055 202.256 308.478V305.481C202.595 304.904 203.363 304.423 204.131 304.423C205.393 304.423 206.148 305.509 206.148 306.979ZM209.702 310.306H208.726V303.667H209.702V304.725C210.21 304.038 210.939 303.515 211.798 303.515V304.574C211.681 304.56 211.564 304.546 211.42 304.546C210.809 304.546 209.988 305.069 209.702 305.605V310.306ZM212.657 306.979C212.657 308.904 213.855 310.471 215.768 310.471C217.682 310.471 218.879 308.904 218.879 306.979C218.879 305.055 217.682 303.502 215.768 303.502C213.855 303.502 212.657 305.055 212.657 306.979ZM215.768 309.55C217.109 309.55 217.851 308.34 217.851 306.979C217.851 305.632 217.109 304.423 215.768 304.423C214.427 304.423 213.685 305.632 213.685 306.979C213.685 308.34 214.427 309.55 215.768 309.55ZM224.659 302.718C224.294 302.718 223.995 302.416 223.995 302.031C223.995 301.646 224.294 301.33 224.659 301.33C225.023 301.33 225.31 301.646 225.31 302.031C225.31 302.416 225.023 302.718 224.659 302.718ZM224.164 310.306H225.141V303.667H224.164V310.306ZM228.07 310.306H227.093V301.137H228.07V310.306ZM229.658 306.979C229.658 309.055 230.998 310.471 232.873 310.471C233.888 310.471 234.734 310.1 235.372 309.44L234.904 308.766C234.396 309.316 233.68 309.619 232.951 309.619C231.597 309.619 230.777 308.574 230.699 307.323H235.776V307.062C235.776 305.069 234.656 303.502 232.756 303.502C230.959 303.502 229.658 305.055 229.658 306.979ZM234.812 306.553C234.799 305.577 234.175 304.354 232.743 304.354C231.402 304.354 230.738 305.55 230.686 306.553H234.812ZM240.918 308.918C240.918 309.907 241.386 310.471 242.324 310.471C242.883 310.471 243.235 310.292 243.482 310.045L243.196 309.261C243.066 309.412 242.818 309.55 242.532 309.55C242.115 309.55 241.907 309.192 241.907 308.698V304.574H243.183V303.667H241.907V301.852H240.918V303.667H239.876V304.574H240.918V308.918ZM247.296 310.471C245.383 310.471 244.185 308.904 244.185 306.979C244.185 305.055 245.383 303.502 247.296 303.502C249.21 303.502 250.407 305.055 250.407 306.979C250.407 308.904 249.21 310.471 247.296 310.471ZM249.379 306.979C249.379 308.34 248.637 309.55 247.296 309.55C245.955 309.55 245.213 308.34 245.213 306.979C245.213 305.632 245.955 304.423 247.296 304.423C248.637 304.423 249.379 305.632 249.379 306.979ZM260.274 310.306H259.298V309.55C258.79 310.155 258.061 310.471 257.215 310.471C256.161 310.471 255.028 309.715 255.028 308.271C255.028 306.773 256.148 306.086 257.215 306.086C258.074 306.086 258.79 306.375 259.298 306.979V305.784C259.298 304.904 258.621 304.395 257.71 304.395C256.955 304.395 256.343 304.67 255.783 305.316L255.328 304.601C256.005 303.859 256.812 303.502 257.84 303.502C259.181 303.502 260.274 304.134 260.274 305.742V310.306ZM259.298 308.904C258.921 309.454 258.257 309.729 257.58 309.729C256.656 309.729 256.018 309.124 256.018 308.271C256.018 307.433 256.656 306.828 257.58 306.828C258.257 306.828 258.921 307.103 259.298 307.639V308.904ZM265.013 310.471C263.138 310.471 261.876 308.945 261.876 306.979C261.876 305.014 263.138 303.502 265.013 303.502C266.158 303.502 266.835 303.997 267.317 304.656L266.666 305.275C266.249 304.67 265.716 304.423 265.065 304.423C263.737 304.423 262.891 305.509 262.891 306.979C262.891 308.45 263.737 309.55 265.065 309.55C265.716 309.55 266.249 309.275 266.666 308.684L267.317 309.316C266.835 309.976 266.158 310.471 265.013 310.471ZM268.332 306.979C268.332 308.945 269.595 310.471 271.469 310.471C272.615 310.471 273.292 309.976 273.773 309.316L273.123 308.684C272.706 309.275 272.172 309.55 271.521 309.55C270.194 309.55 269.348 308.45 269.348 306.979C269.348 305.509 270.194 304.423 271.521 304.423C272.172 304.423 272.706 304.67 273.123 305.275L273.773 304.656C273.292 303.997 272.615 303.502 271.469 303.502C269.595 303.502 268.332 305.014 268.332 306.979ZM278.004 310.471C276.13 310.471 274.789 309.055 274.789 306.979C274.789 305.055 276.09 303.502 277.887 303.502C279.787 303.502 280.907 305.069 280.907 307.062V307.323H275.83C275.908 308.574 276.728 309.619 278.082 309.619C278.811 309.619 279.527 309.316 280.035 308.766L280.503 309.44C279.866 310.1 279.019 310.471 278.004 310.471ZM277.874 304.354C279.306 304.354 279.931 305.577 279.944 306.553H275.817C275.869 305.55 276.533 304.354 277.874 304.354ZM284.487 310.471C283.445 310.471 282.586 310.127 281.948 309.426L282.443 308.684C282.859 309.192 283.654 309.632 284.513 309.632C285.476 309.632 286.01 309.151 286.01 308.491C286.01 307.772 285.232 307.573 284.372 307.352C283.308 307.079 282.118 306.773 282.118 305.412C282.118 304.368 282.951 303.502 284.448 303.502C285.528 303.502 286.283 303.928 286.778 304.464L286.322 305.179C285.945 304.698 285.268 304.34 284.448 304.34C283.588 304.34 283.055 304.794 283.055 305.385C283.055 306.002 283.767 306.182 284.582 306.388C285.672 306.663 286.947 306.985 286.947 308.464C286.947 309.577 286.101 310.471 284.487 310.471ZM288.001 309.426C288.639 310.127 289.498 310.471 290.54 310.471C292.154 310.471 293 309.577 293 308.464C293 306.985 291.725 306.663 290.635 306.388C289.82 306.182 289.108 306.002 289.108 305.385C289.108 304.794 289.642 304.34 290.501 304.34C291.321 304.34 291.998 304.698 292.375 305.179L292.831 304.464C292.336 303.928 291.581 303.502 290.501 303.502C289.004 303.502 288.171 304.368 288.171 305.412C288.171 306.773 289.361 307.079 290.425 307.352C291.285 307.573 292.063 307.772 292.063 308.491C292.063 309.151 291.529 309.632 290.566 309.632C289.707 309.632 288.913 309.192 288.496 308.684L288.001 309.426Z" fill="#222222"/>
<path fill-rule="evenodd" clip-rule="evenodd" d="M166.063 329.649H167.049V324.322H168.338V323.479H167.049V323.006C167.049 322.214 167.404 321.792 168.062 321.792C168.377 321.792 168.627 321.907 168.838 322.086L169.245 321.473C168.851 321.115 168.417 321 167.904 321C166.786 321 166.063 321.741 166.063 323.006V323.479H165.011V324.322H166.063V329.649ZM153.006 329.649H152.02V325.587C152.02 324.488 151.455 324.181 150.587 324.181C149.824 324.181 149.088 324.641 148.72 325.139V329.649H147.734V321.128H148.72V324.373C149.154 323.849 150.022 323.325 150.981 323.325C152.309 323.325 153.006 323.951 153.006 325.293V329.649ZM145.472 329.803C144.525 329.803 144.052 329.279 144.052 328.359V324.322H143V323.479H144.052V321.792H145.051V323.479H146.34V324.322H145.051V328.154C145.051 328.614 145.262 328.947 145.682 328.947C145.972 328.947 146.221 328.819 146.353 328.678L146.642 329.407C146.392 329.636 146.037 329.803 145.472 329.803ZM154.61 326.557C154.61 328.487 155.965 329.803 157.858 329.803C158.884 329.803 159.739 329.458 160.383 328.844L159.909 328.218C159.397 328.729 158.673 329.01 157.937 329.01C156.57 329.01 155.741 328.039 155.662 326.877H160.79V326.634C160.79 324.782 159.66 323.325 157.74 323.325C155.925 323.325 154.61 324.769 154.61 326.557ZM159.817 326.161C159.804 325.254 159.173 324.117 157.727 324.117C156.372 324.117 155.702 325.229 155.649 326.161H159.817ZM174.794 329.649H173.808V328.78C173.321 329.317 172.493 329.803 171.546 329.803C170.218 329.803 169.521 329.164 169.521 327.835V323.479H170.508V327.541C170.508 328.627 171.073 328.947 171.941 328.947C172.703 328.947 173.44 328.512 173.808 328.014V323.479H174.794V329.649ZM176.766 329.649H177.753V321.128H176.766V329.649ZM180.711 329.649H179.725V321.128H180.711V329.649ZM186.089 329.649H187.075V325.28C187.364 324.782 188.193 324.296 188.811 324.296C188.955 324.296 189.074 324.309 189.192 324.322V323.338C188.324 323.338 187.588 323.823 187.075 324.462V323.479H186.089V329.649ZM193.308 329.803C191.414 329.803 190.06 328.487 190.06 326.557C190.06 324.769 191.375 323.325 193.189 323.325C195.109 323.325 196.24 324.782 196.24 326.634V326.877H191.112C191.191 328.039 192.019 329.01 193.387 329.01C194.123 329.01 194.846 328.729 195.359 328.218L195.832 328.844C195.188 329.458 194.333 329.803 193.308 329.803ZM193.176 324.117C194.623 324.117 195.254 325.254 195.267 326.161H191.099C191.151 325.229 191.822 324.117 193.176 324.117ZM200.96 329.803C200.093 329.803 199.343 329.394 198.817 328.717V332H197.831V323.479H198.817V324.398C199.277 323.772 200.066 323.325 200.96 323.325C202.63 323.325 203.787 324.552 203.787 326.557C203.787 328.551 202.63 329.803 200.96 329.803ZM202.749 326.557C202.749 327.925 201.986 328.947 200.711 328.947C199.935 328.947 199.159 328.487 198.817 327.95V325.165C199.159 324.628 199.935 324.181 200.711 324.181C201.986 324.181 202.749 325.19 202.749 326.557ZM208.127 329.803C206.194 329.803 204.984 328.346 204.984 326.557C204.984 324.769 206.194 323.325 208.127 323.325C210.059 323.325 211.269 324.769 211.269 326.557C211.269 328.346 210.059 329.803 208.127 329.803ZM210.23 326.557C210.23 327.822 209.481 328.947 208.127 328.947C206.772 328.947 206.023 327.822 206.023 326.557C206.023 325.305 206.772 324.181 208.127 324.181C209.481 324.181 210.23 325.305 210.23 326.557ZM213.859 329.649H212.873V323.479H213.859V324.462C214.372 323.823 215.109 323.338 215.976 323.338V324.322C215.858 324.309 215.74 324.296 215.595 324.296C214.977 324.296 214.149 324.782 213.859 325.28V329.649ZM217.41 328.359C217.41 329.279 217.883 329.803 218.83 329.803C219.395 329.803 219.75 329.636 220 329.407L219.711 328.678C219.579 328.819 219.329 328.947 219.04 328.947C218.619 328.947 218.409 328.614 218.409 328.154V324.322H219.698V323.479H218.409V321.792H217.41V323.479H216.358V324.322H217.41V328.359Z" fill="#222222"/>
<path fill-rule="evenodd" clip-rule="evenodd" d="M67.2612 361H294.739C296.54 361 298 362.463 298 364.267V406.733C298 408.538 296.54 410 294.739 410H67.2612C65.4599 410 64 408.538 64 406.733V364.267C64 362.463 65.4599 361 67.2612 361Z" fill="#59B15B"/>
<path fill-rule="evenodd" clip-rule="evenodd" d="M219.67 381.074C219.67 381.676 220.182 382.163 220.781 382.163C221.395 382.163 221.893 381.676 221.893 381.074C221.893 380.473 221.395 380 220.781 380C220.182 380 219.67 380.473 219.67 381.074ZM164.879 385.057C164.879 387.994 167.146 390 170.07 390C172.22 390 173.448 388.84 174.15 387.65L172.366 386.805C171.957 387.593 171.079 388.195 170.07 388.195C168.301 388.195 167.014 386.862 167.014 385.057C167.014 383.252 168.301 381.92 170.07 381.92C171.079 381.92 171.957 382.536 172.366 383.309L174.15 382.45C173.463 381.261 172.22 380.115 170.07 380.115C167.146 380.115 164.879 382.12 164.879 385.057ZM136 388.481C136.907 389.384 138.252 390 140.124 390C142.756 390 144.028 388.682 144.028 386.934C144.028 384.775 141.977 384.295 140.357 383.916C139.3 383.669 138.427 383.465 138.427 382.865C138.427 382.292 138.925 381.905 139.816 381.905C140.811 381.905 141.864 382.235 142.653 382.951L143.808 381.461C142.843 380.587 141.557 380.129 140.007 380.129C137.711 380.129 136.307 381.447 136.307 383.037C136.307 385.171 138.283 385.63 139.891 386.004C140.993 386.26 141.922 386.476 141.922 387.163C141.922 387.708 141.366 388.223 140.226 388.223C138.881 388.223 137.813 387.636 137.126 386.934L136 388.481ZM144.934 386.361C144.934 388.582 146.557 390 148.707 390C149.804 390 150.915 389.67 151.617 389.04L150.798 387.865C150.345 388.295 149.511 388.553 148.912 388.553C147.713 388.553 146.996 387.822 146.879 386.948H152.129V386.547C152.129 384.284 150.696 382.736 148.59 382.736C146.44 382.736 144.934 384.355 144.934 386.361ZM150.33 385.716C150.286 385.057 149.818 384.183 148.59 384.183C147.435 384.183 146.938 385.029 146.85 385.716H150.33ZM153.021 386.361C153.021 388.582 154.644 390 156.793 390C157.89 390 159.001 389.67 159.703 389.04L158.884 387.865C158.431 388.295 157.597 388.553 156.998 388.553C155.799 388.553 155.082 387.822 154.965 386.948H160.215V386.547C160.215 384.284 158.782 382.736 156.676 382.736C154.527 382.736 153.021 384.355 153.021 386.361ZM158.416 385.716C158.372 385.057 157.905 384.183 156.676 384.183C155.521 384.183 155.024 385.029 154.936 385.716H158.416ZM181.447 389.828H179.59V389.112C179.107 389.67 178.274 390 177.352 390C176.226 390 174.896 389.255 174.896 387.708C174.896 386.089 176.226 385.473 177.352 385.473C178.288 385.473 179.122 385.774 179.59 386.318V385.387C179.59 384.685 178.976 384.226 178.04 384.226C177.279 384.226 176.577 384.499 175.978 385.043L175.276 383.825C176.139 383.08 177.25 382.736 178.361 382.736C179.97 382.736 181.447 383.367 181.447 385.358V389.828ZM179.59 388.166C179.283 388.567 178.698 388.768 178.098 388.768C177.367 388.768 176.768 388.395 176.768 387.751C176.768 387.077 177.367 386.705 178.098 386.705C178.698 386.705 179.283 386.905 179.59 387.307V388.166ZM185.146 389.828H183.289V382.908H185.146V383.854C185.643 383.238 186.521 382.736 187.398 382.736V384.513C187.266 384.484 187.091 384.47 186.886 384.47C186.272 384.47 185.453 384.814 185.146 385.258V389.828ZM192.34 389.828H194.417V386.433H196.903C199.008 386.433 200.178 385.014 200.178 383.352C200.178 381.676 199.023 380.272 196.903 380.272H192.34V389.828ZM196.625 384.642C197.444 384.642 198.058 384.14 198.058 383.352C198.058 382.55 197.444 382.063 196.625 382.063H194.417V384.642H196.625ZM201.421 389.828H203.278V385.258C203.585 384.814 204.404 384.47 205.018 384.47C205.223 384.47 205.398 384.484 205.53 384.513V382.736C204.653 382.736 203.775 383.238 203.278 383.854V382.908H201.421V389.828ZM209.961 390C207.636 390 206.232 388.338 206.232 386.361C206.232 384.398 207.636 382.736 209.961 382.736C212.3 382.736 213.704 384.398 213.704 386.361C213.704 388.338 212.3 390 209.961 390ZM211.774 386.361C211.774 387.45 211.116 388.381 209.961 388.381C208.805 388.381 208.162 387.45 208.162 386.361C208.162 385.287 208.805 384.355 209.961 384.355C211.116 384.355 211.774 385.287 211.774 386.361ZM217.36 389.828H215.488V384.499H214.318V382.908H215.488V382.536C215.488 381.032 216.482 380.129 217.871 380.129C218.398 380.129 218.88 380.244 219.217 380.415L218.836 381.734C218.69 381.633 218.486 381.562 218.237 381.562C217.711 381.562 217.36 381.905 217.36 382.536V382.908H218.793V384.499H217.36V389.828ZM221.717 389.828H219.86V382.908H221.717V389.828ZM223.56 389.828H225.417V380.272H223.56V389.828ZM230.578 390C228.429 390 226.806 388.582 226.806 386.361C226.806 384.355 228.312 382.736 230.461 382.736C232.567 382.736 234 384.284 234 386.547V386.948H228.751C228.868 387.822 229.584 388.553 230.783 388.553C231.383 388.553 232.216 388.295 232.669 387.865L233.488 389.04C232.786 389.67 231.675 390 230.578 390ZM230.461 384.183C231.69 384.183 232.158 385.057 232.201 385.716H228.721C228.809 385.029 229.306 384.183 230.461 384.183Z" fill="white"/>
</g>
<defs>
<filter id="filter0_d" x="0" y="0" width="362.808" height="504.753" filterUnits="userSpaceOnUse" color-interpolation-filters="sRGB">
<feFlood flood-opacity="0" result="BackgroundImageFix"/>
<feColorMatrix in="SourceAlpha" type="matrix" values="0 0 0 0 0 0 0 0 0 0 0 0 0 0 0 0 0 0 127 0" result="hardAlpha"/>
<feOffset dy="30"/>
<feGaussianBlur stdDeviation="24"/>
<feColorMatrix type="matrix" values="0 0 0 0 0.576905 0 0 0 0 0.619141 0 0 0 0 0.578147 0 0 0 0.473885 0"/>
<feBlend mode="normal" in2="BackgroundImageFix" result="effect1_dropShadow"/>
<feBlend mode="normal" in="SourceGraphic" in2="effect1_dropShadow" result="shape"/>
</filter>
</defs>
</svg>
