<svg width="36" height="36" viewBox="0 0 36 36" fill="none" xmlns="http://www.w3.org/2000/svg">
<g opacity="0.8">
<g clip-path="url(#clip0_1260_743)">
<path fill-rule="evenodd" clip-rule="evenodd" d="M14.7558 5.91657C14.2237 5.74861 13.6599 5.70638 13.1087 5.7932C12.5576 5.88001 12.034 6.0935 11.5793 6.41688C11.1266 6.73882 10.7544 7.16094 10.4917 7.65031C10.1683 8.28467 10.057 9.00618 10.1744 9.70863C10.2922 10.4135 10.6339 11.0617 11.149 11.5571L11.1655 11.5734L17.3768 17.8733C17.3768 17.8734 17.3767 17.8733 17.3768 17.8733C17.4582 17.9558 17.5552 18.0214 17.6621 18.0661C17.7691 18.1109 17.8838 18.1339 17.9998 18.1339C18.1157 18.1339 18.2305 18.1109 18.3374 18.0661C18.4444 18.0214 18.5414 17.9559 18.6228 17.8733L24.8342 11.5778L24.851 11.5613C25.3671 11.0657 25.7095 10.4169 25.8275 9.71126C25.9451 9.00793 25.8334 8.2855 25.5091 7.65056C25.2464 7.16109 24.8742 6.73887 24.4214 6.41688C23.9667 6.0935 23.4431 5.88001 22.892 5.7932C22.3408 5.70638 21.777 5.74861 21.2449 5.91657C20.7132 6.08439 20.2277 6.37317 19.8264 6.76023C19.8261 6.76053 19.8258 6.76083 19.8255 6.76112L18.6094 7.94223C18.2698 8.27212 17.7293 8.27199 17.3898 7.94194L16.1753 6.76112C16.1749 6.76079 16.1746 6.76045 16.1742 6.76011C15.773 6.37311 15.2875 6.08437 14.7558 5.91657ZM26.2843 7.24456L27.0627 6.84489C27.5615 7.81633 27.7336 8.92275 27.5536 9.99981C27.3742 11.0728 26.8548 12.0597 26.0721 12.8149L19.8688 19.1021C19.6246 19.3498 19.3336 19.5464 19.0127 19.6806C18.6919 19.8148 18.3476 19.8839 17.9998 19.8839C17.652 19.8839 17.3077 19.8148 16.9868 19.6806C16.666 19.5464 16.375 19.3498 16.1308 19.1021L9.92712 12.8099C9.14584 12.0549 8.62742 11.0689 8.44831 9.99706C8.26854 8.9212 8.44018 7.81604 8.9378 6.84538L9.71644 7.24456L8.94466 6.83227C9.33512 6.10137 9.88981 5.471 10.5651 4.99075C11.2404 4.51049 12.0179 4.19343 12.8365 4.06451C13.655 3.93558 14.4924 3.9983 15.2826 4.24773C16.0728 4.49716 16.7944 4.9265 17.3906 5.502L17.3929 5.50418L18.0001 6.09449L18.6081 5.50389L18.6101 5.502C19.2063 4.9265 19.9279 4.49716 20.7181 4.24773C21.5084 3.9983 22.3457 3.93558 23.1642 4.06451C23.9828 4.19343 24.7603 4.51049 25.4356 4.99075C26.1109 5.471 26.6656 6.10137 27.0561 6.83227L26.2843 7.24456Z" fill="#151931"/>
<path fill-rule="evenodd" clip-rule="evenodd" d="M6.625 18.1586C6.39294 18.1586 6.17038 18.2508 6.00628 18.4149C5.84219 18.5789 5.75 18.8015 5.75 19.0336V25.0676C5.75 26.0571 6.08548 27.0174 6.70147 27.7915L9.04306 30.5598C9.35515 30.9288 9.30904 31.4809 8.94009 31.793C8.57113 32.105 8.01903 32.0589 7.70694 31.69L5.35727 28.9122L5.34206 28.8937C4.4733 27.8076 4 26.4583 4 25.0676V19.0336C4 18.3374 4.27656 17.6697 4.76884 17.1774C5.26113 16.6851 5.92881 16.4086 6.625 16.4086C7.32119 16.4086 7.98887 16.6851 8.48116 17.1774C8.97344 17.6697 9.25 18.3374 9.25 19.0336V23.4086C9.25 23.8918 8.85825 24.2836 8.375 24.2836C7.89175 24.2836 7.5 23.8918 7.5 23.4086V19.0336C7.5 18.8015 7.40781 18.5789 7.24372 18.4149C7.07962 18.2508 6.85706 18.1586 6.625 18.1586Z" fill="#151931"/>
<path fill-rule="evenodd" clip-rule="evenodd" d="M9.54917 21.0925C9.88258 21.03 10.2252 21.0358 10.5563 21.1095C10.8874 21.1832 11.2001 21.3232 11.4756 21.5212C11.745 21.715 11.9733 21.9602 12.1472 22.2426L13.4696 24.2228C14.1419 25.2301 14.5006 26.4143 14.5001 27.6254C14.5001 27.6255 14.5001 27.6252 14.5001 27.6254V31.1254C14.5001 31.6086 14.1084 32.0004 13.6251 32.0004C13.1419 32.0004 12.7501 31.6086 12.7501 31.1254V27.6254C12.7505 26.7603 12.4945 25.9142 12.0143 25.1947C12.0143 25.1946 12.0144 25.1947 12.0143 25.1947L10.682 23.1997C10.6746 23.1886 10.6675 23.1773 10.6606 23.1659C10.6076 23.0782 10.5373 23.002 10.454 22.9422C10.3708 22.8823 10.2762 22.84 10.1761 22.8177C10.076 22.7954 9.97244 22.7936 9.87164 22.8125C9.77098 22.8314 9.67519 22.8705 9.59004 22.9274C9.43726 23.03 9.32698 23.1846 9.27977 23.3625C9.23495 23.5313 9.24989 23.7102 9.32154 23.869L10.8775 26.4584C11.1264 26.8726 10.9924 27.4101 10.5781 27.659C10.1639 27.9079 9.62636 27.7739 9.37746 27.3597L7.80013 24.7347C7.78814 24.7148 7.77696 24.6944 7.7666 24.6735C7.49542 24.128 7.43205 23.5024 7.58833 22.9136C7.7446 22.3247 8.10984 21.8129 8.61585 21.4736C8.89778 21.285 9.21577 21.155 9.54917 21.0925Z" fill="#151931"/>
<path fill-rule="evenodd" clip-rule="evenodd" d="M29.3749 18.1586C29.6069 18.1586 29.8295 18.2508 29.9936 18.4149C30.1577 18.5789 30.2499 18.8015 30.2499 19.0336V25.0676C30.2499 26.0571 29.9144 27.0174 29.2984 27.7915L26.9567 30.5598C26.6446 30.9288 26.6907 31.4809 27.0597 31.793C27.4286 32.105 27.9808 32.0589 28.2929 31.69L30.6427 28.9122L30.6579 28.8937C31.5267 27.8076 32 26.4583 32 25.0676V19.0336C32 18.3374 31.7234 17.6697 31.2311 17.1774C30.7388 16.6851 30.0711 16.4086 29.3749 16.4086C28.6786 16.4086 28.0109 16.6851 27.5186 17.1774C27.0263 17.6697 26.7497 18.3374 26.7497 19.0336V23.4086C26.7497 23.8918 27.1415 24.2836 27.6248 24.2836C28.1081 24.2836 28.4998 23.8918 28.4998 23.4086V19.0336C28.4998 18.8015 28.592 18.5789 28.7561 18.4149C28.9202 18.2508 29.1428 18.1586 29.3749 18.1586Z" fill="#151931"/>
<path fill-rule="evenodd" clip-rule="evenodd" d="M26.4507 21.0925C26.1173 21.03 25.7747 21.0358 25.4435 21.1095C25.1124 21.1832 24.7997 21.3232 24.5242 21.5212C24.2548 21.715 24.0265 21.9602 23.8526 22.2426L22.5301 24.2228C21.8578 25.2301 21.499 26.4143 21.4995 27.6254C21.4995 27.6255 21.4995 27.6252 21.4995 27.6254V31.1254C21.4995 31.6086 21.8913 32.0004 22.3745 32.0004C22.8578 32.0004 23.2496 31.6086 23.2496 31.1254V27.6254C23.2492 26.7603 23.5053 25.9142 23.9854 25.1947C23.9855 25.1946 23.9854 25.1947 23.9854 25.1947L25.3179 23.1997C25.3252 23.1886 25.3324 23.1773 25.3393 23.1659C25.3923 23.0782 25.4625 23.002 25.5458 22.9422C25.6291 22.8823 25.7236 22.84 25.8237 22.8177C25.9238 22.7954 26.0274 22.7936 26.1282 22.8125C26.2289 22.8314 26.3247 22.8705 26.4099 22.9274C26.5626 23.03 26.6729 23.1846 26.7201 23.3625C26.765 23.5313 26.75 23.7102 26.6784 23.869L25.1223 26.4584C24.8734 26.8726 25.0075 27.4101 25.4217 27.659C25.8359 27.9079 26.3735 27.7739 26.6224 27.3597L28.1999 24.7347C28.2118 24.7148 28.223 24.6944 28.2334 24.6735C28.5046 24.128 28.568 23.5024 28.4117 22.9136C28.2554 22.3247 27.8901 21.8129 27.3841 21.4736C27.1021 21.285 26.7841 21.155 26.4507 21.0925Z" fill="#151931"/>
</g>
</g>
<defs>
<clipPath id="clip0_1260_743">
<rect width="28" height="28" fill="white" transform="translate(4 4)"/>
</clipPath>
</defs>
</svg>
