<svg width="36" height="36" fill="none" xmlns="http://www.w3.org/2000/svg"><g clip-path="url(#a)" fill-rule="evenodd" clip-rule="evenodd" fill="#151931" opacity=".8"><path d="M14.76 5.92a3.6 3.6 0 0 0-4.27 1.73 3.33 3.33 0 0 0 .66 3.9l.02.02 6.2 6.3a.88.88 0 0 0 1.25 0l6.21-6.3h.02a3.33 3.33 0 0 0-.43-5.15 3.6 3.6 0 0 0-4.6.34l-1.21 1.18a.88.88 0 0 1-1.22 0l-1.21-1.18a3.6 3.6 0 0 0-1.42-.84Zm11.52 1.32.78-.4a5.08 5.08 0 0 1-.99 5.97l-6.2 6.3a2.62 2.62 0 0 1-3.74 0l-6.2-6.3a5.07 5.07 0 0 1-1-5.96l.79.4-.78-.42A5.36 5.36 0 0 1 17.4 5.5l.61.6.6-.6h.01a5.36 5.36 0 0 1 8.45 1.33l-.78.41ZM6.63 18.16a.88.88 0 0 0-.88.87v6.04c0 .99.34 1.95.95 2.72l2.34 2.77a.88.88 0 0 1-1.33 1.13l-2.35-2.78-.02-.02A6.13 6.13 0 0 1 4 25.07v-6.04a2.63 2.63 0 0 1 5.25 0v4.38a.88.88 0 0 1-1.75 0v-4.38a.87.87 0 0 0-.88-.87Z"/><path d="M9.55 21.1a2.5 2.5 0 0 1 2.6 1.14l1.32 1.98c.67 1.01 1.03 2.2 1.03 3.4v3.5a.87.87 0 1 1-1.75 0v-3.5a4.38 4.38 0 0 0-.74-2.43l-1.33-1.99a.76.76 0 0 0-1.36.67l1.56 2.59a.87.87 0 1 1-1.5.9L7.8 24.73a2.5 2.5 0 0 1 1.75-3.64ZM29.37 18.16a.88.88 0 0 1 .88.87v6.04c0 .99-.34 1.95-.95 2.72l-2.34 2.77a.88.88 0 1 0 1.33 1.13l2.35-2.78.02-.02A6.13 6.13 0 0 0 32 25.07v-6.04a2.63 2.63 0 0 0-5.25 0v4.38a.88.88 0 0 0 1.75 0v-4.38a.87.87 0 0 1 .87-.87Z"/><path d="M26.45 21.1a2.5 2.5 0 0 0-2.6 1.14l-1.32 1.98c-.67 1.01-1.03 2.2-1.03 3.4v3.5a.88.88 0 0 0 1.75 0v-3.5c0-.86.26-1.7.74-2.43l1.33-1.99.02-.03a.76.76 0 0 1 1.34.7l-1.56 2.59a.87.87 0 0 0 1.5.9l1.58-2.63a2.5 2.5 0 0 0-1.75-3.64Z"/></g><defs><clipPath id="a"><path fill="#fff" transform="translate(4 4)" d="M0 0h28v28H0z"/></clipPath></defs></svg>
