<svg width="20" height="20" fill="none" xmlns="http://www.w3.org/2000/svg"><path d="M1.287 18.408h9.59l-10.044-.52a.44.44 0 0 0 .133.316c.085.083.2.13.32.13v.074Zm0 0a.531.531 0 0 1-.374-.15.515.515 0 0 1-.155-.37m.529.52-.529-.52m0 0v-3.78c0-2.887 2.384-5.221 5.321-5.221 2.938 0 5.321 2.334 5.321 5.222v3.78H.758Zm11.68-6.7v-.001a.52.52 0 0 1 .262-.307 4.484 4.484 0 0 1 2.094-.515c2.456 0 4.448 1.97 4.448 4.401v3.122m-6.805-6.7 6.277 7.145c.12 0 .236-.046.32-.13a.44.44 0 0 0 .133-.315h.075m-6.805-6.7a.511.511 0 0 0 .04.4.534.534 0 0 0 .723.203 3.393 3.393 0 0 1 1.594-.39c1.886 0 3.395 1.49 3.395 3.365v2.606H13.632a.522.522 0 0 0-.515.518c0 .283.23.512.515.518h5.082m-6.277-7.22 6.277 7.22m.528-.52a.514.514 0 0 1-.155.369.532.532 0 0 1-.373.151m.528-.52-.529.52M6.08 1.592c-1.924 0-3.495 1.538-3.495 3.43 0 1.892 1.571 3.432 3.495 3.432 1.924 0 3.497-1.54 3.497-3.432s-1.573-3.43-3.497-3.43Zm0 1.032c1.356 0 2.444 1.07 2.444 2.398 0 1.327-1.088 2.397-2.444 2.397-1.356 0-2.443-1.07-2.443-2.397 0-1.328 1.087-2.398 2.443-2.398Zm8.715 1.46c-1.628 0-2.954 1.318-2.954 2.926s1.326 2.923 2.954 2.923c1.627 0 2.956-1.314 2.956-2.923s-1.328-2.927-2.956-2.927Zm0 1.035a1.888 1.888 0 1 1 0 3.777 1.89 1.89 0 1 1 0-3.777ZM6.079 9.923c2.374 0 4.27 1.86 4.27 4.186v3.263H1.81V14.11c0-2.326 1.895-4.186 4.268-4.186Z" fill="#151931" stroke="#151931" stroke-width=".15"/></svg>