<svg width="100" height="29" fill="none" xmlns="http://www.w3.org/2000/svg"><path d="M26 0h4.6v28.4H26V0ZM46.6 19.4c0 4.4-3.6 4.8-4.8 4.8-2.8 0-3.2-2.6-3.2-4v-11H34V20c0 2.6.8 5 2.4 6.4 1.4 1.4 3.2 2 5.4 2 1.6 0 3.6-.4 4.8-1.6v1.6h4.6V9.2h-4.6v10.2ZM60.2 2.2h-4.6v7h-3.4v4.4h3.4v14.8h4.6V13.6h3.4V9.2h-3.4v-7ZM78 22.6c-1 .8-2.4 1.4-3.8 1.4-3.2 0-5.4-2.4-5.4-5.6 0-3.2 2.2-5.4 5.4-5.4 1.4 0 2.8.4 3.8 1.4l.6.6 3.2-3-.8-.6c-1.8-1.6-4.2-2.6-6.8-2.6-5.6 0-9.8 4.2-9.8 9.8 0 5.6 4.2 9.8 9.8 9.8 2.6 0 5-1 6.8-2.6l.8-.6-3.2-3.2-.6.6ZM98 10.8c-1.4-1.4-2.8-2-5-2-1.6 0-3.2.4-4.4 1.6V0H84v28.4h4.6V17.8c0-4.4 3-4.8 4.2-4.8 2.8 0 2.6 2.6 2.6 4v11.2h4.6v-11c0-2.6-.6-5-2-6.4Z" fill="#000"/><path d="M74 21.8a3.2 3.2 0 1 0 0-6.4 3.2 3.2 0 0 0 0 6.4ZM19.6 21.4C18 23 15.6 24 13 24c-5 0-8.6-4-8.6-9.4S8 5.2 13.2 5.2c2.4 0 4.8 1 6.6 2.8l.6.6 3-3-.6-.6c-2.6-2.6-6-4-9.6-4C5.6.8 0 6.8 0 14.6s5.6 13.8 13 13.8c3.6 0 7.2-1.4 9.6-4l.6-.6-3-3-.6.6Z" fill="#000"/></svg>