<?xml version="1.0" encoding="utf-8"?>
<!-- Generator: Adobe Illustrator 23.0.6, SVG Export Plug-In . SVG Version: 6.00 Build 0)  -->
<svg version="1.1" id="Слой_1" xmlns="http://www.w3.org/2000/svg" xmlns:xlink="http://www.w3.org/1999/xlink" x="0px" y="0px"
	 viewBox="0 0 87.9 25" style="enable-background:new 0 0 87.9 25;" xml:space="preserve">
<style type="text/css">
	.st0{fill:#17313B;}
	.st1{fill:#FF3D2E;}
</style>
<rect x="22.9" y="0" class="st0" width="4" height="25"/>
<path class="st0" d="M40.9,17c0,3.8-3.2,4.1-4.2,4.1c-2.4,0-2.8-2.2-2.8-3.6V8h-4v9.5c0,2.4,0.7,4.3,2,5.6c1.2,1.2,2.9,1.8,4.7,1.8
	c1.3,0,3.2-0.4,4.2-1.3V25h4V8h-4V17z"/>
<polygon class="st0" points="52.9,2 48.9,2 48.9,8 45.9,8 45.9,12 48.9,12 48.9,25 52.9,25 52.9,12 55.9,12 55.9,8 52.9,8 "/>
<path class="st0" d="M68.5,19.9c-0.9,0.8-2,1.2-3.3,1.2c-2.8,0-4.8-2-4.8-4.8s2-4.8,4.8-4.8c1.2,0,2.4,0.4,3.3,1.2l0.6,0.5l2.7-2.7
	l-0.7-0.6c-1.6-1.4-3.7-2.2-5.9-2.2c-5,0-8.6,3.6-8.6,8.6c0,4.9,3.7,8.7,8.6,8.7c2.3,0,4.4-0.8,6-2.3l0.7-0.6l-2.7-2.7L68.5,19.9z"
	/>
<path class="st0" d="M86.1,9.5c-1.2-1.2-2.5-1.8-4.4-1.8c-1.3,0-2.8,0.4-3.8,1.3V0h-4v25h4v-9.4c0-3.8,2.7-4.1,3.7-4.1
	c2.4,0,2.3,2.2,2.3,3.6V25h4v-9.9C87.9,12.7,87.4,10.8,86.1,9.5"/>
<path class="st1" d="M65,13.4c1.6,0,2.9,1.3,2.9,2.9c0,1.6-1.3,2.9-2.9,2.9c-1.6,0-2.9-1.3-2.9-2.9C62.2,14.7,63.4,13.4,65,13.4"/>
<path class="st0" d="M17.3,18.7c-1.5,1.6-3.6,2.4-5.8,2.4c-4.5,0-7.7-3.5-7.7-8.3C3.8,8,7,4.5,11.5,4.5c2.2,0,4.2,0.8,5.7,2.4
	l0.6,0.6l2.7-2.7l-0.6-0.6c-2.2-2.3-5.2-3.5-8.4-3.5C4.9,0.7,0,5.9,0,12.9C0,19.8,5,25,11.5,25c3.2,0,6.2-1.3,8.5-3.5l0.6-0.6
	l-2.7-2.7L17.3,18.7z"/>
</svg>
