<svg width="20" height="20" fill="none" xmlns="http://www.w3.org/2000/svg"><path fill-rule="evenodd" clip-rule="evenodd" d="M9.259 1.067a1.304 1.304 0 0 1 1.967.617v.003l1.89 5.198v.003L18.32 8.78a1.304 1.304 0 0 1 0 2.443h-.004l-5.198 1.89h-.003v.003l-1.892 5.202a1.304 1.304 0 0 1-2.444 0v-.004l-1.89-5.191v-.002h-.003l-5.204-1.895a1.304 1.304 0 0 1 0-2.443h.005l5.198-1.89.003-.002V6.89L8.78 1.687c.092-.25.26-.465.478-.617l.002-.003Zm2.582 11.751.053-.146a1.312 1.312 0 0 1 .778-.777h.002l5.197-1.89-5.197-1.89h-.002a1.313 1.313 0 0 1-.778-.778v-.003l-1.89-5.196-1.89 5.196v.003a1.314 1.314 0 0 1-.78.778h-.002l-5.196 1.889 5.199 1.89a1.313 1.313 0 0 1 .778.778v.003l1.89 5.196 1.89-5.196-.052.143Z" fill="#151931"/></svg>