<svg xmlns="http://www.w3.org/2000/svg" width="36" height="36" viewBox="0 0 36 36">
  <g fill="#151931" opacity=".8">
    <path d="M19.56 19.71c.06-.16.09-.33.09-.52 0-.24-.04-.44-.12-.6a1.03 1.03 0 0 0-.28-.38 1.6 1.6 0 0 0-.4-.23l-.44-.15-.46-.12a1.12 1.12 0 0 1-.35-.14.3.3 0 0 1-.13-.27c0-.05.01-.1.04-.14a.44.44 0 0 1 .1-.13l.14-.07a.76.76 0 0 1 .46 0l.19.1.14.11c.1.07.18.1.26.13.08.01.16 0 .23-.05a.69.69 0 0 0 .22-.22c.11-.16.16-.27.15-.36-.01-.08-.08-.18-.21-.3-.12-.1-.23-.18-.35-.24a1.05 1.05 0 0 0-.4-.13v-.43c0-.09-.01-.18-.03-.26a.31.31 0 0 0-.12-.2.52.52 0 0 0-.31-.08c-.14 0-.25.03-.31.09a.31.31 0 0 0-.12.2 1.8 1.8 0 0 0-.02.24v.45a1.4 1.4 0 0 0-.46.16 1.14 1.14 0 0 0-.56.65c-.04.14-.07.3-.07.48s.03.34.08.48a1.15 1.15 0 0 0 .49.6 3.39 3.39 0 0 0 .92.39c.2.04.36.1.48.16.13.06.2.15.2.28a.5.5 0 0 1-.08.27.41.41 0 0 1-.22.16c-.09.03-.2.05-.35.05a.73.73 0 0 1-.34-.08.92.92 0 0 1-.28-.26.78.78 0 0 0-.22-.2.39.39 0 0 0-.25-.06.5.5 0 0 0-.28.13c-.15.14-.22.26-.24.36 0 .1.05.23.15.38a1.67 1.67 0 0 0 1.03.63v.5c0 .1 0 .18.02.26.01.09.05.15.12.2.06.05.17.08.31.08.14 0 .24-.02.31-.07s.1-.12.12-.2c.02-.08.03-.17.03-.26v-.5c.18-.04.35-.1.5-.17a1.37 1.37 0 0 0 .62-.72Z"/>
    <path fill-rule="evenodd" d="M18 24.17a5.83 5.83 0 1 0 0-11.67 5.83 5.83 0 0 0 0 11.67Zm0-1.64a4.2 4.2 0 1 0 0-8.4 4.2 4.2 0 0 0 0 8.4Z" clip-rule="evenodd"/>
    <path d="M9.48 18.8a.82.82 0 1 0 0-1.63.82.82 0 0 0 0 1.63Zm18.32-.82a.82.82 0 1 1-1.63 0 .82.82 0 0 1 1.63 0Z"/>
    <path fill-rule="evenodd" d="M6.33 9A2.33 2.33 0 0 0 4 11.33v14a2.33 2.33 0 0 0 2.33 2.34h23.34A2.33 2.33 0 0 0 32 25.33v-14A2.33 2.33 0 0 0 29.67 9H6.33Zm19.04 1.63H10.63a5.48 5.48 0 0 1-5 5v5.4a5.48 5.48 0 0 1 5 5h14.74a5.48 5.48 0 0 1 5-5v-5.4a5.48 5.48 0 0 1-5-5ZM5.63 25.33v-2.65A3.85 3.85 0 0 1 9 26.03H6.33a.7.7 0 0 1-.7-.7Zm24.74-2.65A3.85 3.85 0 0 0 27 26.03h2.66a.7.7 0 0 0 .7-.7v-2.65ZM6.33 10.63H9A3.85 3.85 0 0 1 5.63 14v-2.66c0-.38.32-.7.7-.7Zm20.68 0A3.85 3.85 0 0 0 30.37 14v-2.66a.7.7 0 0 0-.7-.7H27Z" clip-rule="evenodd"/>
  </g>
</svg>
