<svg width="24" height="24" fill="none" xmlns="http://www.w3.org/2000/svg"><g opacity=".8" fill-rule="evenodd" clip-rule="evenodd" fill="#151931"><path d="M13.334 13.183c.051-.135.077-.285.077-.448 0-.205-.033-.376-.098-.511a.884.884 0 0 0-.245-.329 1.192 1.192 0 0 0-.343-.196 2.684 2.684 0 0 0-.371-.126l-.4-.105a.96.96 0 0 1-.293-.126.255.255 0 0 1-.112-.224c0-.047.009-.089.028-.126a.377.377 0 0 1 .084-.105.399.399 0 0 1 .126-.063.43.43 0 0 1 .16-.028c.094 0 .171.012.232.035.06.019.114.044.16.077.047.033.09.065.127.098a.61.61 0 0 0 .217.105c.07.014.137.002.203-.035a.588.588 0 0 0 .189-.196c.093-.13.135-.231.126-.301-.01-.075-.07-.161-.182-.259a1.758 1.758 0 0 0-.301-.21.96.96 0 0 0-.343-.112v-.364c0-.08-.007-.154-.021-.224a.269.269 0 0 0-.105-.168c-.056-.047-.145-.07-.266-.07-.122 0-.21.023-.266.07a.269.269 0 0 0-.105.168c-.01.065-.014.138-.014.217v.378a1.303 1.303 0 0 0-.392.14c-.112.06-.21.138-.294.231a.98.98 0 0 0-.182.329 1.235 1.235 0 0 0-.063.406c0 .159.02.296.063.413a.987.987 0 0 0 .168.301c.074.084.158.156.252.217.093.056.191.107.294.154.168.07.333.128.497.175.168.042.305.089.413.14.107.051.16.13.16.238a.418.418 0 0 1-.062.231.355.355 0 0 1-.182.14.917.917 0 0 1-.301.042.62.62 0 0 1-.294-.07.787.787 0 0 1-.238-.217.666.666 0 0 0-.19-.175.333.333 0 0 0-.216-.049.424.424 0 0 0-.238.112c-.126.117-.194.22-.203.308-.005.089.037.196.126.322.065.089.142.17.23.245.094.075.194.138.302.189.112.051.228.089.35.112v.427c0 .08.004.154.014.224.014.07.049.126.105.168.056.047.144.07.266.07.121 0 .21-.021.266-.063a.269.269 0 0 0 .105-.168c.014-.07.02-.145.02-.224v-.427c.16-.033.302-.082.428-.147.126-.07.233-.156.322-.259a1.02 1.02 0 0 0 .21-.357Z" fill="#151931"/><path fill-rule="evenodd" clip-rule="evenodd" d="M12 17a5 5 0 1 0 0-10 5 5 0 0 0 0 10Zm0-1.4a3.6 3.6 0 1 0 0-7.2 3.6 3.6 0 0 0 0 7.2Z" fill="#151931"/><path d="M4.7 12.4a.7.7 0 1 0 0-1.4.7.7 0 0 0 0 1.4ZM20.4 11.7a.7.7 0 1 1-1.4 0 .7.7 0 0 1 1.4 0Z" fill="#151931"/><path fill-rule="evenodd" clip-rule="evenodd" d="M2 4a2 2 0 0 0-2 2v12a2 2 0 0 0 2 2h20a2 2 0 0 0 2-2V6a2 2 0 0 0-2-2H2Zm16.317 1.4H5.683A4.701 4.701 0 0 1 1.4 9.684v4.633A4.701 4.701 0 0 1 5.683 18.6h12.634a4.701 4.701 0 0 1 4.283-4.282V9.684A4.701 4.701 0 0 1 18.317 5.4ZM1.4 18v-2.275a3.302 3.302 0 0 1 2.876 2.874H2a.6.6 0 0 1-.6-.6Zm21.2-2.275a3.302 3.302 0 0 0-2.876 2.874H22a.6.6 0 0 0 .6-.6v-2.274ZM2 5.4h2.276A3.302 3.302 0 0 1 1.4 8.276V6a.6.6 0 0 1 .6-.6Zm17.724 0A3.302 3.302 0 0 0 22.6 8.276V6a.6.6 0 0 0-.6-.6h-2.276Z" fill="#151931"/></g></svg>