<svg width="140" height="21" fill="none" xmlns="http://www.w3.org/2000/svg"><path d="M8.58 7.339s-1.16-.115-1.16.917v4.586h7.652v1.377s.023.687-.695.687H7.42v5.963h8.348s5.054-.78 5.1-5.963V7.34H8.58ZM20.635 0H5.565C.115 1.284 0 5.756 0 5.756v15.113h5.798V7.109c0-1.17 1.158-1.375 1.158-1.375h13.681V0Zm19.897 16.544c-.397.265-.691.46-.9.584-.742.46-1.451.815-2.108 1.098-.95.39-1.799.585-2.559.585-2.61 0-4.772-.797-6.519-2.41-1.747-1.611-2.61-3.63-2.61-6.073 0-2.355.779-4.392 2.352-6.128 1.573-1.735 3.475-2.586 5.723-2.586.934 0 1.936.159 2.973.497 1.349.424 2.438 1.062 3.302 1.894l-1.504 1.664c-.64-.619-1.469-1.08-2.438-1.363-.725-.213-1.52-.318-2.403-.318-1.573 0-2.904.636-3.959 1.894-1.054 1.275-1.59 2.78-1.59 4.551 0 1.754.604 3.188 1.815 4.34 1.21 1.15 2.748 1.735 4.616 1.735.778 0 1.574-.248 2.386-.725.675-.514 1.02-.762 1.037-.78v-3.63H33.1l.725-2.267h6.71v7.438Zm15.25-4.428c0 1.753-.623 3.276-1.868 4.551-1.245 1.275-2.783 1.931-4.616 1.931-1.694 0-3.18-.638-4.46-1.895-1.28-1.257-1.903-2.78-1.903-4.57 0-1.77.606-3.294 1.816-4.604 1.21-1.311 2.697-1.948 4.443-1.948 1.937 0 3.51.62 4.737 1.877 1.228 1.222 1.85 2.78 1.85 4.658Zm-2.37.036c0-1.187-.397-2.197-1.192-3.011-.795-.833-1.781-1.24-2.957-1.24-1.106 0-2.04.425-2.818 1.275-.778.85-1.159 1.824-1.159 2.922 0 1.152.398 2.126 1.176 2.94.778.815 1.747 1.24 2.922 1.24 1.09 0 2.023-.408 2.819-1.223.812-.814 1.21-1.788 1.21-2.903Zm17.41-.036c0 1.753-.621 3.276-1.866 4.551-1.246 1.275-2.784 1.931-4.616 1.931-1.695 0-3.181-.638-4.461-1.895-1.28-1.257-1.902-2.78-1.902-4.57 0-1.77.606-3.294 1.815-4.604 1.21-1.311 2.697-1.948 4.443-1.948 1.937 0 3.51.62 4.737 1.877 1.229 1.222 1.85 2.78 1.85 4.658Zm-2.368.036c0-1.187-.398-2.197-1.193-3.011-.795-.833-1.78-1.24-2.956-1.24-1.106 0-2.04.425-2.819 1.275-.778.85-1.158 1.824-1.158 2.922 0 1.152.397 2.126 1.176 2.94.777.815 1.746 1.24 2.922 1.24 1.09 0 2.022-.408 2.818-1.223.812-.814 1.21-1.788 1.21-2.903Zm16.287 6.091-2.178.337v-2.107l-.467.53a5.723 5.723 0 0 1-1.383.957 5.589 5.589 0 0 1-2.368.514c-1.695 0-3.148-.62-4.323-1.878-1.176-1.258-1.763-2.745-1.763-4.48 0-1.789.587-3.33 1.746-4.605 1.159-1.276 2.576-1.913 4.27-1.913.969 0 1.816.159 2.524.478.502.23.934.531 1.297.904.121.16.242.336.364.495V1.95l2.315-.337-.034 16.63Zm-2.04-5.968c0-1.24-.415-2.285-1.262-3.134-.847-.869-1.799-1.293-2.887-1.293-1.21 0-2.178.407-2.921 1.222-.693.778-1.056 1.735-1.056 2.851 0 1.257.363 2.302 1.09 3.117.725.814 1.642 1.222 2.766 1.222 1.106 0 2.075-.372 2.94-1.133.881-.78 1.331-1.736 1.331-2.852Zm14.264-8.022h-6.484v4.41h5.03v2.266h-5.03v7.297l-2.524.372V1.968h8.506l.502 2.285Zm5.204-1.294-1.556 1.966-1.487-1.966 1.573-1.947 1.47 1.947Zm-.467 15.284-2.317.32V6.252l2.317-.353v12.344Zm10.46-12.467-1.089 2.514a3.059 3.059 0 0 0-.432-.035c-.225 0-.45.018-.675.053a2.66 2.66 0 0 0-.726.248c-.484.213-.899.673-1.262 1.364a5.521 5.521 0 0 0-.606 2.533v5.773l-2.315.372V6.254l2.143-.39v2.568c.276-.443.571-.885.847-1.346a3.422 3.422 0 0 1 1.383-.992c.276-.106.778-.195 1.538-.266.727-.052 1.142-.088 1.194-.052Zm17.254 12.467-2.317.337v-8.448c0-.78-.173-1.346-.519-1.7-.345-.355-.864-.532-1.539-.532-.812 0-1.435.337-1.849 1.01-.278.46-.433.956-.433 1.452v7.863l-2.316.426v-8.466c0-.743-.173-1.31-.502-1.7-.346-.39-.795-.585-1.383-.585h-.225c-.813 0-1.401.337-1.764 1.028-.276.514-.414 1.168-.414 1.965v7.332l-2.403.426V6.254l2.16-.372v1.576c.243-.373.484-.674.71-.885.622-.585 1.348-.869 2.16-.869.917 0 1.59.142 2.057.443.398.249.779.744 1.159 1.452.795-1.257 1.919-1.895 3.407-1.895 1.417 0 2.472.443 3.163 1.347.571.743.848 1.841.848 3.276v7.916ZM140 14.507c0 1.133-.398 2.072-1.193 2.798-.795.744-1.798 1.098-3.009 1.098-.916 0-1.729-.212-2.472-.638-.743-.424-1.296-.903-1.66-1.47l1.626-1.451c.12.177.225.318.328.424.606.62 1.332.94 2.178.94.589 0 1.056-.16 1.384-.461.346-.301.502-.726.502-1.276 0-.62-.398-1.044-1.193-1.275-1.574-.478-2.422-.743-2.542-.797-.726-.372-1.245-.761-1.574-1.204-.363-.514-.553-1.187-.553-2.054 0-1.064.398-1.948 1.176-2.657.778-.708 1.711-1.045 2.783-1.045.813 0 1.574.177 2.265.55.692.371 1.193.76 1.487 1.222l-1.383 1.504a5.13 5.13 0 0 0-.674-.566c-.554-.39-1.089-.585-1.59-.585-.485 0-.883.107-1.194.318-.363.267-.553.656-.553 1.17 0 .496.173.868.536 1.098.312.195.968.408 2.006.637 1.036.249 1.832.674 2.403 1.276.64.637.916 1.434.916 2.444Z" fill="#000"/></svg>