<svg width="20" height="20" fill="none" xmlns="http://www.w3.org/2000/svg"><g clip-path="url(#a)" fill="#151931"><path d="M7.997 16.006c1.376 0 2.672-.35 3.805-.964l4.296 4.296a2.27 2.27 0 0 0 1.617.67 2.29 2.29 0 0 0 1.617-3.903l-4.296-4.296A7.953 7.953 0 0 0 16 8.003C16 3.59 12.41 0 7.997 0S-.006 3.59-.006 8.003s3.59 8.003 8.003 8.003ZM4.28 13.765v-1.856c0-1.208.983-2.19 2.191-2.19h3.049c1.208 0 2.191.982 2.191 2.19v1.856a6.816 6.816 0 0 1-3.715 1.098 6.816 6.816 0 0 1-3.716-1.098Zm14.242 3.148a1.144 1.144 0 0 1-1.617 1.617l-4.12-4.12a8.075 8.075 0 0 0 1.617-1.617l4.12 4.12ZM7.997 1.143a6.868 6.868 0 0 1 6.86 6.86 6.837 6.837 0 0 1-2.001 4.837v-.93A3.338 3.338 0 0 0 9.52 8.574H6.472a3.338 3.338 0 0 0-3.334 3.334v.931a6.837 6.837 0 0 1-2.001-4.837 6.868 6.868 0 0 1 6.86-6.86Z"/><path d="M7.996 8.003a2.862 2.862 0 0 0 2.859-2.858 2.862 2.862 0 0 0-2.859-2.858 2.861 2.861 0 0 0-2.858 2.858 2.861 2.861 0 0 0 2.858 2.858Zm0-4.573c.946 0 1.715.77 1.715 1.715 0 .946-.769 1.715-1.715 1.715-.945 0-1.715-.77-1.715-1.715 0-.946.77-1.715 1.715-1.715Z"/></g><defs><clipPath id="a"><path fill="#fff" d="M0 0h20v20H0z"/></clipPath></defs></svg>