<svg width="20" height="20" fill="none" xmlns="http://www.w3.org/2000/svg"><path d="M.86 9.546c.42-.526 1.555-1.87 3.131-3.09 2.017-1.512 4.013-2.29 5.946-2.29 1.934 0 3.93.778 5.926 2.312 1.576 1.219 2.731 2.564 3.13 3.089a.79.79 0 0 1 0 .987c-.42.526-1.554 1.87-3.13 3.09-2.017 1.533-4.013 2.31-5.926 2.31-1.912 0-3.929-.777-5.925-2.31-1.576-1.22-2.731-2.564-3.13-3.09A.793.793 0 0 1 .86 9.546Zm9.077 5.547c4.119 0 7.67-4.14 8.384-5.043-.735-.903-4.265-5.043-8.384-5.043-4.118 0-7.669 4.14-8.383 5.043.714.903 4.265 5.043 8.383 5.043Z" fill="#151931"/><path fill-rule="evenodd" clip-rule="evenodd" d="M.86 9.546a.792.792 0 0 0 .021 1.009c.4.525 1.555 1.87 3.131 3.088 1.996 1.534 4.013 2.311 5.925 2.311 1.913 0 3.909-.777 5.926-2.31a19.327 19.327 0 0 0 3.13-3.09.79.79 0 0 0 0-.987c-.399-.525-1.554-1.87-3.13-3.089-1.996-1.534-3.992-2.311-5.926-2.311-1.933 0-3.929.777-5.946 2.29a19.339 19.339 0 0 0-3.13 3.089Zm-.28.166.15-.27a19.493 19.493 0 0 1 3.16-3.117l.001-.001C5.928 4.796 7.958 4 9.937 4c1.98 0 4.01.796 6.027 2.346 1.589 1.228 2.755 2.584 3.162 3.119a.956.956 0 0 1-.001 1.192l-.001.002a19.49 19.49 0 0 1-3.16 3.116c-2.037 1.55-4.068 2.346-6.027 2.346-1.958 0-4.01-.796-6.026-2.346C2.325 12.55 1.16 11.196.75 10.66a.958.958 0 0 1-.171-.947Zm14.724 3.066c-1.48 1.139-3.361 2.148-5.367 2.148-2.005 0-3.886-1.01-5.366-2.148a17.628 17.628 0 0 1-2.804-2.728 17.621 17.621 0 0 1 2.804-2.728c1.48-1.139 3.361-2.148 5.366-2.148 2.006 0 3.882 1.01 5.36 2.148a18.25 18.25 0 0 1 2.81 2.73 17.62 17.62 0 0 1-2.803 2.726Zm3.017-2.728c-.735-.903-4.265-5.043-8.384-5.043-4.118 0-7.669 4.14-8.383 5.043.714.903 4.265 5.043 8.383 5.043 4.119 0 7.67-4.14 8.384-5.043Z" fill="#151931"/><path d="M9.937 6.52a3.524 3.524 0 0 1 3.53 3.53 3.524 3.524 0 0 1-3.53 3.53 3.524 3.524 0 0 1-3.53-3.53 3.524 3.524 0 0 1 3.53-3.53Zm0 6.22a2.695 2.695 0 0 0 2.69-2.69c0-1.47-1.198-2.69-2.69-2.69a2.681 2.681 0 0 0-2.69 2.69 2.681 2.681 0 0 0 2.69 2.69Z" fill="#151931"/><path fill-rule="evenodd" clip-rule="evenodd" d="M13.634 10.05a3.69 3.69 0 0 0-3.697-3.697 3.69 3.69 0 0 0-3.696 3.697 3.69 3.69 0 0 0 3.696 3.696 3.69 3.69 0 0 0 3.697-3.696Zm-1.174 0a2.528 2.528 0 0 1-2.523 2.523 2.514 2.514 0 0 1-2.522-2.523c0-1.4 1.123-2.523 2.522-2.523 1.4 0 2.523 1.143 2.523 2.523Zm1.007 0a3.524 3.524 0 0 0-3.53-3.53 3.524 3.524 0 0 0-3.53 3.53 3.524 3.524 0 0 0 3.53 3.53 3.524 3.524 0 0 0 3.53-3.53Zm-.84 0c0 1.47-1.198 2.69-2.69 2.69a2.681 2.681 0 0 1-2.69-2.69 2.681 2.681 0 0 1 2.69-2.69 2.695 2.695 0 0 1 2.69 2.69Z" fill="#151931"/></svg>