<svg width="36" height="36" fill="none" xmlns="http://www.w3.org/2000/svg"><g clip-path="url(#a)" opacity=".8"><path fill-rule="evenodd" clip-rule="evenodd" d="M18.52 4.16a.87.87 0 0 0-1.04 0l-11.51 8.4a2.25 2.25 0 0 0-.8 1.64v15.78A2.02 2.02 0 0 0 7.18 32h21.64a2.02 2.02 0 0 0 2.01-2.02V14.2a2.25 2.25 0 0 0-.8-1.64l-11.51-8.4ZM6.92 14.24a.5.5 0 0 1 .13-.3L18 5.95l10.95 8a.5.5 0 0 1 .13.29v15.74a.27.27 0 0 1-.26.27H7.18a.27.27 0 0 1-.26-.27V14.24Zm11.57.78L18 13.69l-.5 1.33a3.5 3.5 0 0 1-3.86 2.23l-1.4-.24.91 1.1a3.5 3.5 0 0 1 0 4.46l-.9 1.08 1.4-.23a3.5 3.5 0 0 1 3.86 2.23l.49 1.32.5-1.32a3.5 3.5 0 0 1 3.86-2.23l1.39.23-.9-1.08a3.5 3.5 0 0 1 0-4.47l.9-1.09-1.4.24a3.5 3.5 0 0 1-3.86-2.23Zm1.15-1.94a1.75 1.75 0 0 0-3.28 0l-.5 1.33c-.29.79-1.1 1.25-1.93 1.11l-1.39-.23a1.75 1.75 0 0 0-1.64 2.84l.9 1.09c.54.64.54 1.58 0 2.23l-.9 1.09a1.75 1.75 0 0 0 1.64 2.84l1.4-.24c.82-.14 1.63.33 1.93 1.12l.49 1.32a1.75 1.75 0 0 0 3.28 0l.5-1.32c.28-.79 1.1-1.26 1.93-1.12l1.39.24c1.6.27 2.67-1.6 1.64-2.84l-.9-1.1a1.75 1.75 0 0 1 0-2.22l.9-1.1a1.75 1.75 0 0 0-1.64-2.83l-1.4.23a1.75 1.75 0 0 1-1.93-1.11l-.49-1.33ZM18 19.17a1.17 1.17 0 1 0 0 2.33 1.17 1.17 0 0 0 0-2.33Zm-2.92 1.16a2.92 2.92 0 1 1 5.84 0 2.92 2.92 0 0 1-5.84 0Z" fill="#151931"/></g><defs><clipPath id="a"><path fill="#fff" transform="translate(4 4)" d="M0 0h28v28H0z"/></clipPath></defs></svg>
