<svg width="36" height="36" viewBox="0 0 36 36" fill="none" xmlns="http://www.w3.org/2000/svg">
<g opacity="0.8">
<g clip-path="url(#clip0_1260_692)">
<path fill-rule="evenodd" clip-rule="evenodd" d="M18.5154 4.16461C18.2082 3.94057 17.7915 3.94057 17.4843 4.16461L5.96577 12.5646C5.9383 12.5846 5.91201 12.6063 5.88706 12.6294C5.45874 13.0257 5.20093 13.5728 5.16791 14.1554C5.16697 14.1719 5.1665 14.1884 5.1665 14.2049V29.9806L5.16651 29.9833C5.16814 30.5167 5.38078 31.0279 5.758 31.4051C6.13522 31.7823 6.64637 31.9949 7.17983 31.9966L7.1825 31.9966H28.8172L28.8198 31.9966C29.3533 31.9949 29.8645 31.7823 30.2417 31.4051C30.6189 31.0279 30.8315 30.5167 30.8332 29.9833L30.8332 29.9806V14.2049C30.8332 14.1884 30.8327 14.1719 30.8318 14.1554C30.7987 13.5728 30.5409 13.0257 30.1126 12.6294C30.0877 12.6063 30.0614 12.5846 30.0339 12.5646L18.5154 4.16461ZM6.9165 14.2358C6.92687 14.1255 6.97334 14.022 7.04838 13.941L17.9998 5.95454L28.9513 13.941C29.0263 14.022 29.0728 14.1256 29.0832 14.2358V29.9788C29.0827 30.0497 29.0544 30.1175 29.0042 30.1677C28.9541 30.2178 28.8863 30.2461 28.8154 30.2466H7.18425C7.11339 30.2461 7.04555 30.2178 6.99543 30.1677C6.9453 30.1175 6.91695 30.0497 6.9165 29.9788V14.2358ZM18.4915 15.0173L17.9998 13.6934L17.5082 15.0173C16.9228 16.5934 15.2995 17.5306 13.6418 17.2495L12.2495 17.0133L13.1502 18.1011C14.2225 19.396 14.2225 21.2705 13.1502 22.5655L12.2495 23.6533L13.6418 23.4171C15.2995 23.1359 16.9228 24.0732 17.5082 25.6493L17.9998 26.9732L18.4915 25.6493C19.0768 24.0732 20.7002 23.1359 22.3578 23.4171L23.7502 23.6533L22.8495 22.5655C21.7772 21.2705 21.7772 19.3961 22.8495 18.1011L23.7502 17.0133L22.3578 17.2495C20.7002 17.5306 19.0768 16.5934 18.4915 15.0173ZM19.6404 13.0841C19.0755 11.5631 16.9242 11.5631 16.3593 13.0841L15.8677 14.408C15.575 15.1961 14.7633 15.6647 13.9345 15.5241L12.5421 15.288C10.9425 15.0166 9.8668 16.8798 10.9016 18.1294L11.8023 19.2172C12.3385 19.8647 12.3385 20.8019 11.8023 21.4494L10.9016 22.5371C9.8668 23.7868 10.9425 25.6499 12.5421 25.3786L13.9345 25.1425C14.7633 25.0019 15.575 25.4705 15.8677 26.2586L16.3593 27.5825C16.9242 29.1035 19.0755 29.1035 19.6404 27.5825L20.132 26.2586C20.4247 25.4705 21.2364 25.0019 22.0652 25.1425L23.4575 25.3786C25.0572 25.6499 26.1329 23.7868 25.0981 22.5371L24.1974 21.4494C23.6612 20.8019 23.6612 19.8647 24.1974 19.2172L25.0981 18.1294C26.1329 16.8798 25.0572 15.0166 23.4576 15.288L22.0652 15.5241C21.2364 15.6647 20.4247 15.1961 20.132 14.408L19.6404 13.0841ZM17.9998 19.1667C17.3555 19.1667 16.8332 19.689 16.8332 20.3333C16.8332 20.9777 17.3555 21.5 17.9998 21.5C18.6442 21.5 19.1665 20.9777 19.1665 20.3333C19.1665 19.689 18.6442 19.1667 17.9998 19.1667ZM15.0832 20.3333C15.0832 18.7225 16.389 17.4167 17.9998 17.4167C19.6107 17.4167 20.9165 18.7225 20.9165 20.3333C20.9165 21.9442 19.6107 23.25 17.9998 23.25C16.389 23.25 15.0832 21.9442 15.0832 20.3333Z" fill="#151931"/>
</g>
</g>
<defs>
<clipPath id="clip0_1260_692">
<rect width="28" height="28" fill="white" transform="translate(4 4)"/>
</clipPath>
</defs>
</svg>
