<svg xmlns="http://www.w3.org/2000/svg" width="60" height="60">
  <circle cx="30" cy="30" r="30" fill="#151931"/>
  <path fill="#FFF" fill-rule="evenodd" d="M20,18.7133339 L20,26.0154172 C20,26.7987505 20.7486111,27.3654172 21.5027778,27.1536116 C22.2569444,26.9418061 23.0055556,27.5084727 23.0055556,28.2918061 L23.0055556,28.536945 C23.0055556,29.0668061 22.6527778,29.5320839 22.1430556,29.6751394 L20.8625,30.0355561 C20.3520833,30.1793061 20,30.6438894 20,31.1737505 L20,31.4188894 C20,32.2029172 20.7486111,32.7695839 21.5027778,32.5577783 L26.5527778,31.136945 C27.3069444,30.924445 28.0555556,31.4918061 28.0555556,32.2751394 L28.0555556,32.5202783 C28.0555556,33.0501394 27.7027778,33.5154172 27.1930556,33.6584727 L20.8625,35.4390283 C20.3527778,35.5827783 20,36.0480561 20,36.5779172 L20,36.8230561 C20,37.6063894 20.7486111,38.1730561 21.5027778,37.9612505 L31.6027778,35.1202783 C32.3569444,34.9084727 33.1055556,35.4751394 33.1055556,36.2584727 L33.1055556,36.5043061 C33.1055556,37.0334727 32.7534722,37.4987505 32.2430556,37.6425005 L20.8625,40.843195 C20.3527778,40.9862505 20,41.4515283 20,41.9813894 L20,42.2265283 C20,43.0098616 20.7486111,43.5772227 21.5027778,43.3647227 L36.6527778,39.1036116 C37.4069444,38.8918061 38.1555556,39.4584727 38.1555556,40.2418061 L38.1555556,40.486945 C38.1555556,41.0175005 37.8034722,41.4820839 37.2930556,41.6258339 L20.8625,46.2466672 C20.3527778,46.3904172 20,46.8550005 20,47.3855561 C20,48.2911116 20.8666667,48.9459727 21.7375,48.6987505 L39.0715278,43.7841672 C39.9506944,43.5355561 40.5569444,42.7327783 40.5569444,41.8195839 L40.5569444,14.043195 C40.5569444,12.6883339 39.2611111,11.7091672 37.9576389,12.0786116 L21.4854167,16.7480561 C20.6069444,16.9973616 20,17.8001394 20,18.7133339"/>
</svg>