<svg xmlns="http://www.w3.org/2000/svg" width="150" height="28">
  <path fill="currentColor" fill-rule="evenodd" d="M14.048.052L1.024 3.637A1.38 1.38 0 0 0 0 4.961V12.2c0 .543.53.936 1.064.789.534-.147 1.064.246 1.064.789v.17c0 .367-.25.689-.61.789l-.907.25c-.361.098-.611.42-.611.788v.17c0 .543.53.936 1.064.789l3.576-.985c.534-.147 1.064.246 1.064.79v.17c0 .366-.25.689-.61.788L.61 18.731c-.361.1-.611.422-.611.79v.169c0 .543.53.936 1.064.789l7.152-1.969c.534-.147 1.064.246 1.064.789v.17c0 .367-.25.69-.61.789L.61 22.476c-.36.1-.61.422-.61.79v.169c0 .543.53.936 1.064.789l10.728-2.953c.535-.147 1.064.245 1.064.789v.17c0 .367-.25.69-.61.788L.61 26.221c-.361.1-.611.422-.611.789v.17c0 .543.53.936 1.064.789l13.745-3.783a1.38 1.38 0 0 0 1.024-1.324V1.376c0-.911-.889-1.57-1.785-1.324zM141.816 14.51c.291-1.113 1.03-1.798 2.085-1.798 1.098 0 1.883.77 1.928 1.798h-4.013zm8.116 1.027c0-3.318-2.063-5.994-6.031-5.994-3.812 0-6.3 2.634-6.3 6.23 0 3.853 2.51 6.294 6.434 6.294 3.027 0 5.046-1.777 5.583-3.597l-3.273-1.156c-.336.878-1.166 1.435-2.153 1.435-1.21 0-2.13-.728-2.399-2.141h8.027c.09-.278.112-.706.112-1.07zm-16.862-1.262c-1.39-.578-1.95-.686-1.95-1.242 0-.32.246-.556.896-.556a1.82 1.82 0 0 1 1.772 1.284l3.004-1.37c-.38-1.67-1.906-2.848-4.91-2.848-3.117 0-4.642 1.692-4.642 3.81 0 1.756 1.435 3.062 3.812 3.94 1.592.642 1.906.835 1.906 1.242 0 .428-.381.599-1.031.599-.942.021-1.593-.514-1.974-1.284l-3.094 1.348c.605 1.841 2.758 2.869 5.068 2.869 3.408 0 4.933-1.991 4.933-3.832 0-1.905-1.435-3.04-3.79-3.96zm-11.301 1.477c0 1.434-.494 2.74-1.996 2.74s-1.995-1.306-1.995-2.74V9.843h-4.171v6.808c0 3.553 2.915 5.416 6.189 5.416 3.273 0 6.143-1.863 6.143-5.416V9.843h-4.17v5.909zm-15.854 2.74c-1.502 0-2.6-1.113-2.6-2.697 0-1.628 1.098-2.677 2.6-2.677 1.48 0 2.579 1.05 2.579 2.677 0 1.584-1.099 2.697-2.579 2.697zm0-8.949c-4.036 0-6.771 2.655-6.771 6.273s2.735 6.25 6.771 6.25 6.75-2.632 6.75-6.25-2.714-6.273-6.75-6.273zm-12.467 0c-1.704 0-2.848.493-3.588 1.65h-.09v-4.84H85.6v15.414h4.17v-5.673c0-1.905.718-2.976 2.153-2.976 1.547 0 2.108 1.22 2.108 2.74v5.909h4.17v-7.45c0-2.89-1.838-4.774-4.753-4.774zM82.146 6.74h-4.17v3.104H76.07v3.125h1.906v8.799h4.17v-8.799h2.377V9.843h-2.377V6.74zM70.464 9.543c-1.705 0-2.848.493-3.588 1.65h-.09v-4.84h-4.17v15.414h4.17v-5.673c0-1.905.718-2.976 2.153-2.976 1.547 0 2.107 1.22 2.107 2.74v5.909h4.171v-7.45c0-2.89-1.838-4.774-4.753-4.774zm-16.078 8.37c-1.413 0-2.377-.984-2.377-2.44 0-1.391.964-2.355 2.377-2.355 1.39 0 2.354.964 2.354 2.355 0 1.456-.963 2.44-2.354 2.44zm2.354-6.635h-.067C56 10.208 54.7 9.543 53.355 9.543c-3.274 0-5.517 2.42-5.517 5.93 0 3.575 2.288 5.994 5.651 5.994 1.39 0 2.579-.663 3.251-1.734h.068v.257c0 2.184-.942 3.147-2.758 3.147-1.211 0-1.839-.6-2.355-1.306l-2.892 1.841c.942 1.541 2.758 2.59 5.471 2.59 3.094 0 6.637-1.67 6.637-6.871V9.865h-4.17v1.413zM42.502 21.767h4.17V10.7h-4.17v11.067zm2.085-15.713c-1.188 0-2.153.942-2.153 2.055 0 1.135.965 2.055 2.153 2.055 1.188 0 2.153-.92 2.153-2.055 0-1.113-.965-2.055-2.153-2.055zm-9.373.3h-4.417v15.413H41.56v-3.382h-6.346V6.354z"/>
</svg>