<svg xmlns="http://www.w3.org/2000/svg" xmlns:xlink="http://www.w3.org/1999/xlink" width="150" height="38">
  <g id="a">
    <path fill="currentColor" d="M45.3 24.86v3.58H35.05V12.78h4.04v12.08zM47.35 28.44h3.8v-10.9h-3.8v10.9zm4.12-14.25a2.2 2.2 0 0 1-2.22 2.21 2.2 2.2 0 0 1-2.21-2.21 2.25 2.25 0 0 1 2.21-2.24c1.24 0 2.22 1 2.22 2.24zm5.7 8.8c0 1.53.8 2.41 2.04 2.41 1.22 0 2.01-.9 2.01-2.22v-.4c0-1.31-.8-2.21-2-2.21-1.24 0-2.06.88-2.06 2.43m4.27-4.75v-.72h3.6v11.18c0 3.16-2.22 5.27-5.7 5.27-3.65 0-5.43-1.76-5.8-4.37l3.8-.13c.06.78.69 1.28 1.86 1.28 1.24 0 2.03-.57 2.03-1.78v-1.07c-.56.42-1.48.76-2.66.76-3.11 0-5.25-2.33-5.25-5.67 0-3.37 2.14-5.7 5.25-5.7a4.3 4.3 0 0 1 2.87.95m9.8-.1c.43-.4 1.16-.85 2.46-.85 2.53 0 4.25 1.53 4.25 4.34v6.8h-3.8v-5.88c0-1.13-.51-1.7-1.43-1.7-.9 0-1.49.6-1.49 1.72v5.86h-3.8V12.18h3.8v5.96zm13.9 5.7c0 .97.74 1.4 1.47 1.4.42 0 .67-.04.9-.08v3.37c-.5.06-.92.13-1.84.13-2.6 0-4.35-1.2-4.33-3.81l.02-4.06h-1.97v-3.27h2l.01-3.51h3.81l-.02 3.51h2.32v3.27h-2.34l-.02 3.05zm8.23-5.7c.44-.4 1.17-.85 2.47-.85 2.53 0 4.25 1.53 4.25 4.34v6.8h-3.81v-5.88c0-1.13-.5-1.7-1.42-1.7-.9 0-1.49.6-1.49 1.72v5.86h-3.8V12.18h3.8v5.96zM105.98 23c0 1.5.81 2.4 2.05 2.4 1.28 0 2.07-.9 2.07-2.4 0-1.53-.8-2.43-2.07-2.43-1.24 0-2.05.9-2.05 2.43m7.97 0c0 3.4-2.47 5.67-5.92 5.67-3.43 0-5.9-2.26-5.9-5.67 0-3.42 2.47-5.7 5.9-5.7 3.45 0 5.92 2.28 5.92 5.7m8.64 5.44v-.76c-.44.55-1.21.99-2.55.99-2.55 0-4.06-1.43-4.06-4.15v-6.98h3.8v6.05c0 1.07.34 1.53 1.26 1.53.86 0 1.34-.48 1.34-1.49v-6.09h3.81v10.9h-3.6zm14.86-7.56l-3.81.21c.02-.6-.21-1.1-.86-1.1-.5 0-.8.22-.8.64 0 .57.72.71 1.89 1.03 2.1.56 3.66 1.23 3.66 3.22 0 2.26-1.63 3.79-4.69 3.79-2.99 0-4.62-1.2-4.83-3.58l3.83-.21c-.02.6.2 1.1 1 1.1.59 0 .86-.26.86-.7 0-.4-.23-.6-1.57-.97-2.42-.6-3.95-1.15-3.95-3.43 0-2.22 1.76-3.58 4.6-3.58 2.97 0 4.5 1.47 4.67 3.58m5.6.9h3.08c-.04-1.02-.52-1.67-1.53-1.67-.94 0-1.48.65-1.55 1.67zm0 2.24c0 .99.47 1.72 1.6 1.72.75 0 1.2-.32 1.4-.84l3.83.19c-.36 2.22-2.56 3.58-5.13 3.58-3.45 0-5.75-2.18-5.75-5.67 0-3.5 2.3-5.7 5.65-5.7 3.15 0 5.33 1.97 5.33 5.49v1.23h-6.93zM0 7.41v7.3c0 .78.75 1.35 1.5 1.14.76-.21 1.5.35 1.5 1.14v.24c0 .53-.35 1-.86 1.14l-1.28.36c-.5.14-.86.6-.86 1.14v.24c0 .79.75 1.35 1.5 1.14l5.05-1.42c.76-.21 1.5.36 1.5 1.14v.24c0 .53-.35 1-.86 1.14L.86 24.14c-.5.15-.86.61-.86 1.14v.25c0 .78.75 1.35 1.5 1.14l10.1-2.85c.76-.2 1.5.36 1.5 1.14v.25c0 .53-.35 1-.86 1.14L.86 29.54c-.5.14-.86.6-.86 1.14v.24c0 .78.75 1.35 1.5 1.14l15.15-4.26c.76-.21 1.5.35 1.5 1.14v.24c0 .53-.35 1-.86 1.14L.86 34.94c-.5.14-.86.6-.86 1.14 0 .9.87 1.56 1.74 1.31l17.33-4.91a2.04 2.04 0 0 0 1.49-1.97V2.74c0-1.36-1.3-2.34-2.6-1.97L1.49 5.44A2.04 2.04 0 0 0 0 7.41"/>
  </g>
</svg>
