<svg width="92" height="46" fill="none" xmlns="http://www.w3.org/2000/svg"><path fill-rule="evenodd" clip-rule="evenodd" d="M52.03 22.039h-1.115l-3.018 6.904h1.235l.705-1.655h3.242l.696 1.655h1.285l-3.03-6.904Zm.606 4.18h-2.36l1.166-2.741 1.194 2.741ZM89.075 23.204h2.173v-1.116h-5.561v1.116h2.173v5.74h1.215v-5.74ZM81.064 23.888a.728.728 0 0 1 .291-.582c.238-.173.528-.257.822-.24.318.002.633.063.929.181.33.135.643.311.93.525l.646-.912a4.041 4.041 0 0 0-1.13-.64 3.928 3.928 0 0 0-1.358-.222 2.968 2.968 0 0 0-.938.142 2.13 2.13 0 0 0-.737.408 1.888 1.888 0 0 0-.655 1.45c-.009.28.043.557.15.814.1.226.252.426.444.583.216.168.458.3.716.39.32.117.647.214.98.291.32.079.582.155.78.225.167.055.325.133.472.23a.667.667 0 0 1 .236.268.83.83 0 0 1 .064.332.742.742 0 0 1-.33.638c-.26.167-.564.25-.873.236-.4.008-.798-.07-1.165-.23a4.21 4.21 0 0 1-1.011-.682l-.726.874a4.145 4.145 0 0 0 2.861 1.095c.335.004.669-.042.99-.137.281-.081.543-.218.77-.402.213-.175.384-.396.5-.646a2.04 2.04 0 0 0 .181-.874 1.828 1.828 0 0 0-.142-.749 1.612 1.612 0 0 0-.417-.56 2.392 2.392 0 0 0-.693-.407 7.73 7.73 0 0 0-.956-.292c-.33-.078-.597-.154-.81-.224a2.039 2.039 0 0 1-.5-.236.72.72 0 0 1-.251-.274.83.83 0 0 1-.07-.373ZM78.564 22.088H73.49v6.855h5.125v-1.087h-3.927v-1.832h3.437v-1.087h-3.437v-1.762h3.877v-1.087ZM72.158 22.088h-5.092v6.855h1.194v-2.79h3.458v-1.087H68.26v-1.891h3.898v-1.087Z" fill="#282728"/><path d="M65.224 22.088H64.03v6.858h1.194v-6.858Z" fill="#282728"/><path fill-rule="evenodd" clip-rule="evenodd" d="m61.003 26.828-3.665-4.74h-1.116v6.855h1.195v-4.877l3.773 4.877h1.008v-6.855h-1.195v4.74ZM45.525 24.026v4.917h1.197v-6.855h-1.284l-2.086 3.24-2.086-3.24H39.98v6.855h1.195v-4.897l2.147 3.213h.038l2.164-3.233Z" fill="#282728"/><path fill-rule="evenodd" clip-rule="evenodd" d="M35.556 22.088h-5.075v6.855h5.122v-1.087h-3.927v-1.832h3.437v-1.087h-3.437v-1.762h3.88v-1.087ZM27.521 26.053v2.89h1.198v-6.855H27.52v2.85h-3.289v-2.85h-1.194v6.855h1.194v-2.89h3.29ZM19.589 23.204h2.173v-1.116H16.2v1.116h2.173v5.74h1.215v-5.74Z" fill="#000"/><path fill-rule="evenodd" clip-rule="evenodd" d="M45.537 30.88v13.984H6.864v-3.892h34.108V30.88h-1.148v8.947H6.864V6.179H39.82v13.984h1.148V6.179h4.565v13.984h1.148V5.03h-5.71V0H0v40.972h5.713V46h40.972V30.88h-1.148ZM5.713 39.821H1.148V1.151H39.82v3.88H5.713v34.79Z" fill="#000"/></svg>