<svg width="20" height="20" fill="none" xmlns="http://www.w3.org/2000/svg"><path d="M18.83.887a.717.717 0 0 0-.672 0c-.045.045-6.051 3.451-9.682 3.451H2.85A2.017 2.017 0 0 0 .834 6.355v4.393a2.017 2.017 0 0 0 1.456 1.95v6.432a.695.695 0 0 0 .673.673h2.04a3.138 3.138 0 0 0 3.137-3.138v-3.9h.336c3.832 0 9.614 3.407 9.682 3.452.101.06.218.092.336.09a.582.582 0 0 0 .336-.09.628.628 0 0 0 .336-.583V1.47a.625.625 0 0 0-.336-.583ZM2.178 6.355a.672.672 0 0 1 .673-.672h4.953v5.737H2.85a.65.65 0 0 1-.673-.672V6.355Zm2.824 12.103H3.635v-2.04h3.16v.247a1.793 1.793 0 0 1-1.793 1.793Zm1.793-3.384h-3.16v-2.309h3.16v2.308Zm11.027-.583c-1.77-.942-5.558-2.802-8.674-3.048V5.66c3.003-.268 6.88-2.106 8.674-3.07v11.9Z" fill="#151931"/></svg>