<svg width="129" height="63" viewBox="0 0 129 63" fill="none" xmlns="http://www.w3.org/2000/svg">
<path d="M125.374 0.013916H3.4004C1.57203 0.013916 0.0898438 1.4961 0.0898438 3.32448V59.174C0.0898438 61.0024 1.57203 62.4846 3.4004 62.4846H125.374C127.202 62.4846 128.684 61.0024 128.684 59.174V3.32448C128.684 1.4961 127.202 0.013916 125.374 0.013916Z" fill="#F9CCA8"/>
<path d="M9.74959 16.998C9.687 16.998 9.63223 16.9745 9.58528 16.9276C9.53834 16.8806 9.51487 16.8259 9.51487 16.7633V10.6605C9.51487 10.5917 9.53834 10.5353 9.58528 10.4915C9.63223 10.4477 9.687 10.4258 9.74959 10.4258H12.3785C13.1797 10.4258 13.8103 10.6104 14.2703 10.9797C14.7304 11.349 14.9604 11.8873 14.9604 12.5946C14.9604 13.2957 14.732 13.823 14.275 14.1766C13.8181 14.5303 13.1859 14.7071 12.3785 14.7071H11.2612V16.7633C11.2612 16.8321 11.2377 16.8885 11.1908 16.9323C11.1438 16.9761 11.0859 16.998 11.0171 16.998H9.74959ZM12.3315 13.4114C12.6069 13.4114 12.8229 13.341 12.9794 13.2002C13.1358 13.0594 13.2141 12.8512 13.2141 12.5758C13.2141 12.3192 13.1405 12.1142 12.9934 11.9609C12.8464 11.8075 12.6257 11.7308 12.3315 11.7308H11.233V13.4114H12.3315ZM15.1274 16.998C15.0774 16.998 15.032 16.9777 14.9913 16.937C14.9506 16.8963 14.9303 16.8509 14.9303 16.8008C14.9303 16.7633 14.9334 16.7351 14.9397 16.7163L17.1461 10.6887C17.1648 10.6136 17.2055 10.551 17.2681 10.5009C17.3307 10.4508 17.4121 10.4258 17.5122 10.4258H18.9018C19.0019 10.4258 19.0833 10.4508 19.1459 10.5009C19.2085 10.551 19.2492 10.6136 19.2679 10.6887L21.4649 16.7163L21.4837 16.8008C21.4837 16.8509 21.4634 16.8963 21.4227 16.937C21.382 16.9777 21.3335 16.998 21.2772 16.998H20.1223C19.9721 16.998 19.872 16.9323 19.8219 16.8008L19.4557 15.8432H16.9489L16.5921 16.8008C16.542 16.9323 16.4388 16.998 16.2823 16.998H15.1274ZM19.0802 14.4912L18.207 12.0125L17.3338 14.4912H19.0802ZM22.5521 16.998C22.4895 16.998 22.4347 16.9745 22.3878 16.9276C22.3408 16.8806 22.3174 16.8259 22.3174 16.7633V10.6605C22.3174 10.5917 22.3408 10.5353 22.3878 10.4915C22.4347 10.4477 22.4895 10.4258 22.5521 10.4258H25.1059C25.9258 10.4258 26.5658 10.612 27.0259 10.9844C27.4859 11.3568 27.716 11.8842 27.716 12.5664C27.716 13.0046 27.6127 13.377 27.4061 13.6837C27.1996 13.9904 26.9148 14.2251 26.5517 14.3879L27.838 16.6975C27.8568 16.7351 27.8662 16.7695 27.8662 16.8008C27.8662 16.8509 27.8458 16.8963 27.8051 16.937C27.7645 16.9777 27.7191 16.998 27.669 16.998H26.4203C26.2589 16.998 26.1396 16.9312 26.0624 16.7977L24.965 14.6789H24.0074V16.7633C24.0074 16.8321 23.9839 16.8885 23.9369 16.9323C23.89 16.9761 23.8321 16.998 23.7632 16.998H22.5521ZM25.0871 13.3457C25.375 13.3457 25.5941 13.2753 25.7443 13.1345C25.8945 12.9936 25.9696 12.798 25.9696 12.5477C25.9696 12.2973 25.8961 12.0986 25.749 11.9515C25.6019 11.8044 25.3813 11.7308 25.0871 11.7308H24.0074V13.3457H25.0871ZM29.1317 16.998C29.0691 16.998 29.0144 16.9745 28.9674 16.9276C28.9205 16.8806 28.897 16.8259 28.897 16.7633V10.6605C28.897 10.5917 28.9205 10.5353 28.9674 10.4915C29.0144 10.4477 29.0691 10.4258 29.1317 10.4258H33.5163C33.5852 10.4258 33.6415 10.4477 33.6853 10.4915C33.7291 10.5353 33.751 10.5917 33.751 10.6605V11.5431C33.751 11.6056 33.7291 11.6604 33.6853 11.7074C33.6415 11.7543 33.5852 11.7778 33.5163 11.7778H30.5213V13.0453H33.3098C33.3786 13.0453 33.4349 13.0687 33.4788 13.1157C33.5226 13.1626 33.5445 13.2205 33.5445 13.2894V14.1062C33.5445 14.1688 33.5226 14.2236 33.4788 14.2705C33.4349 14.3175 33.3786 14.3409 33.3098 14.3409H30.5213V15.646H33.5914C33.6603 15.646 33.7166 15.6679 33.7604 15.7117C33.8042 15.7555 33.8261 15.8119 33.8261 15.8807V16.7633C33.8261 16.8259 33.8042 16.8806 33.7604 16.9276C33.7166 16.9745 33.6603 16.998 33.5914 16.998H29.1317ZM35.2231 16.998C35.1605 16.998 35.1058 16.9745 35.0588 16.9276C35.0119 16.8806 34.9884 16.8259 34.9884 16.7633V10.6605C34.9884 10.5917 35.0119 10.5353 35.0588 10.4915C35.1058 10.4477 35.1605 10.4258 35.2231 10.4258H36.2183C36.3748 10.4258 36.4812 10.4852 36.5376 10.6042L38.8284 14.2095V10.6605C38.8284 10.5917 38.8519 10.5353 38.8989 10.4915C38.9458 10.4477 39.0006 10.4258 39.0632 10.4258H40.1898C40.2587 10.4258 40.315 10.4477 40.3588 10.4915C40.4026 10.5353 40.4246 10.5917 40.4246 10.6605V16.7539C40.4246 16.8227 40.4026 16.8806 40.3588 16.9276C40.315 16.9745 40.2587 16.998 40.1898 16.998H39.1852C39.0672 16.998 38.9745 16.9543 38.907 16.8669L36.5845 13.3457V16.7633C36.5845 16.8259 36.5626 16.8806 36.5188 16.9276C36.475 16.9745 36.4186 16.998 36.3498 16.998H35.2231ZM43.5115 16.998C43.4489 16.998 43.3942 16.9745 43.3472 16.9276C43.3003 16.8806 43.2768 16.8259 43.2768 16.7633V11.8998H41.6056C41.543 11.8998 41.4882 11.8764 41.4413 11.8294C41.3943 11.7825 41.3709 11.7277 41.3709 11.6651V10.6605C41.3709 10.5917 41.3943 10.5353 41.4413 10.4915C41.4882 10.4477 41.543 10.4258 41.6056 10.4258H46.6568C46.7257 10.4258 46.782 10.4477 46.8258 10.4915C46.8696 10.5353 46.8915 10.5917 46.8915 10.6605V11.6651C46.8915 11.734 46.8696 11.7903 46.8258 11.8341C46.782 11.8779 46.7257 11.8998 46.6568 11.8998H44.9856V16.7633C44.9856 16.8259 44.9637 16.8806 44.9199 16.9276C44.876 16.9745 44.8197 16.998 44.7509 16.998H43.5115ZM10.5664 27.2271C10.46 27.2271 10.3755 27.1974 10.3129 27.1379C10.2503 27.0785 10.2128 27.0049 10.2003 26.9173L9.17687 20.9178C9.17061 20.899 9.16748 20.8771 9.16748 20.8521C9.16748 20.802 9.18782 20.7566 9.22851 20.7159C9.26919 20.6752 9.31457 20.6549 9.36465 20.6549H10.5289C10.7041 20.6549 10.8011 20.7238 10.8199 20.8615L11.4302 24.5231L12.1062 22.3637C12.175 22.1947 12.2783 22.1102 12.416 22.1102H13.092C13.2485 22.1102 13.3518 22.1947 13.4019 22.3637L14.0779 24.5231L14.6881 20.8615C14.7069 20.7238 14.8039 20.6549 14.9792 20.6549H16.1434C16.1997 20.6549 16.2483 20.6752 16.2889 20.7159C16.3296 20.7566 16.35 20.802 16.35 20.8521L16.3406 20.9178L15.3172 26.9173C15.3047 27.0049 15.2655 27.0785 15.1998 27.1379C15.1341 27.1974 15.0512 27.2271 14.951 27.2271H14.0591C13.9589 27.2271 13.8807 27.2021 13.8244 27.152C13.768 27.1019 13.7273 27.0456 13.7023 26.983L12.754 24.2978L11.8058 26.983C11.7494 27.1458 11.6336 27.2271 11.4584 27.2271H10.5664ZM17.6437 27.2271C17.5811 27.2271 17.5263 27.2036 17.4794 27.1567C17.4324 27.1098 17.4089 27.055 17.4089 26.9924V20.8896C17.4089 20.8208 17.4324 20.7644 17.4794 20.7206C17.5263 20.6768 17.5811 20.6549 17.6437 20.6549H22.0283C22.0971 20.6549 22.1535 20.6768 22.1973 20.7206C22.2411 20.7644 22.263 20.8208 22.263 20.8896V21.7722C22.263 21.8348 22.2411 21.8895 22.1973 21.9365C22.1535 21.9834 22.0971 22.0069 22.0283 22.0069H19.0332V23.2744H21.8217C21.8906 23.2744 21.9469 23.2979 21.9907 23.3448C22.0345 23.3918 22.0564 23.4497 22.0564 23.5185V24.3353C22.0564 24.3979 22.0345 24.4527 21.9907 24.4997C21.9469 24.5466 21.8906 24.5701 21.8217 24.5701H19.0332V25.8751H22.1034C22.1722 25.8751 22.2286 25.897 22.2724 25.9408C22.3162 25.9847 22.3381 26.041 22.3381 26.1098V26.9924C22.3381 27.055 22.3162 27.1098 22.2724 27.1567C22.2286 27.2036 22.1722 27.2271 22.1034 27.2271H17.6437ZM23.7351 27.2271C23.6725 27.2271 23.6177 27.2036 23.5708 27.1567C23.5238 27.1098 23.5004 27.055 23.5004 26.9924V20.8896C23.5004 20.8208 23.5238 20.7644 23.5708 20.7206C23.6177 20.6768 23.6725 20.6549 23.7351 20.6549H24.9744C25.0433 20.6549 25.0996 20.6768 25.1434 20.7206C25.1872 20.7644 25.2091 20.8208 25.2091 20.8896V25.8094H28.054C28.1228 25.8094 28.1791 25.8329 28.223 25.8798C28.2668 25.9268 28.2887 25.9847 28.2887 26.0535V26.9924C28.2887 27.055 28.2668 27.1098 28.223 27.1567C28.1791 27.2036 28.1228 27.2271 28.054 27.2271H23.7351ZM29.4322 27.2271C29.3696 27.2271 29.3148 27.2036 29.2678 27.1567C29.2209 27.1098 29.1974 27.055 29.1974 26.9924V20.8896C29.1974 20.8208 29.2209 20.7644 29.2678 20.7206C29.3148 20.6768 29.3696 20.6549 29.4322 20.6549H30.6715C30.7403 20.6549 30.7967 20.6768 30.8405 20.7206C30.8843 20.7644 30.9062 20.8208 30.9062 20.8896V25.8094H33.751C33.8199 25.8094 33.8762 25.8329 33.92 25.8798C33.9638 25.9268 33.9858 25.9847 33.9858 26.0535V26.9924C33.9858 27.055 33.9638 27.1098 33.92 27.1567C33.8762 27.2036 33.8199 27.2271 33.751 27.2271H29.4322ZM35.1292 27.2271C35.0666 27.2271 35.0119 27.2036 34.9649 27.1567C34.918 27.1098 34.8945 27.055 34.8945 26.9924V20.8896C34.8945 20.8208 34.918 20.7644 34.9649 20.7206C35.0119 20.6768 35.0666 20.6549 35.1292 20.6549H37.9928C38.7815 20.6549 39.3683 20.8161 39.7533 21.1384C40.1382 21.4608 40.3307 21.9193 40.3307 22.5139C40.3307 22.8269 40.2509 23.0913 40.0912 23.3073C39.9316 23.5232 39.7517 23.6813 39.5514 23.7814C39.808 23.9003 40.024 24.0912 40.1992 24.3541C40.3745 24.617 40.4621 24.9112 40.4621 25.2367C40.4621 25.8626 40.2556 26.3508 39.8424 26.7013C39.4293 27.0519 38.841 27.2271 38.0773 27.2271H35.1292ZM37.8051 23.265C38.0554 23.265 38.2463 23.2009 38.3778 23.0725C38.5092 22.9442 38.5749 22.7737 38.5749 22.5608C38.5749 22.3543 38.5092 22.1884 38.3778 22.0632C38.2463 21.9381 38.0554 21.8755 37.8051 21.8755H36.5845V23.265H37.8051ZM37.8896 26.0066C38.1462 26.0066 38.3465 25.9315 38.4904 25.7812C38.6344 25.631 38.7064 25.4495 38.7064 25.2367C38.7064 25.0113 38.6344 24.8251 38.4904 24.678C38.3465 24.5309 38.1462 24.4574 37.8896 24.4574H36.5845V26.0066H37.8896ZM41.8309 27.2271C41.7683 27.2271 41.7136 27.2036 41.6666 27.1567C41.6197 27.1098 41.5962 27.055 41.5962 26.9924V20.8896C41.5962 20.8208 41.6197 20.7644 41.6666 20.7206C41.7136 20.6768 41.7683 20.6549 41.8309 20.6549H46.2155C46.2844 20.6549 46.3407 20.6768 46.3845 20.7206C46.4283 20.7644 46.4502 20.8208 46.4502 20.8896V21.7722C46.4502 21.8348 46.4283 21.8895 46.3845 21.9365C46.3407 21.9834 46.2844 22.0069 46.2155 22.0069H43.2205V23.2744H46.009C46.0778 23.2744 46.1342 23.2979 46.178 23.3448C46.2218 23.3918 46.2437 23.4497 46.2437 23.5185V24.3353C46.2437 24.3979 46.2218 24.4527 46.178 24.4997C46.1342 24.5466 46.0778 24.5701 46.009 24.5701H43.2205V25.8751H46.2906C46.3595 25.8751 46.4158 25.897 46.4596 25.9408C46.5034 25.9847 46.5254 26.041 46.5254 26.1098V26.9924C46.5254 27.055 46.5034 27.1098 46.4596 27.1567C46.4158 27.2036 46.3595 27.2271 46.2906 27.2271H41.8309ZM47.9223 27.2271C47.8597 27.2271 47.805 27.2036 47.758 27.1567C47.7111 27.1098 47.6876 27.055 47.6876 26.9924V20.8896C47.6876 20.8208 47.7111 20.7644 47.758 20.7206C47.805 20.6768 47.8597 20.6549 47.9223 20.6549H49.1804C49.2493 20.6549 49.3072 20.6768 49.3541 20.7206C49.4011 20.7644 49.4246 20.8208 49.4246 20.8896V26.9924C49.4246 27.0612 49.4011 27.1176 49.3541 27.1614C49.3072 27.2052 49.2493 27.2271 49.1804 27.2271H47.9223ZM51.0563 27.2271C50.9937 27.2271 50.9389 27.2036 50.8919 27.1567C50.845 27.1098 50.8215 27.055 50.8215 26.9924V20.8896C50.8215 20.8208 50.845 20.7644 50.8919 20.7206C50.9389 20.6768 50.9937 20.6549 51.0563 20.6549H52.0515C52.208 20.6549 52.3144 20.7144 52.3707 20.8333L54.6616 24.4386V20.8896C54.6616 20.8208 54.6851 20.7644 54.732 20.7206C54.7789 20.6768 54.8337 20.6549 54.8963 20.6549H56.023C56.0918 20.6549 56.1481 20.6768 56.192 20.7206C56.2358 20.7644 56.2577 20.8208 56.2577 20.8896V26.983C56.2577 27.0519 56.2358 27.1098 56.192 27.1567C56.1481 27.2036 56.0918 27.2271 56.023 27.2271H55.0184C54.9003 27.2271 54.8076 27.1834 54.7401 27.0961L52.4176 23.5748V26.9924C52.4176 27.055 52.3957 27.1098 52.3519 27.1567C52.3081 27.2036 52.2518 27.2271 52.1829 27.2271H51.0563ZM60.3774 27.321C59.4761 27.321 58.7719 27.1004 58.2649 26.6591C57.7579 26.2178 57.4888 25.5903 57.4575 24.7766L57.4523 24.5596C57.45 24.4194 57.4486 24.2463 57.4482 24.0403L57.45 23.4501C57.4515 23.2836 57.454 23.1499 57.4575 23.0491C57.4888 22.2541 57.7626 21.6407 58.279 21.2088C58.7954 20.777 59.4949 20.561 60.3774 20.561C60.9721 20.561 61.49 20.658 61.9313 20.8521C62.3726 21.0461 62.7106 21.2933 62.9453 21.5938C63.18 21.8942 63.3036 22.2041 63.3162 22.5233C63.3162 22.5796 63.2958 22.6266 63.2551 22.6641C63.2144 22.7017 63.1659 22.7205 63.1096 22.7205H61.7388C61.6762 22.7205 61.6262 22.7111 61.5886 22.6923C61.551 22.6735 61.5197 22.6391 61.4947 22.589C61.4133 22.4075 61.285 22.2495 61.1098 22.1149C60.9345 21.9803 60.6904 21.913 60.3774 21.913C59.6326 21.913 59.2414 22.3073 59.2038 23.096L59.1968 23.4317C59.196 23.4997 59.1954 23.5739 59.195 23.6541V24.1681C59.1962 24.4063 59.1991 24.5935 59.2038 24.7297C59.2414 25.5559 59.642 25.969 60.4056 25.969C60.7749 25.969 61.0706 25.8736 61.2928 25.6826C61.5151 25.4917 61.6262 25.1991 61.6262 24.8048V24.6264H60.7436C60.6747 24.6264 60.6184 24.6029 60.5746 24.556C60.5308 24.509 60.5089 24.4511 60.5089 24.3823V23.6875C60.5089 23.6187 60.5308 23.5608 60.5746 23.5138C60.6184 23.4669 60.6747 23.4434 60.7436 23.4434H63.1096C63.1784 23.4434 63.2348 23.4669 63.2786 23.5138C63.3224 23.5608 63.3443 23.6187 63.3443 23.6875V24.7578C63.3443 25.2899 63.2223 25.7484 62.9782 26.1333C62.734 26.5183 62.3882 26.8124 61.9407 27.0159C61.4931 27.2193 60.9721 27.321 60.3774 27.321Z" fill="#1B3861"/>
<path fill-rule="evenodd" clip-rule="evenodd" d="M121.298 41.633C120.141 36.1294 115.09 32.0437 109.326 32.0437C103.562 32.0437 98.5113 36.1294 97.3543 41.633C96.3317 41.9935 95.6191 42.9507 95.6191 44.0659C95.6191 45.1812 96.3317 46.1385 97.3543 46.4989C98.5113 52.0024 103.562 56.0881 109.326 56.0881C115.09 56.0881 120.141 52.0024 121.298 46.4989C122.321 46.1385 123.033 45.1812 123.033 44.0659C123.033 42.9507 122.321 41.9935 121.298 41.633Z" fill="#F5AA6E"/>
<path fill-rule="evenodd" clip-rule="evenodd" d="M120.404 45.2447C120.393 45.2447 120.382 45.2437 120.37 45.2429L120.341 45.2411C120.178 45.2349 120.042 45.3466 120.021 45.5017C119.301 50.7351 114.703 54.6816 109.326 54.6816C103.95 54.6816 99.3518 50.7351 98.6317 45.5017C98.6113 45.3516 98.4807 45.2407 98.3283 45.2407C98.3229 45.2407 98.3174 45.2409 98.3119 45.2411L98.2823 45.2429C98.2712 45.2437 98.26 45.2447 98.2484 45.2447C97.5873 45.2447 97.0495 44.7159 97.0495 44.0659C97.0495 43.4157 97.5873 42.887 98.2484 42.887C98.26 42.887 98.2712 42.888 98.2823 42.8886L98.3119 42.8905C98.4774 42.8953 98.6106 42.7854 98.6317 42.6298C99.3518 37.3965 103.95 33.4502 109.326 33.4502C114.703 33.4502 119.301 37.3965 120.021 42.6298C120.042 42.7854 120.178 42.8961 120.341 42.8905L120.37 42.8886C120.382 42.888 120.393 42.887 120.404 42.887C121.065 42.887 121.603 43.4157 121.603 44.0659C121.603 44.7159 121.065 45.2447 120.404 45.2447ZM120.59 42.2935C119.77 37.219 115.49 33.3449 110.338 32.8922C110.715 32.5328 110.951 32.0304 110.951 31.4743C110.951 30.3848 110.05 29.4985 108.942 29.4985C107.834 29.4985 106.933 30.3848 106.933 31.4743C106.933 31.6406 107.07 31.7757 107.239 31.7757C107.408 31.7757 107.546 31.6406 107.546 31.4743C107.546 30.7172 108.172 30.1013 108.942 30.1013C109.712 30.1013 110.338 30.7172 110.338 31.4743C110.338 32.2314 109.712 32.8474 108.942 32.8474C108.916 32.8474 108.891 32.8516 108.866 32.8579C103.471 33.0723 98.9112 37.0388 98.0624 42.2935C97.1505 42.3853 96.4365 43.1452 96.4365 44.0659C96.4365 44.9865 97.1505 45.7465 98.0624 45.8383C98.9355 51.2417 103.732 55.2844 109.326 55.2844C114.921 55.2844 119.717 51.2417 120.59 45.8383C121.502 45.7465 122.216 44.9865 122.216 44.0659C122.216 43.1452 121.502 42.3853 120.59 42.2935Z" fill="#1B3861"/>
<path fill-rule="evenodd" clip-rule="evenodd" d="M114.757 41.2684C113.809 40.3628 112.47 39.9712 111.174 40.2203C111.008 40.2521 110.9 40.4104 110.932 40.574C110.965 40.7373 111.126 40.8454 111.292 40.8119C112.39 40.6011 113.526 40.9328 114.33 41.7008C114.389 41.7579 114.466 41.786 114.543 41.786C114.623 41.786 114.703 41.7555 114.763 41.6946C114.881 41.5752 114.878 41.3845 114.757 41.2684Z" fill="#1B3861"/>
<path fill-rule="evenodd" clip-rule="evenodd" d="M107.361 40.8117C107.526 40.8437 107.688 40.7374 107.72 40.5738C107.753 40.4105 107.644 40.2522 107.478 40.2204C106.183 39.9711 104.843 40.3631 103.896 41.2683C103.774 41.3846 103.772 41.5753 103.889 41.6946C103.95 41.7553 104.029 41.7861 104.109 41.7861C104.186 41.7861 104.263 41.7577 104.323 41.7009C105.127 40.9329 106.263 40.6012 107.361 40.8117Z" fill="#1B3861"/>
<path fill-rule="evenodd" clip-rule="evenodd" d="M109.326 45.7068C107.149 45.7068 105.188 46.7155 104.33 48.2761C104.249 48.4226 104.305 48.6054 104.454 48.6844C104.602 48.7637 104.789 48.7089 104.869 48.5626C105.621 47.1939 107.371 46.3096 109.326 46.3096C111.282 46.3096 113.031 47.1939 113.784 48.5626C113.839 48.6635 113.945 48.7208 114.054 48.7208C114.103 48.7208 114.153 48.7091 114.199 48.6844C114.348 48.6054 114.404 48.4226 114.323 48.2761C113.465 46.7155 111.504 45.7068 109.326 45.7068Z" fill="#1B3861"/>
<path fill-rule="evenodd" clip-rule="evenodd" d="M117.261 45.3128C117.165 45.5483 116.981 45.7325 116.743 45.8316C116.253 46.0369 115.684 45.8109 115.476 45.3289C115.34 45.0146 115.49 44.0869 115.673 43.3553C116.336 43.7339 117.119 44.2712 117.255 44.5856C117.356 44.8191 117.358 45.0775 117.261 45.3128ZM115.621 42.6374C115.539 42.595 115.443 42.5912 115.358 42.6264C115.273 42.6619 115.209 42.7331 115.183 42.8205C115.085 43.156 114.609 44.8651 114.912 45.5648C115.167 46.1551 115.753 46.5101 116.367 46.5101C116.573 46.5101 116.782 46.4705 116.983 46.3866C117.371 46.2242 117.672 45.923 117.83 45.5384C117.988 45.1537 117.984 44.7315 117.819 44.3497C117.517 43.6507 115.935 42.8006 115.621 42.6374Z" fill="#1B3861"/>
<path fill-rule="evenodd" clip-rule="evenodd" d="M108.713 44.1663H109.939C110.108 44.1663 110.246 44.0312 110.246 43.8649C110.246 43.6985 110.108 43.5635 109.939 43.5635H108.713C108.544 43.5635 108.407 43.6985 108.407 43.8649C108.407 44.0312 108.544 44.1663 108.713 44.1663Z" fill="#1B3861"/>
</svg>
