<svg width="171" height="171" fill="none" xmlns="http://www.w3.org/2000/svg"><path d="M146.374 92.014H24.4a3.31 3.31 0 0 0-3.31 3.31v55.85a3.311 3.311 0 0 0 3.31 3.311h121.974a3.31 3.31 0 0 0 3.31-3.311v-55.85a3.31 3.31 0 0 0-3.31-3.31Z" fill="#F9CCA8"/><path d="M30.75 108.998a.224.224 0 0 1-.164-.07.226.226 0 0 1-.07-.165v-6.102a.22.22 0 0 1 .07-.169.233.233 0 0 1 .164-.066h2.629c.801 0 1.432.184 1.892.554.46.369.69.907.69 1.615 0 .701-.229 1.228-.685 1.582-.457.353-1.09.53-1.897.53h-1.117v2.056a.221.221 0 0 1-.07.169.245.245 0 0 1-.174.066H30.75Zm2.582-3.587c.275 0 .491-.07.648-.211.156-.141.235-.349.235-.624 0-.257-.074-.462-.221-.615-.147-.153-.368-.23-.662-.23h-1.099v1.68h1.099Zm2.796 3.587a.187.187 0 0 1-.136-.061.189.189 0 0 1-.061-.136c0-.038.003-.066.01-.085l2.206-6.027a.342.342 0 0 1 .122-.188.38.38 0 0 1 .244-.075h1.39c.1 0 .18.025.243.075.063.05.104.113.122.188l2.197 6.027.02.085c0 .05-.021.095-.062.136a.198.198 0 0 1-.145.061h-1.155c-.15 0-.25-.066-.3-.197l-.367-.958H37.95l-.356.958c-.05.131-.154.197-.31.197h-1.155Zm3.953-2.507-.873-2.478-.874 2.478h1.747Zm3.472 2.507a.224.224 0 0 1-.165-.07.226.226 0 0 1-.07-.165v-6.102a.22.22 0 0 1 .07-.169.233.233 0 0 1 .165-.066h2.553c.82 0 1.46.186 1.92.558.46.373.69.9.69 1.582 0 .439-.103.811-.31 1.118a1.985 1.985 0 0 1-.854.704l1.287 2.31a.232.232 0 0 1 .028.103c0 .05-.02.095-.061.136a.187.187 0 0 1-.136.061h-1.25a.386.386 0 0 1-.357-.2l-1.098-2.119h-.957v2.084a.22.22 0 0 1-.07.169.244.244 0 0 1-.174.066h-1.211Zm2.535-3.652c.288 0 .507-.071.657-.212.15-.14.225-.336.225-.586 0-.251-.073-.449-.22-.597-.148-.147-.368-.22-.662-.22h-1.08v1.615h1.08Zm4.044 3.652a.224.224 0 0 1-.164-.07.226.226 0 0 1-.07-.165v-6.102a.22.22 0 0 1 .07-.169.233.233 0 0 1 .164-.066h4.385c.069 0 .125.022.169.066.044.043.066.1.066.169v.882a.232.232 0 0 1-.066.164.221.221 0 0 1-.17.071h-2.994v1.267h2.788c.07 0 .125.024.17.071a.245.245 0 0 1 .065.173v.817a.234.234 0 0 1-.066.165.224.224 0 0 1-.169.07h-2.788v1.305h3.07c.069 0 .125.022.169.066.044.044.066.1.066.169v.882a.234.234 0 0 1-.066.165.22.22 0 0 1-.17.07h-4.459Zm6.092 0a.225.225 0 0 1-.165-.07.226.226 0 0 1-.07-.165v-6.102a.22.22 0 0 1 .07-.169.233.233 0 0 1 .165-.066h.995c.156 0 .263.059.32.178l2.29 3.605v-3.548a.22.22 0 0 1 .07-.169.233.233 0 0 1 .165-.066h1.126c.07 0 .126.022.17.066.043.043.065.1.065.169v6.093a.246.246 0 0 1-.066.174.22.22 0 0 1-.169.07h-1.004a.333.333 0 0 1-.279-.131l-2.322-3.521v3.417a.234.234 0 0 1-.066.165.22.22 0 0 1-.169.07h-1.126Zm8.288 0a.225.225 0 0 1-.164-.07.226.226 0 0 1-.07-.165V103.9h-1.672a.225.225 0 0 1-.164-.071.224.224 0 0 1-.07-.164v-1.004a.22.22 0 0 1 .07-.169.233.233 0 0 1 .164-.066h5.051c.07 0 .126.022.17.066.043.043.065.1.065.169v1.004a.229.229 0 0 1-.066.169.228.228 0 0 1-.169.066h-1.67v4.863a.234.234 0 0 1-.067.165.22.22 0 0 1-.169.07h-1.239Zm-32.945 10.229a.355.355 0 0 1-.254-.089.369.369 0 0 1-.112-.221l-1.024-5.999a.21.21 0 0 1-.009-.066c0-.05.02-.095.061-.136a.187.187 0 0 1 .136-.061h1.164c.176 0 .273.069.291.206l.61 3.662.677-2.159c.069-.169.172-.254.31-.254h.675c.157 0 .26.085.31.254l.676 2.159.61-3.662c.02-.137.116-.206.292-.206h1.164c.056 0 .105.02.145.061.041.041.061.086.061.136l-.009.066-1.023 5.999a.358.358 0 0 1-.366.31h-.892a.342.342 0 0 1-.235-.075.445.445 0 0 1-.122-.169l-.949-2.685-.948 2.685c-.056.163-.172.244-.347.244h-.892Zm7.077 0a.225.225 0 0 1-.164-.07.226.226 0 0 1-.07-.165v-6.102a.22.22 0 0 1 .07-.169.233.233 0 0 1 .164-.066h4.385c.069 0 .125.022.169.066.044.043.066.1.066.169v.882a.23.23 0 0 1-.066.164.221.221 0 0 1-.17.071h-2.994v1.267h2.788c.07 0 .125.024.17.071a.246.246 0 0 1 .065.174v.816a.234.234 0 0 1-.066.165.22.22 0 0 1-.169.07h-2.788v1.305h3.07c.069 0 .125.022.169.066.044.044.066.1.066.169v.882a.234.234 0 0 1-.066.165.22.22 0 0 1-.17.07h-4.459Zm6.092 0a.224.224 0 0 1-.165-.07.226.226 0 0 1-.07-.165v-6.102a.22.22 0 0 1 .07-.169.233.233 0 0 1 .165-.066h1.239c.069 0 .125.022.169.066.044.043.066.1.066.169v4.919h2.844c.07 0 .126.024.17.071a.245.245 0 0 1 .065.174v.938a.234.234 0 0 1-.066.165.22.22 0 0 1-.169.07h-4.318Zm5.697 0a.225.225 0 0 1-.165-.07.226.226 0 0 1-.07-.165v-6.102a.22.22 0 0 1 .07-.169.233.233 0 0 1 .165-.066h1.239c.069 0 .125.022.169.066.044.043.066.1.066.169v4.919h2.845c.068 0 .125.024.168.071a.246.246 0 0 1 .066.174v.938a.234.234 0 0 1-.066.165.22.22 0 0 1-.169.07h-4.318Zm5.697 0a.225.225 0 0 1-.165-.07.226.226 0 0 1-.07-.165v-6.102a.22.22 0 0 1 .07-.169.233.233 0 0 1 .165-.066h2.863c.789 0 1.376.161 1.76.483.386.323.578.781.578 1.376 0 .313-.08.577-.24.793-.159.216-.339.374-.54.474.258.119.474.31.649.573.175.263.263.557.263.883 0 .626-.207 1.114-.62 1.464-.413.351-1.002.526-1.765.526H56.13Zm2.675-3.962c.25 0 .442-.064.573-.192a.684.684 0 0 0 .197-.512.655.655 0 0 0-.197-.498c-.131-.125-.322-.188-.572-.188h-1.221v1.39h1.22Zm.085 2.742c.257 0 .457-.076.6-.226a.758.758 0 0 0 .217-.544.765.765 0 0 0-.216-.559c-.144-.147-.344-.221-.601-.221h-1.305v1.55h1.305Zm3.941 1.22a.225.225 0 0 1-.164-.07.226.226 0 0 1-.07-.165v-6.102a.22.22 0 0 1 .07-.169.233.233 0 0 1 .164-.066h4.385c.069 0 .125.022.169.066.044.043.066.1.066.169v.882a.23.23 0 0 1-.066.164.221.221 0 0 1-.169.071h-2.995v1.267h2.788c.07 0 .126.024.17.071a.246.246 0 0 1 .065.174v.816a.234.234 0 0 1-.066.165.22.22 0 0 1-.168.07H64.22v1.305h3.07c.069 0 .125.022.17.066.043.044.065.1.065.169v.882a.234.234 0 0 1-.066.165.22.22 0 0 1-.169.07h-4.46Zm6.092 0a.225.225 0 0 1-.165-.07.226.226 0 0 1-.07-.165v-6.102a.22.22 0 0 1 .07-.169.233.233 0 0 1 .165-.066h1.258c.069 0 .127.022.174.066.047.043.07.1.07.169v6.102a.22.22 0 0 1-.07.169.244.244 0 0 1-.174.066h-1.258Zm3.134 0a.225.225 0 0 1-.165-.07.226.226 0 0 1-.07-.165v-6.102a.22.22 0 0 1 .07-.169.233.233 0 0 1 .165-.066h.995c.156 0 .263.059.32.178l2.29 3.606v-3.549a.22.22 0 0 1 .07-.169.233.233 0 0 1 .165-.066h1.126c.07 0 .126.022.17.066.043.043.065.1.065.169v6.093a.246.246 0 0 1-.066.174.22.22 0 0 1-.169.07H76.02a.333.333 0 0 1-.278-.131l-2.323-3.521v3.417a.234.234 0 0 1-.066.165.22.22 0 0 1-.169.07h-1.126Zm9.32.094c-.9 0-1.605-.221-2.112-.662-.507-.441-.776-1.069-.807-1.882l-.005-.217a37.037 37.037 0 0 1-.004-.52l.002-.59c.001-.166.004-.3.007-.401.031-.795.305-1.408.822-1.84.516-.432 1.215-.648 2.098-.648.595 0 1.112.097 1.554.291.441.194.78.441 1.014.742.234.3.358.61.37.929 0 .057-.02.104-.06.141a.205.205 0 0 1-.146.056h-1.37a.335.335 0 0 1-.15-.028.214.214 0 0 1-.095-.103 1.224 1.224 0 0 0-.385-.474c-.175-.135-.42-.202-.732-.202-.745 0-1.136.394-1.174 1.183l-.007.336-.002.222v.514c.002.238.005.426.01.562.037.826.438 1.239 1.201 1.239.37 0 .665-.095.887-.286.222-.191.334-.484.334-.878v-.179h-.883a.22.22 0 0 1-.169-.07.246.246 0 0 1-.066-.174v-.694c0-.069.022-.127.066-.174a.221.221 0 0 1 .17-.071h2.365c.069 0 .125.024.17.071a.246.246 0 0 1 .065.174v1.07c0 .532-.122.99-.366 1.375-.245.385-.59.679-1.038.883-.447.203-.968.305-1.563.305Z" fill="#1B3861"/><path fill-rule="evenodd" clip-rule="evenodd" d="M142.298 133.633c-1.157-5.504-6.208-9.589-11.972-9.589-5.764 0-10.815 4.085-11.972 9.589a2.581 2.581 0 0 0-1.735 2.433c0 1.115.713 2.072 1.735 2.433 1.157 5.503 6.208 9.589 11.972 9.589 5.764 0 10.815-4.086 11.972-9.589a2.58 2.58 0 0 0 1.735-2.433 2.58 2.58 0 0 0-1.735-2.433Z" fill="#F5AA6E"/><path fill-rule="evenodd" clip-rule="evenodd" d="m141.404 137.245-.034-.002-.029-.002a.305.305 0 0 0-.32.261c-.72 5.233-5.318 9.18-10.695 9.18-5.376 0-9.974-3.947-10.694-9.18a.305.305 0 0 0-.304-.261h-.016l-.03.002-.034.002a1.19 1.19 0 0 1-1.198-1.179 1.19 1.19 0 0 1 1.232-1.177l.03.001a.304.304 0 0 0 .32-.26c.72-5.234 5.318-9.18 10.694-9.18 5.377 0 9.975 3.946 10.695 9.18a.304.304 0 0 0 .32.26l.029-.001.034-.002a1.19 1.19 0 0 1 1.199 1.179 1.19 1.19 0 0 1-1.199 1.179Zm.186-2.952c-.82-5.074-5.1-8.948-10.252-9.401.377-.359.613-.862.613-1.418 0-1.089-.901-1.975-2.009-1.975-1.108 0-2.009.886-2.009 1.975 0 .167.137.302.306.302a.305.305 0 0 0 .307-.302c0-.757.626-1.373 1.396-1.373.77 0 1.396.616 1.396 1.373s-.626 1.373-1.396 1.373a.324.324 0 0 0-.076.011c-5.395.214-9.955 4.181-10.804 9.435-.912.092-1.625.852-1.625 1.773 0 .921.713 1.68 1.625 1.772.874 5.404 5.67 9.446 11.264 9.446 5.595 0 10.391-4.042 11.264-9.446.912-.092 1.626-.851 1.626-1.772s-.714-1.681-1.626-1.773Z" fill="#1B3861"/><path fill-rule="evenodd" clip-rule="evenodd" d="M135.757 133.268a4.08 4.08 0 0 0-3.583-1.048.3.3 0 0 0-.241.354.305.305 0 0 0 .359.238 3.458 3.458 0 0 1 3.038.889.31.31 0 0 0 .433-.006.298.298 0 0 0-.006-.427ZM128.361 132.812a.306.306 0 0 0 .359-.238.301.301 0 0 0-.242-.354 4.078 4.078 0 0 0-3.582 1.048.3.3 0 0 0-.007.427.313.313 0 0 0 .434.006 3.46 3.46 0 0 1 3.038-.889ZM130.326 137.707c-2.177 0-4.138 1.008-4.996 2.569a.298.298 0 0 0 .124.408c.148.08.335.025.415-.121.752-1.369 2.502-2.253 4.457-2.253 1.956 0 3.705.884 4.458 2.253a.308.308 0 0 0 .415.121.298.298 0 0 0 .124-.408c-.858-1.561-2.819-2.569-4.997-2.569ZM138.261 137.313a.973.973 0 0 1-1.785.016c-.136-.314.014-1.242.197-1.974.663.379 1.446.916 1.582 1.231a.927.927 0 0 1 .006.727Zm-1.64-2.676a.306.306 0 0 0-.438.183c-.098.336-.574 2.045-.271 2.745.255.59.841.945 1.455.945.206 0 .415-.039.616-.123a1.56 1.56 0 0 0 .847-.849 1.517 1.517 0 0 0-.011-1.188c-.302-.699-1.884-1.549-2.198-1.713ZM129.714 136.166h1.226a.304.304 0 0 0 .306-.301.304.304 0 0 0-.306-.302h-1.226a.305.305 0 0 0-.307.302c0 .166.138.301.307.301Z" fill="#1B3861"/><path d="M146.374 15.39H24.4a3.31 3.31 0 0 0-3.31 3.31v55.85a3.31 3.31 0 0 0 3.31 3.31h121.974a3.31 3.31 0 0 0 3.31-3.31V18.7a3.31 3.31 0 0 0-3.31-3.31Z" fill="#B9DFE0"/><path d="M30.14 32.374a.188.188 0 0 1-.137-.06.189.189 0 0 1-.06-.137c0-.038.002-.066.009-.085l2.206-6.027a.34.34 0 0 1 .122-.188.379.379 0 0 1 .244-.075h1.39c.1 0 .181.025.244.075a.34.34 0 0 1 .122.188l2.197 6.027.019.085c0 .05-.02.095-.061.136a.199.199 0 0 1-.146.061h-1.155c-.15 0-.25-.066-.3-.197l-.366-.958H31.96l-.357.958c-.05.131-.153.197-.31.197H30.14Zm3.952-2.507-.873-2.478-.873 2.478h1.746Zm5.791 2.601c-.895 0-1.594-.218-2.098-.653-.504-.435-.772-1.065-.803-1.891l-.006-.289-.003-.78c.001-.266.004-.466.01-.603.03-.813.303-1.44.816-1.882.513-.441 1.208-.662 2.084-.662.551 0 1.045.092 1.484.277.438.185.784.448 1.037.789a2 2 0 0 1 .39 1.197v.018a.16.16 0 0 1-.061.127.205.205 0 0 1-.136.052h-1.268a.298.298 0 0 1-.188-.052.405.405 0 0 1-.112-.192c-.088-.32-.226-.543-.413-.671-.188-.129-.435-.193-.742-.193-.708 0-1.088.38-1.14 1.138l-.006.101c-.004.127-.007.305-.008.534v.493c0 .23.004.415.008.55.025.827.407 1.24 1.146 1.24.306 0 .557-.067.75-.202.195-.134.33-.355.405-.662.025-.094.06-.158.103-.192.044-.035.11-.052.197-.052h1.268c.056 0 .105.019.145.056.04.038.058.085.052.141a2 2 0 0 1-.39 1.197c-.253.341-.6.604-1.037.789a3.787 3.787 0 0 1-1.484.277Zm5.67-.094a.225.225 0 0 1-.165-.07.225.225 0 0 1-.07-.165v-4.863h-1.672a.225.225 0 0 1-.164-.07.225.225 0 0 1-.07-.165v-1.004a.233.233 0 0 1 .235-.235h5.05c.07 0 .126.022.17.066.043.043.065.1.065.169v1.004a.229.229 0 0 1-.066.17.229.229 0 0 1-.169.065h-1.67v4.863a.233.233 0 0 1-.236.235h-1.239Zm4.56 0a.225.225 0 0 1-.164-.07.225.225 0 0 1-.07-.165v-6.102a.233.233 0 0 1 .235-.235h1.257c.07 0 .127.022.174.066.047.043.07.1.07.169v6.102a.221.221 0 0 1-.07.17.245.245 0 0 1-.174.065h-1.258Zm4.777 0c-.2 0-.328-.094-.385-.282l-1.915-6.008-.019-.085c0-.05.02-.095.061-.136.04-.04.09-.061.146-.061h1.164a.355.355 0 0 1 .338.244l1.333 4.338 1.324-4.338a.355.355 0 0 1 .338-.244h1.174c.05 0 .095.02.136.06.04.042.06.087.06.137l-.018.085-1.915 6.008c-.057.188-.185.282-.385.282H54.89Zm4.956 0a.225.225 0 0 1-.165-.07.225.225 0 0 1-.07-.165v-6.102a.233.233 0 0 1 .235-.235h1.258c.069 0 .126.022.173.066.047.043.07.1.07.169v6.102a.221.221 0 0 1-.07.17.245.245 0 0 1-.173.065h-1.258Zm4.58 0a.225.225 0 0 1-.165-.07.225.225 0 0 1-.07-.165v-4.863h-1.672a.225.225 0 0 1-.164-.07.225.225 0 0 1-.07-.165v-1.004a.233.233 0 0 1 .235-.235h5.05c.07 0 .126.022.17.066.043.043.065.1.065.169v1.004a.229.229 0 0 1-.065.17.229.229 0 0 1-.17.065H65.9v4.863a.233.233 0 0 1-.235.235h-1.24Zm4.56 0a.225.225 0 0 1-.164-.07.225.225 0 0 1-.07-.165v-6.102a.233.233 0 0 1 .235-.235h1.257c.07 0 .127.022.174.066.047.043.07.1.07.169v6.102a.22.22 0 0 1-.07.17.245.245 0 0 1-.174.065h-1.258Zm3.134 0a.226.226 0 0 1-.164-.07.225.225 0 0 1-.07-.165v-6.102a.234.234 0 0 1 .235-.235h4.384c.069 0 .125.022.169.066.044.043.066.1.066.169v.882a.233.233 0 0 1-.235.235H73.51v1.267h2.788c.07 0 .126.024.17.07a.245.245 0 0 1 .065.175v.816a.233.233 0 0 1-.235.235H73.51v1.305h3.07c.069 0 .125.022.169.066.044.044.066.1.066.169v.882a.233.233 0 0 1-.235.235h-4.46Zm8.307.094c-.594 0-1.104-.088-1.53-.263-.426-.175-.746-.405-.962-.69a1.615 1.615 0 0 1-.343-.934c0-.05.02-.096.061-.136.04-.041.09-.061.145-.061h1.183c.076 0 .137.014.184.042.047.028.095.07.145.127a.976.976 0 0 0 .394.403c.182.107.423.16.723.16.357 0 .63-.056.817-.169.188-.113.282-.266.282-.46a.435.435 0 0 0-.146-.338c-.097-.088-.248-.166-.455-.235l-.153-.047c-.139-.04-.31-.084-.51-.13l-.257-.057c-.751-.157-1.313-.387-1.685-.69-.373-.304-.559-.738-.559-1.3 0-.383.106-.724.32-1.024.212-.3.516-.535.91-.704.394-.17.854-.254 1.38-.254.545 0 1.017.094 1.418.282.4.188.706.424.915.709.21.284.321.564.334.84a.191.191 0 0 1-.198.197h-1.239a.388.388 0 0 1-.183-.038.36.36 0 0 1-.127-.122c-.037-.144-.14-.266-.305-.366-.166-.1-.37-.15-.615-.15-.282 0-.497.05-.648.15a.497.497 0 0 0-.225.441c0 .132.042.241.127.33.084.087.222.166.413.238.19.072.465.146.821.221.582.107 1.047.24 1.395.4.347.159.602.365.765.619.162.253.244.571.244.953 0 .42-.12.784-.362 1.094-.24.31-.575.547-1.004.713-.429.166-.919.249-1.47.249Z" fill="#1B3861"/><path fill-rule="evenodd" clip-rule="evenodd" d="M142.298 57.009c-1.157-5.504-6.208-9.59-11.972-9.59-5.764 0-10.815 4.086-11.972 9.59a2.581 2.581 0 0 0-1.735 2.433c0 1.115.713 2.072 1.735 2.433 1.157 5.503 6.208 9.589 11.972 9.589 5.764 0 10.815-4.086 11.972-9.59a2.58 2.58 0 0 0 1.735-2.432 2.58 2.58 0 0 0-1.735-2.433Z" fill="#8ACACC"/><path fill-rule="evenodd" clip-rule="evenodd" d="m141.404 60.62-.034-.001-.029-.002a.305.305 0 0 0-.32.26c-.72 5.234-5.318 9.18-10.695 9.18-5.376 0-9.974-3.946-10.694-9.18a.305.305 0 0 0-.32-.26l-.03.002-.034.002a1.19 1.19 0 0 1-1.198-1.18c0-.65.537-1.178 1.198-1.178l.034.002.03.001a.304.304 0 0 0 .32-.26c.72-5.234 5.318-9.18 10.694-9.18 5.377 0 9.975 3.946 10.695 9.18a.305.305 0 0 0 .32.26l.029-.001.034-.002a1.19 1.19 0 0 1 1.199 1.179 1.19 1.19 0 0 1-1.199 1.179Zm.186-2.95c-.82-5.075-5.1-8.95-10.252-9.402.377-.36.613-.862.613-1.418 0-1.09-.901-1.976-2.009-1.976-1.108 0-2.009.887-2.009 1.976 0 .167.137.302.306.302a.305.305 0 0 0 .307-.302c0-.757.626-1.373 1.396-1.373.77 0 1.396.616 1.396 1.373s-.626 1.373-1.396 1.373a.314.314 0 0 0-.076.01c-5.395.215-9.955 4.182-10.804 9.437-.912.091-1.625.851-1.625 1.772 0 .92.713 1.68 1.625 1.772.874 5.404 5.67 9.446 11.264 9.446 5.595 0 10.391-4.042 11.264-9.446.912-.092 1.626-.852 1.626-1.772s-.714-1.68-1.626-1.773Z" fill="#1B3861"/><path fill-rule="evenodd" clip-rule="evenodd" d="M135.757 56.644a4.077 4.077 0 0 0-3.583-1.048.3.3 0 0 0-.241.354.304.304 0 0 0 .359.238 3.459 3.459 0 0 1 3.038.889.307.307 0 0 0 .433-.006.297.297 0 0 0-.006-.427ZM128.361 56.188a.301.301 0 1 0 .117-.591 4.076 4.076 0 0 0-3.582 1.047.298.298 0 0 0-.007.427.31.31 0 0 0 .434.006 3.46 3.46 0 0 1 3.038-.89ZM130.326 61.083c-2.177 0-4.138 1.008-4.996 2.569a.298.298 0 0 0 .124.408c.148.08.335.025.415-.121.752-1.37 2.502-2.254 4.457-2.254 1.956 0 3.705.885 4.458 2.254a.307.307 0 0 0 .415.121.298.298 0 0 0 .124-.408c-.858-1.56-2.819-2.57-4.997-2.57ZM138.261 60.689a.973.973 0 0 1-1.785.016c-.136-.314.014-1.242.197-1.974.663.379 1.446.916 1.582 1.23a.927.927 0 0 1 .006.728Zm-1.64-2.676a.312.312 0 0 0-.263-.01.305.305 0 0 0-.175.193c-.098.336-.574 2.045-.271 2.745.255.59.841.945 1.455.945.206 0 .415-.04.616-.123.388-.163.689-.464.847-.849a1.519 1.519 0 0 0-.011-1.188c-.302-.7-1.884-1.55-2.198-1.713ZM129.714 59.542h1.226a.304.304 0 0 0 .306-.301.304.304 0 0 0-.306-.301h-1.226a.305.305 0 0 0-.307.3c0 .167.138.302.307.302Z" fill="#1B3861"/></svg>