<svg width="36" height="36" fill="none" xmlns="http://www.w3.org/2000/svg"><g opacity=".8" fill-rule="evenodd" clip-rule="evenodd" fill="#151931"><path d="M7.17 14.72C8 9.3 13.12 5.84 18 5.84s10 3.45 10.83 8.88a3.94 3.94 0 0 1-.14 7.75 11.37 11.37 0 0 1-21.38 0 3.94 3.94 0 0 1-.14-7.75ZM18 7.6c-4.37 0-8.8 3.23-9.17 8a.88.88 0 0 1-.88.8h-.01a2.19 2.19 0 1 0 0 4.38h.01c.39 0 .73.25.84.62a9.62 9.62 0 0 0 18.42 0 .87.87 0 0 1 .84-.62h.01a2.19 2.19 0 0 0 0-4.37h-.01a.88.88 0 0 1-.88-.81c-.37-4.77-4.8-8-9.17-8Z"/><path d="M17.12 6.71c0-.48.4-.87.88-.87a3.5 3.5 0 1 1-3.3 4.66.88.88 0 0 1 1.65-.58A1.75 1.75 0 1 0 18 7.6a.88.88 0 0 1-.88-.88ZM15.03 23.25a.87.87 0 0 1 1.23-.07 2.63 2.63 0 0 0 3.48 0 .87.87 0 1 1 1.15 1.31 4.38 4.38 0 0 1-5.78 0 .87.87 0 0 1-.08-1.24ZM20.63 15.96c.48 0 .87.39.87.87a.88.88 0 0 0 1.75 0 .87.87 0 1 1 1.75 0 2.63 2.63 0 0 1-5.25 0c0-.48.4-.87.88-.87ZM11.88 15.96c.48 0 .87.39.87.87a.88.88 0 0 0 1.75 0 .87.87 0 1 1 1.75 0 2.63 2.63 0 0 1-5.25 0c0-.48.4-.87.88-.87Z"/></g></svg>
