<svg width="20" height="20" fill="none" xmlns="http://www.w3.org/2000/svg"><path d="M3.127 19.166h11.457a2.291 2.291 0 0 0 2.291-2.291v-2.291a.764.764 0 0 0-1.527 0v2.291a.764.764 0 0 1-.764.764H3.127a.764.764 0 0 1-.764-.764V5.418c0-.422.342-.764.764-.764h2.291a.764.764 0 0 0 0-1.528H3.127A2.29 2.29 0 0 0 .835 5.418v11.457a2.291 2.291 0 0 0 2.292 2.291Z" fill="#151931"/><path d="M20 .765a.765.765 0 0 0-.764-.763h-1.527A10.695 10.695 0 0 0 7.014 10.695v1.21l-2.066 2.07a.764.764 0 1 0 1.077 1.077l2.07-2.066h1.21a10.693 10.693 0 0 0 7.99-3.601.764.764 0 0 0 .03-.982l-1.123-1.527H18.472a.763.763 0 0 0 .706-.47c.544-1.303.823-2.701.821-4.113V.765Zm-1.528 1.528a9.112 9.112 0 0 1-.523 3.055h-1.703a1.558 1.558 0 0 0-1.25 2.494l.73.978a9.165 9.165 0 0 1-6.42 2.639h-.763v-.764a9.165 9.165 0 0 1 9.165-9.166h.764v.764Z" fill="#151931"/></svg>