<svg width="20" height="20" fill="none" xmlns="http://www.w3.org/2000/svg"><path d="M4.02 12.41h-.596c-.974 0-1.766.872-1.766 1.944v2.214c0 1.072.792 1.944 1.766 1.944h.596c.974 0 1.766-.872 1.766-1.944v-2.214c0-1.072-.792-1.944-1.766-1.944Zm.653 4.16c0 .397-.294.72-.653.72h-.596c-.361 0-.653-.323-.653-.72v-2.214c0-.398.294-.721.653-.721h.596c.361 0 .653.323.653.72v2.214ZM9.856 11.149h-.597c-.973 0-1.765.872-1.765 1.944v3.475c0 1.072.792 1.944 1.765 1.944h.597c.973 0 1.765-.872 1.765-1.944v-3.474c0-1.073-.792-1.945-1.765-1.945Zm.654 5.42c0 .397-.293.72-.654.72h-.597c-.361 0-.653-.323-.653-.72v-3.475c0-.398.294-.72.653-.72h.597c.36 0 .654.322.654.72v3.474ZM15.734 9.068h-.596c-.974 0-1.765.872-1.765 1.944v5.556c0 1.072.791 1.944 1.765 1.944h.596c.974 0 1.766-.872 1.766-1.944v-5.556c0-1.072-.792-1.944-1.766-1.944Zm.655 7.5c0 .398-.293.721-.655.721h-.596c-.361 0-.653-.323-.653-.72v-5.557c0-.397.294-.72.653-.72h.596c.362 0 .655.323.655.72v5.556ZM18.213 1.925a.44.44 0 0 0-.509-.245l-.1.027c-1.392.375-2.42.177-2.972-.01a.608.608 0 0 0-.728.302l-.016.029c-.144.262-.063.661.207.764.56.21 1.149.325 1.746.344a25.445 25.445 0 0 1-5.718 3.333C6.758 7.871 2.204 7.596 2.15 7.604c-.315.05-.532.361-.485.694a.588.588 0 0 0 .656.515c.224-.036 4.736.247 8.223-1.205a26.606 26.606 0 0 0 5.895-3.42 5.539 5.539 0 0 0 .18 1.966.582.582 0 0 0 .548.421c.06 0 .122-.01.18-.03.302-.106.466-.449.366-.772-.005-.018-.53-1.803.485-3.082a.64.64 0 0 0 .015-.766Z" fill="#151931"/></svg>