<svg width="20" height="20" fill="none" xmlns="http://www.w3.org/2000/svg"><path d="m19.423 4.679-2.115-3.58a.444.444 0 0 0-.768 0l-2.115 3.58a.445.445 0 0 0 .383.672h1.335a.112.112 0 0 1 .111.112v.779a2.674 2.674 0 0 1-2.673 2.673H6.896a4.01 4.01 0 0 0-4.01 4.01v.442a.11.11 0 0 1-.083.106 2.896 2.896 0 1 0 1.502 0 .111.111 0 0 1-.083-.106v-.441a2.673 2.673 0 0 1 2.674-2.674h6.686a4.01 4.01 0 0 0 4.01-4.01v-.78a.111.111 0 0 1 .112-.112h1.334a.445.445 0 0 0 .385-.671ZM5.117 16.269a1.56 1.56 0 1 1-3.12 0 1.56 1.56 0 0 1 3.12 0ZM3.537 6.373a.667.667 0 0 0 .943 0l1.308-1.308 1.307 1.308a.667.667 0 1 0 .944-.944L6.731 4.121 8.04 2.814a.667.667 0 0 0-.944-.944L5.788 3.178 4.48 1.87a.667.667 0 1 0-.943.944l1.31 1.307L3.538 5.43a.667.667 0 0 0-.002.944ZM12.704 18.04a.668.668 0 0 0 .943 0l1.308-1.308 1.307 1.308a.667.667 0 0 0 .944-.944l-1.308-1.308 1.308-1.307a.667.667 0 0 0-.944-.944l-1.307 1.307-1.308-1.307a.667.667 0 1 0-.943.944l1.31 1.307-1.308 1.308a.667.667 0 0 0-.002.944Z" fill="#151931"/></svg>