<svg width="36" height="36" viewBox="0 0 36 36" fill="none" xmlns="http://www.w3.org/2000/svg">
<g opacity="0.8">
<path fill-rule="evenodd" clip-rule="evenodd" d="M4.875 19.75C5.35825 19.75 5.75 20.1418 5.75 20.625V31.125C5.75 31.6082 5.35825 32 4.875 32C4.39175 32 4 31.6082 4 31.125V20.625C4 20.1418 4.39175 19.75 4.875 19.75Z" fill="#151931"/>
<path fill-rule="evenodd" clip-rule="evenodd" d="M4 22.375C4 21.8918 4.39175 21.5 4.875 21.5H11C12.1603 21.5 13.2731 21.9609 14.0936 22.7814C14.7047 23.3925 15.1163 24.1657 15.2866 25H18.875C20.0353 25 21.1481 25.4609 21.9686 26.2814C22.7891 27.1019 23.25 28.2147 23.25 29.375C23.25 29.8582 22.8582 30.25 22.375 30.25H4.875C4.39175 30.25 4 29.8582 4 29.375C4 28.8918 4.39175 28.5 4.875 28.5H21.3499C21.2206 28.1343 21.0106 27.7983 20.7312 27.5188C20.2389 27.0266 19.5712 26.75 18.875 26.75H14.5C14.0168 26.75 13.625 26.3582 13.625 25.875C13.625 25.1788 13.3484 24.5111 12.8562 24.0188C12.3639 23.5266 11.6962 23.25 11 23.25H4.875C4.39175 23.25 4 22.8582 4 22.375Z" fill="#151931"/>
<path fill-rule="evenodd" clip-rule="evenodd" d="M10.125 25.875C10.125 25.3918 10.5168 25 11 25H14.5C14.9832 25 15.375 25.3918 15.375 25.875C15.375 26.3582 14.9832 26.75 14.5 26.75H11C10.5168 26.75 10.125 26.3582 10.125 25.875Z" fill="#151931"/>
<path fill-rule="evenodd" clip-rule="evenodd" d="M21.5002 12.1666C20.8558 12.1666 20.3335 12.689 20.3335 13.3333C20.3335 13.9776 20.8558 14.5 21.5002 14.5C22.1445 14.5 22.6668 13.9776 22.6668 13.3333C22.6668 12.689 22.1445 12.1666 21.5002 12.1666ZM18.5835 13.3333C18.5835 11.7225 19.8893 10.4166 21.5002 10.4166C23.111 10.4166 24.4168 11.7225 24.4168 13.3333C24.4168 14.9441 23.111 16.25 21.5002 16.25C19.8893 16.25 18.5835 14.9441 18.5835 13.3333Z" fill="#151931"/>
<path fill-rule="evenodd" clip-rule="evenodd" d="M22.246 7.84881L21.5002 6.10889L20.7544 7.84881C20.1428 9.27559 18.6646 10.1291 17.1231 9.94532L15.2434 9.72123L16.3774 11.2371C17.3072 12.4801 17.3072 14.1871 16.3774 15.4301L15.2434 16.9459L17.1231 16.7218C18.6646 16.5381 20.1428 17.3916 20.7544 18.8183L21.5002 20.5583L22.246 18.8183C22.8575 17.3916 24.3358 16.5381 25.8772 16.7218L27.7569 16.9459L26.623 15.4301C25.6932 14.1871 25.6932 12.4801 26.623 11.2371L27.7569 9.72123L25.8772 9.94532C24.3358 10.1291 22.8575 9.27559 22.246 7.84881ZM23.1087 5.41944C22.5025 4.00537 20.4978 4.00537 19.8917 5.41944L19.1459 7.15937C18.8401 7.87276 18.101 8.2995 17.3303 8.20762L15.4506 7.98353C13.9229 7.80141 12.9206 9.53753 13.8421 10.7695L14.976 12.2853C15.441 12.9068 15.441 13.7603 14.976 14.3818L13.8421 15.8977C12.9206 17.1296 13.9229 18.8657 15.4506 18.6836L17.3303 18.4595C18.101 18.3676 18.8401 18.7944 19.1459 19.5078L19.8917 21.2477C20.4978 22.6618 22.5025 22.6618 23.1087 21.2477L23.8544 19.5078C24.1602 18.7944 24.8994 18.3676 25.6701 18.4595L27.5498 18.6836C29.0775 18.8657 30.0798 17.1296 29.1583 15.8977L28.0243 14.3818C27.5594 13.7603 27.5594 12.9068 28.0243 12.2853L29.1583 10.7695C30.0798 9.53753 29.0775 7.80141 27.5498 7.98353L25.6701 8.20762C24.8994 8.2995 24.1602 7.87276 23.8544 7.15937L23.1087 5.41944Z" fill="#151931"/>
</g>
</svg>
