<svg width="36" height="36" fill="none" xmlns="http://www.w3.org/2000/svg"><g opacity=".8" fill-rule="evenodd" clip-rule="evenodd" fill="#151931"><path d="M4.88 19.75c.48 0 .87.4.87.88v10.5a.88.88 0 0 1-1.75 0v-10.5c0-.49.4-.88.88-.88Z"/><path d="M4 22.38c0-.49.4-.88.88-.88H11a4.37 4.37 0 0 1 4.29 3.5h3.59a4.37 4.37 0 0 1 4.37 4.38c0 .48-.4.87-.88.87H4.88a.88.88 0 0 1 0-1.75h16.48a2.63 2.63 0 0 0-2.48-1.75H14.5a.88.88 0 0 1-.88-.88A2.63 2.63 0 0 0 11 23.25H4.87a.88.88 0 0 1-.87-.88Z"/><path d="M10.13 25.88c0-.49.39-.88.87-.88h3.5a.88.88 0 0 1 0 1.75H11a.88.88 0 0 1-.88-.88ZM21.5 12.17a1.17 1.17 0 1 0 0 2.33 1.17 1.17 0 0 0 0-2.33Zm-2.92 1.16a2.92 2.92 0 1 1 5.84 0 2.92 2.92 0 0 1-5.84 0Z"/><path d="M22.25 7.85 21.5 6.1l-.75 1.74a3.5 3.5 0 0 1-3.63 2.1l-1.88-.23 1.14 1.52a3.5 3.5 0 0 1 0 4.19l-1.14 1.52 1.88-.23a3.5 3.5 0 0 1 3.63 2.1l.75 1.74.75-1.74a3.5 3.5 0 0 1 3.63-2.1l1.88.23-1.14-1.52a3.5 3.5 0 0 1 0-4.2l1.14-1.5-1.88.22a3.5 3.5 0 0 1-3.63-2.1Zm.86-2.43a1.75 1.75 0 0 0-3.22 0l-.74 1.74a1.75 1.75 0 0 1-1.82 1.05l-1.88-.23a1.75 1.75 0 0 0-1.6 2.79l1.13 1.52c.46.62.46 1.47 0 2.1l-1.14 1.5a1.75 1.75 0 0 0 1.61 2.8l1.88-.23c.77-.1 1.51.33 1.82 1.05l.74 1.74a1.75 1.75 0 0 0 3.22 0l.74-1.74a1.75 1.75 0 0 1 1.82-1.05l1.88.22a1.75 1.75 0 0 0 1.6-2.78l-1.13-1.52a1.75 1.75 0 0 1 0-2.1l1.14-1.51a1.75 1.75 0 0 0-1.61-2.79l-1.88.23c-.77.09-1.51-.34-1.82-1.05l-.74-1.74Z"/></g></svg>
