<svg width="70" height="12" fill="none" xmlns="http://www.w3.org/2000/svg"><path d="M5.76.18c.12-.24.31-.24.43 0L7.68 3.2c.12.24.43.46.7.5l3.33.49c.26.04.32.22.13.4L9.43 6.96c-.2.18-.31.55-.27.81l.57 3.32c.05.26-.1.38-.34.25L6.4 9.77a1.04 1.04 0 0 0-.86 0l-2.97 1.56c-.24.13-.4.01-.35-.25l.57-3.32a1.04 1.04 0 0 0-.27-.81L.12 4.59c-.2-.18-.14-.37.13-.4l3.33-.49c.26-.04.57-.26.7-.5L5.75.18Zm14.51 0c.12-.24.31-.24.43 0l1.5 3.02c.11.24.42.46.69.5l3.33.49c.26.04.32.22.13.4l-2.4 2.36c-.2.18-.32.55-.28.81l.57 3.32c.05.26-.1.38-.34.25l-2.98-1.56a1.04 1.04 0 0 0-.86 0l-2.98 1.56c-.24.13-.4.01-.35-.25l.57-3.32a1.04 1.04 0 0 0-.27-.81l-2.4-2.35c-.2-.2-.14-.37.13-.41l3.33-.49c.26-.04.57-.26.7-.5L20.26.18Zm14.51 0c.12-.24.32-.24.43 0l1.5 3.02c.11.24.42.46.69.5l3.33.49c.27.04.33.22.13.4l-2.4 2.36c-.2.18-.32.55-.27.81l.57 3.32c.04.26-.12.38-.35.25l-2.98-1.56a1.04 1.04 0 0 0-.86 0l-2.98 1.56c-.23.13-.4.01-.35-.25l.57-3.32a1.04 1.04 0 0 0-.26-.81L29.14 4.6c-.2-.2-.14-.37.13-.41l3.33-.49c.27-.04.58-.26.7-.5L34.79.18Zm14.52 0c.12-.24.3-.24.43 0l1.49 3.02c.11.24.43.46.7.5l3.32.49c.27.04.33.22.14.4l-2.41 2.36c-.2.18-.31.55-.27.81l.57 3.32c.04.26-.11.38-.35.25l-2.98-1.56a1.04 1.04 0 0 0-.86 0l-2.98 1.56c-.23.13-.39.01-.34-.25l.57-3.32a1.04 1.04 0 0 0-.27-.81L43.65 4.6c-.2-.2-.13-.37.13-.41l3.33-.49c.27-.04.58-.26.7-.5L49.3.18Zm14.51 0c.12-.24.31-.24.43 0l1.49 3.02c.12.24.43.46.7.5l3.32.49c.27.04.33.22.14.4l-2.41 2.36c-.2.18-.31.55-.27.81l.57 3.32c.05.26-.11.38-.35.25l-2.98-1.56a1.04 1.04 0 0 0-.85 0l-2.98 1.56c-.24.13-.4.01-.35-.25l.57-3.32a1.04 1.04 0 0 0-.27-.81l-2.4-2.35c-.2-.2-.14-.37.12-.41l3.33-.49c.27-.04.58-.26.7-.5L63.81.18Z" fill="#FFBF1C"/></svg>
