<svg width="20" height="20" fill="none" xmlns="http://www.w3.org/2000/svg"><path d="M.833 8.646h-.7a.7.7 0 0 0 .7.7v-.7Zm3.75-4.167v.7a.7.7 0 0 0 .7-.7h-.7Zm5.417 0h-.7a.7.7 0 0 0 .7.7v-.7Zm5 1.667h.7-.7Zm0 3.75h-.7a.7.7 0 0 0 .7.7v-.7Zm0 5v-.7a.7.7 0 0 0-.7.7h.7Zm-3.75 4.166h-.7a.7.7 0 0 0 .7.7v-.7Zm-5.833 0v.7a.7.7 0 0 0 .7-.7h-.7ZM.833 14.48v-.7a.7.7 0 0 0-.7.7h.7Zm.7-5.833v-2.5h-1.4v2.5h1.4Zm0-2.5c0-.324.001-.548.017-.725.016-.179.043-.222.04-.217-.02.034-.05.038-.008.024.07-.023.215-.049.501-.049v-1.4c-.629 0-1.323.087-1.693.705-.16.265-.211.56-.234.81-.023.254-.023.55-.023.852h1.4Zm.55-.967H4.584v-1.4H2.083v1.4Zm3.2-.7v-.833h-1.4v.833h1.4Zm0-.833c0-.757.268-1.269.622-1.595a2.044 2.044 0 0 1 1.387-.518c.52 0 1.022.181 1.387.518.354.326.621.838.621 1.595h1.4c0-1.119-.41-2.013-1.071-2.624-.651-.6-1.504-.889-2.337-.889-.834 0-1.686.288-2.337.889-.662.61-1.071 1.505-1.071 2.624h1.4Zm4.017 0V4.062h1.4-1.4v.417h1.4v-.416H9.3h1.4V3.645H9.3Zm.7 1.533h3.334v-1.4H10v1.4Zm3.334 0c.74 0 .86.185.875.21a.566.566 0 0 1 .071.237c.02.141.02.302.02.52h1.4c0-.356.023-1.011-.326-1.534-.4-.602-1.115-.833-2.04-.833v1.4Zm.966.967v3.75h1.4v-3.75h-1.4Zm.7 4.45c.72 0 1.491-.07 2.143.127.298.089.508.22.647.397.136.172.26.458.26.963h1.4c0-.745-.188-1.357-.56-1.83-.369-.467-.862-.727-1.345-.871-.91-.274-2.014-.186-2.545-.186v1.4Zm3.05 1.487c0 .65-.116 1.064-.264 1.332-.142.256-.335.42-.58.533-.557.258-1.307.248-2.206.248v1.4c.768 0 1.893.041 2.795-.378a2.616 2.616 0 0 0 1.216-1.126c.295-.534.44-1.2.44-2.009h-1.4Zm-3.75 2.813V17.062h1.4V14.896h-1.4ZM13 18.362h-1.75v1.4H13v-1.4Zm-1.05.7c0-.711-.162-1.69-.695-2.515-.56-.865-1.504-1.518-2.921-1.518v1.4c.915 0 1.429.389 1.745.878.342.53.471 1.217.471 1.755h1.4ZM8.334 15.03c-1.399 0-2.348.601-2.917 1.459-.541.816-.7 1.802-.7 2.574h1.4c0-.616.132-1.296.467-1.8.306-.462.814-.833 1.75-.833v-1.4Zm-2.917 3.333H2.834v1.4h2.583v-1.4Zm-3.883-1.3V14.48h-1.4v2.583h1.4Zm-.7-1.883c.462 0 1.433-.065 2.313-.543a3.2 3.2 0 0 0 1.21-1.124c.325-.522.51-1.17.51-1.95h-1.4c0 .553-.128.938-.299 1.212-.171.276-.41.48-.69.632-.578.313-1.273.373-1.645.373v1.4Zm4.033-3.617c0-1.485-.641-2.444-1.531-2.992-.837-.515-1.822-.624-2.503-.624v1.4c.57 0 1.252.098 1.769.417.464.285.865.785.865 1.8h1.4Zm-2.034 6.8a1.3 1.3 0 0 1-1.3-1.3h-1.4a2.7 2.7 0 0 0 2.7 2.7v-1.4Zm11.467-1.3a1.3 1.3 0 0 1-1.3 1.3v1.4a2.7 2.7 0 0 0 2.7-2.7h-1.4Z" fill="#151931"/></svg>