<svg width="20" height="20" fill="none" xmlns="http://www.w3.org/2000/svg"><path d="M18.527 1.387c-.82-.82-2.253-.884-4.021-.168-1.769.716-3.327 1.874-4.885 3.432-.337.337-.653.674-.947 1.01L7.516 5.41a3.368 3.368 0 0 0-4.043 2.8l-.505 3.453a.632.632 0 0 0 .631.716h.063l2.064-.232a2.21 2.21 0 0 0 2.042 2.043l-.231 2.063a.631.631 0 0 0 .631.695h.084l3.454-.505a3.369 3.369 0 0 0 2.8-4.064l-.253-1.158c.337-.295.674-.61 1.011-.947 1.558-1.559 2.78-3.306 3.432-4.885.653-1.58.653-3.18-.168-4ZM4.716 8.4A2.105 2.105 0 0 1 6.8 6.588l.463.042.547.126-.042.064-.294.4-.085.105-.294.463-.064.105-.231.422-.063.105-.232.463-.042.105-.169.38-.042.105-.168.442v.084l-.127.379v.084c-.042.14-.077.28-.105.421l-1.453.148.316-2.632Zm8.233 5.916a2.085 2.085 0 0 1-1.432.885l-2.632.379.148-1.453h.02l.422-.106h.084l.358-.126H10l.442-.168.105-.043.38-.168.084-.042.463-.232.105-.063.4-.232.084-.063.485-.315.105-.064.42-.294.064-.043.126.548a2.085 2.085 0 0 1-.315 1.6Zm4.569-9.39c-.59 1.431-1.706 3.032-3.159 4.463-.4.4-.8.78-1.22 1.116l-.632.506c-1.39 1.052-2.78 1.726-3.875 1.895H8.4c-.358.042-.864 0-1.158-.295-.295-.295-.316-.78-.295-1.158a3.87 3.87 0 0 1 .084-.506c.274-1.22 1.116-2.758 2.358-4.253.337-.4.716-.82 1.116-1.221 1.453-1.453 3.032-2.569 4.464-3.158a4.782 4.782 0 0 1 1.727-.4c.328-.024.653.082.905.295.463.505.421 1.494-.084 2.716Z" fill="#151931"/><path d="M12.59 4.567a1.958 1.958 0 1 0 2.758 2.78 1.958 1.958 0 0 0-2.758-2.78Zm1.853 1.853a.695.695 0 1 1 .21-.485.695.695 0 0 1-.21.506V6.42ZM1.346 19.2l.253-.063 4.822-2.148a.632.632 0 0 0 .358-.716l-.063-.336a3.58 3.58 0 0 0-2.738-2.738l-.337-.063a.632.632 0 0 0-.715.358l-2.148 4.8a.632.632 0 0 0 .568.885v.021Zm2.527-4.716c.75.223 1.335.809 1.558 1.558L2.61 17.305l1.263-2.821Z" fill="#151931"/></svg>