<svg width="36" height="36" fill="none" xmlns="http://www.w3.org/2000/svg"><g opacity=".8" fill-rule="evenodd" clip-rule="evenodd" fill="#151931"><path d="M25.8 10.5c.28.4.18.94-.21 1.22a18.67 18.67 0 0 0-6.56 7.58c-1.37 3.1-1.8 6.83-.68 11.32a.88.88 0 0 1-1.7.43c-1.2-4.84-.76-8.98.78-12.46a20.41 20.41 0 0 1 7.15-8.3.88.88 0 0 1 1.22.2Z"/><path d="M6.26 12.83c.84 2.8 2.1 4.36 3.72 5.29 1.6.91 3.67 1.26 6.32 1.32-.91-3.2-2.53-4.99-4.32-5.91a9.06 9.06 0 0 0-5.72-.7Zm6.53-.86c2.54 1.31 4.56 3.9 5.48 8.18l.23 1.06h-1.08c-3.23 0-6.06-.29-8.31-1.58-2.31-1.32-3.88-3.6-4.8-7.25l-.2-.85.84-.21c2.47-.62 5.33-.64 7.84.65Z"/><path d="M30.04 6.6c.26 3.71-1.37 6.83-3.78 9.08a14.02 14.02 0 0 1-8.2 3.76c-1.1-4.12-.22-7.34 1.88-9.5 2.13-2.2 5.65-3.46 10.1-3.35ZM18.68 8.7c-2.74 2.83-3.63 6.98-2.1 11.88l.2.62h.64c3.3 0 7.15-1.56 10.03-4.25 2.9-2.7 4.88-6.62 4.25-11.33l-.1-.71-.71-.04c-5.13-.3-9.5 1.04-12.2 3.83Z"/></g></svg>
