<svg width="160" height="28" fill="none" xmlns="http://www.w3.org/2000/svg"><path d="M40.143 6.857H49.5V8.43h-3.929v11.5H43.93v-11.5h-3.786V6.857Z" fill="#000"/><path d="M52.357 10.357c3.286 0 4.286 1.215 4.286 5 0 3.5-1 4.715-4.286 4.715-3.286 0-4.286-1.286-4.286-4.715 0-3.928 1.072-5 4.286-5Zm0 8.143c1.786 0 2.643-.214 2.643-3.214 0-3.214-.643-3.429-2.643-3.429-1.857 0-2.643.286-2.643 3.429 0 3 .857 3.214 2.643 3.214ZM58.643 10.429h1.286l.357 1c.5-.357 2.214-1.143 3.357-1.143 2.571 0 3.143 2.428 3.143 4.786 0 2.5-.429 4.928-3.143 4.928-.786 0-2.286-.214-3.429-.714v5.357h-1.643V10.429h.072Zm4.857 8.143c1.071 0 1.643-.643 1.643-3.43 0-2.285-.572-3.285-1.643-3.285-1.286 0-2.357.357-3.214.786v5.5c1.071.286 1.928.428 3.214.428ZM69.214 6.857h5.143c4 0 4.714 3.786 4.714 6.572 0 3.214-1.285 6.5-4.714 6.5h-5.143V6.857Zm5.072 11.429c2.214 0 3.071-2.215 3.071-4.929 0-3.714-1.143-5-3.071-5h-3.429v9.929h3.429ZM84.643 10.357c2.428 0 3.785.215 3.785 3.357 0 1.429-.785 2.215-2.57 2.215h-3.715c0 2.071.5 2.5 1.857 2.5 1.643 0 2.928 0 4.286-.215v1.215c-1.429.428-3.143.5-4.643.5-2.429 0-3.143-1.215-3.143-4.857-.072-4.143 1.143-4.715 4.143-4.715Zm1.071 4.215c.715 0 1.072-.286 1.072-.858 0-1.714-.286-1.857-2.072-1.857-1.857 0-2.571 0-2.571 2.715h3.571ZM91.286 10.429l2.785 7.285 2.786-7.285h1.786l-3.786 9.5h-1.714l-3.643-9.5h1.786ZM103.857 10.357c2.429 0 3.786.215 3.786 3.357 0 1.429-.786 2.215-2.572 2.215h-3.785c0 2.071.5 2.5 1.857 2.5 1.643 0 2.928 0 4.286-.215v1.215c-1.429.428-3.143.5-4.643.5-2.429 0-3.143-1.215-3.143-4.857 0-4.143 1.214-4.715 4.214-4.715Zm1.072 4.215c.714 0 1.071-.286 1.071-.858 0-1.714-.286-1.857-2.071-1.857-1.858 0-2.572 0-2.572 2.715h3.572ZM109.5 5.929h1.643v10.5c0 1.5.428 1.857 1 2 0 0 1.357.357 1.5.357v1.143h-1.714c-1.429 0-2.429-.858-2.429-3.358V5.93ZM118.571 10.357c3.286 0 4.286 1.215 4.286 5 0 3.5-1 4.715-4.286 4.715-3.285 0-4.285-1.286-4.285-4.715 0-3.928 1.143-5 4.285-5Zm0 8.143c1.786 0 2.643-.214 2.643-3.214 0-3.214-.643-3.429-2.643-3.429-1.857 0-2.642.286-2.642 3.429.071 3 .928 3.214 2.642 3.214ZM124.929 10.429h1.285l.357 1c.5-.357 2.215-1.143 3.358-1.143 2.571 0 3.142 2.428 3.142 4.786 0 2.5-.428 4.928-3.142 4.928-.786 0-2.286-.214-3.429-.714v5.357h-1.643V10.429h.072Zm4.785 8.143c1.072 0 1.643-.643 1.643-3.43 0-2.285-.571-3.285-1.643-3.285-1.285 0-2.357.357-3.214.786v5.5c1.143.286 2 .428 3.214.428ZM139 10.357c2.429 0 3.786.215 3.786 3.357 0 1.429-.786 2.215-2.572 2.215h-3.785c0 2.071.5 2.5 1.857 2.5 1.643 0 2.928 0 4.285-.215v1.215c-1.428.428-3.142.5-4.642.5-2.429 0-3.143-1.215-3.143-4.857 0-4.143 1.214-4.715 4.214-4.715Zm1.071 4.215c.715 0 1.072-.286 1.072-.858 0-1.714-.286-1.857-2.072-1.857-1.857 0-2.571 0-2.571 2.715h3.571ZM144.643 10.429h1.286l.428 1.214c1-.643 1.929-1.286 3.357-1.286.5 0 1.072 0 1.286.143v1.643c-.214-.072-.857-.072-1.357-.072-1.357 0-2.072.286-3.286 1.072v6.928h-1.643V10.43h-.071ZM152.143 12.786c0-1.5.643-2.429 2.5-2.429 1.214 0 3.928.143 4.857.357v1.143h-4.643c-1 0-1.071.357-1.071.929v.714c0 .857.428.929 1.071.929h2.714c1.643 0 2.429 1 2.429 2.357v.928c0 1.929-1.214 2.358-2.357 2.358-1.143 0-4.429-.215-5.072-.358v-1.142h4.858c.071 0 .928.07.928-.858v-.785c0-.572-.214-.857-.928-.857h-2.715c-1.714 0-2.571-.572-2.571-2.43v-.856Z" fill="#000"/><path fill-rule="evenodd" clip-rule="evenodd" d="M25.714 0H2.357C1.071 0 0 .857 0 1.929v23.857c0 1.071 1.071 1.928 2.357 1.928h23.357c1.286 0 2.357-.857 2.357-1.928V1.929C28.143.857 27.071 0 25.714 0Z" fill="#000"/><path fill-rule="evenodd" clip-rule="evenodd" d="M20.286 7.857s-1.572-2-4.786-2.286H4.429v3.572h2.857l-.072 11.786h4.072V9.07H15.5s1.714.215 2.357 1.5c0 0 1.357 2.429 0 5.286 0 0-.643 1.214-2 1.357l-3.357.072v3.571h2.928s1.43 0 2.786-.571c.786-.357 1.715-.929 2.215-1.715-.072 0 4.357-5-.143-10.714Z" fill="#fff"/></svg>