<svg width="36" height="36" fill="none" xmlns="http://www.w3.org/2000/svg"><path fill-rule="evenodd" clip-rule="evenodd" d="M15.38 5.75a2.63 2.63 0 0 0-2.63 2.62V11H8.37A4.38 4.38 0 0 0 4 15.37v10.5a4.38 4.38 0 0 0 4.38 4.38H27.62A4.38 4.38 0 0 0 32 25.87v-10.5A4.38 4.38 0 0 0 27.62 11h-4.37V8.37a2.63 2.63 0 0 0-2.63-2.62h-5.25ZM21.5 11V8.37a.88.88 0 0 0-.88-.87h-5.25a.87.87 0 0 0-.87.87V11h7Zm-7.88 1.75h-.87V28.5h10.5V12.75h-9.63Zm-7.87 2.62a2.63 2.63 0 0 1 2.63-2.62H11V28.5H8.37a2.63 2.63 0 0 1-2.62-2.63v-10.5ZM25 28.5V12.75h2.63a2.63 2.63 0 0 1 2.62 2.62v10.5a2.63 2.63 0 0 1-2.63 2.63H25Z" fill="#151931" opacity=".8"/></svg>
