<svg width="36" height="36" viewBox="0 0 36 36" fill="none" xmlns="http://www.w3.org/2000/svg">
<g opacity="0.8">
<path fill-rule="evenodd" clip-rule="evenodd" d="M15.375 5.7489C14.6788 5.7489 14.0111 6.02546 13.5188 6.51775C13.0266 7.01003 12.75 7.67771 12.75 8.3739V10.9989H11.875H8.375C5.95875 10.9989 4 12.9577 4 15.3739V25.8739C4 28.2901 5.95875 30.2489 8.375 30.2489H11.875H24.125H27.625C30.0412 30.2489 32 28.2901 32 25.8739V15.3739C32 12.9577 30.0412 10.9989 27.625 10.9989H24.125H23.25V8.3739C23.25 7.67771 22.9734 7.01003 22.4812 6.51775C21.9889 6.02546 21.3212 5.7489 20.625 5.7489H15.375ZM21.5 10.9989V8.3739C21.5 8.14184 21.4078 7.91928 21.2437 7.75518C21.0796 7.59109 20.8571 7.4989 20.625 7.4989H15.375C15.1429 7.4989 14.9204 7.59109 14.7563 7.75518C14.5922 7.91928 14.5 8.14184 14.5 8.3739V10.9989H21.5ZM13.625 12.7489H12.75V28.4989H23.25V12.7489H22.375H13.625ZM5.75 15.3739C5.75 13.9242 6.92525 12.7489 8.375 12.7489H11V28.4989H8.375C6.92525 28.4989 5.75 27.3236 5.75 25.8739V15.3739ZM25 28.4989V12.7489H27.625C29.0747 12.7489 30.25 13.9242 30.25 15.3739V25.8739C30.25 27.3236 29.0747 28.4989 27.625 28.4989H25Z" fill="#151931"/>
</g>
</svg>
