<svg width="20" height="20" fill="none" xmlns="http://www.w3.org/2000/svg"><path d="M16.665 9.215a.293.293 0 0 0 0-.066v-.01l-2.811-5.716V.65a.673.673 0 0 0-.182-.46.623.623 0 0 0-.442-.19H7.602a.612.612 0 0 0-.44.19.664.664 0 0 0-.183.46v2.774L4.234 9.146l-.004.01v.01a.305.305 0 0 0 0 .058.507.507 0 0 0-.026.108.668.668 0 0 0-.032.085l-.003.014a.685.685 0 0 0 0 .123v.006c.007.04.02.077.037.113a.29.29 0 0 0 0 .053v.013l5.603 9.92.029.052a.567.567 0 0 0 .265.243l.011.005h.041a.558.558 0 0 0 .418 0h.041l.012-.005a.574.574 0 0 0 .264-.243l5.626-9.96.006-.012v-.013a.298.298 0 0 0 0-.053.452.452 0 0 0 .032-.09.668.668 0 0 0 .095-.108l-.04-.037.052.005a.734.734 0 0 0 0-.11.483.483 0 0 0 .003-.118ZM8.225 2.93V1.3h4.377v1.63H8.226Zm3.862 7.037c.1-.34.102-.702.007-1.043a1.83 1.83 0 0 0-.544-.876 1.688 1.688 0 0 0-1.904-.252 1.779 1.779 0 0 0-.736.707 1.882 1.882 0 0 0 .086 1.997c.2.288.475.509.794.635v5.88L5.5 9.434 7.988 4.23h4.852l2.488 5.206-4.289 7.578v-5.879c.249-.1.472-.256.654-.458.181-.203.316-.445.395-.71h-.001ZM10.06 9.07a.5.5 0 0 1 .354-.153.505.505 0 0 1 .418.232.535.535 0 0 1-.063.659.491.491 0 0 1-.633.065.518.518 0 0 1-.185-.234.542.542 0 0 1 .109-.57Z" fill="#151931"/></svg>