<svg width="20" height="20" fill="none" xmlns="http://www.w3.org/2000/svg"><path d="M2 2.367h16a1.3 1.3 0 0 1 1.3 1.3v12.666a1.3 1.3 0 0 1-1.3 1.3H2a1.3 1.3 0 0 1-1.3-1.3V3.667a1.3 1.3 0 0 1 1.3-1.3Z" stroke="#151931" stroke-width="1.4"/><path d="M9.167 10.665h1.667a2.668 2.668 0 0 1 2.668 2.668c0 .553-.449 1.002-1.002 1.002h-5a1.002 1.002 0 0 1-1.002-1.002 2.668 2.668 0 0 1 2.669-2.668Z" stroke="#151931" stroke-width="1.33"/><circle cx="10" cy="7.5" r="1.835" stroke="#151931" stroke-width="1.33"/></svg>