<svg width="20" height="20" fill="none" xmlns="http://www.w3.org/2000/svg"><path d="M17.14 3.93h-.51C16.626 2.047 15.125.832 12.803.832H4.661a3.904 3.904 0 0 0-2.706 1.083 3.63 3.63 0 0 0-1.122 2.61v7.853c0 .994.3 1.903.845 2.559.616.74 1.489 1.132 2.525 1.132v.337c.001.732.303 1.433.84 1.95a2.918 2.918 0 0 0 2.021.81h6.55c.345 0 .687-.064 1.005-.19.319-.128.608-.314.851-.549l2.024-1.937c.618-.59 1.221-1.169 1.728-1.654.247-.236.444-.518.577-.828.134-.31.202-.643.201-.979V6.69c0-.732-.302-1.433-.839-1.95a2.919 2.919 0 0 0-2.022-.81ZM4.202 6.688v8.119c-.634 0-1.14-.223-1.504-.66-.363-.438-.557-1.062-.557-1.77V4.526c0-.644.266-1.262.738-1.717a2.569 2.569 0 0 1 1.78-.712h8.143c2.263 0 2.517 1.276 2.519 1.833H7.064c-.758.001-1.485.292-2.021.81a2.714 2.714 0 0 0-.84 1.949Zm1.309 9.717V6.69c0-.397.164-.778.455-1.059.291-.28.686-.438 1.098-.439h10.074c.412 0 .806.158 1.098.44.29.28.454.66.455 1.058v5.686H15.74c-.759 0-1.486.292-2.023.81a2.714 2.714 0 0 0-.838 1.95v2.768H7.065c-.412 0-.807-.158-1.098-.439a1.473 1.473 0 0 1-.455-1.058Zm11.061-.812c-.698.666-1.417 1.355-2.026 1.939-.105.1-.227.183-.361.244v-2.642c0-.397.164-.778.455-1.059.291-.28.686-.439 1.097-.439h2.795a1.294 1.294 0 0 1-.236.304c-.503.485-1.107 1.063-1.724 1.653Z" fill="#151931"/></svg>