<svg width="20" height="20" fill="none" xmlns="http://www.w3.org/2000/svg"><path d="M18.965 12.445c.678-.803 1.035-1.739 1.035-2.71 0-2.724-2.858-4.94-6.371-4.94h-.158a8.27 8.27 0 0 0-1.124.1c-.923-1.937-3.304-3.228-5.975-3.228-1.692 0-3.286.51-4.487 1.435C.669 4.038 0 5.285 0 6.612c0 .972.357 1.907 1.035 2.711l-.544 2.013a.597.597 0 0 0 .088.494c.05.07.113.126.187.165a.51.51 0 0 0 .371.043l1.839-.486a3.924 3.924 0 0 0-.033.505c0 .972.358 1.907 1.035 2.71l-.543 2.013a.596.596 0 0 0 .087.495.54.54 0 0 0 .187.165.51.51 0 0 0 .238.06h.006a.451.451 0 0 0 .127-.018l2.997-.792c.728.207 1.48.31 2.234.306 2.224 0 4.308-.917 5.458-2.396.37-.051.736-.129 1.096-.232l2.88.762.118.032a.506.506 0 0 0 .277-.004.53.53 0 0 0 .238-.15.598.598 0 0 0 .13-.55l-.543-2.013ZM7.353 15.46a.975.975 0 0 0-.276-.042h-.004a.99.99 0 0 0-.251.033l-1.922.509.25-.933c.05-.181.054-.372.013-.556a1.115 1.115 0 0 0-.247-.49c-.515-.59-.776-1.237-.776-1.92 0-.265.042-.527.121-.777a8.036 8.036 0 0 0 2.095.28h.014a8.297 8.297 0 0 0 1.848-.213c.155-.036.307-.08.45-.122 1.435-.434 2.611-1.247 3.33-2.299.386.166.755.379 1.096.634.898.69 1.393 1.574 1.393 2.485a2.728 2.728 0 0 1-.416 1.417c-.1.165-.213.32-.338.466a4.12 4.12 0 0 1-.643.612c-1.003.768-2.345 1.191-3.782 1.191a6.867 6.867 0 0 1-1.955-.275ZM2.208 9.584c.048-.181.052-.372.011-.555a1.129 1.129 0 0 0-.245-.49c-.515-.598-.776-1.246-.776-1.926 0-.913.495-1.797 1.394-2.488 1.003-.77 2.346-1.192 3.78-1.192 1.433 0 2.773.421 3.782 1.186.44.33.808.756 1.077 1.25a2.716 2.716 0 0 1 .28.828c.073.45.025.912-.14 1.334-.05.138-.111.272-.182.4a3.36 3.36 0 0 1-.256.39 4.12 4.12 0 0 1-.781.778 5.609 5.609 0 0 1-1.86.923c-.144.04-.279.076-.422.107a7.176 7.176 0 0 1-1.498.163h-.021a6.966 6.966 0 0 1-1.94-.277 1.018 1.018 0 0 0-.271-.042h-.01c-.084 0-.168.011-.25.033l-1.921.508.25-.93Zm15.847 2.046-.03.034a1.13 1.13 0 0 0-.245.492 1.17 1.17 0 0 0 .011.556l.252.933-1.881-.498-.043-.01a.983.983 0 0 0-.595.026c.105-.358.158-.73.158-1.104 0-1.746-1.194-3.365-3.128-4.256a3.902 3.902 0 0 0 .154-1.679c.305-.04.612-.06.919-.06 1.438 0 2.78.424 3.779 1.192.899.69 1.394 1.574 1.394 2.487.002.67-.25 1.306-.745 1.886Z" fill="#151931"/></svg>