<svg xmlns="http://www.w3.org/2000/svg" width="36" height="36" fill="#151931" viewBox="0 0 36 36">
  <path fill-rule="evenodd" d="M11.3 4c-.98 0-1.76.78-1.76 1.75v3.5c0 .96.78 1.75 1.75 1.75h7v7h-6.12a2.63 2.63 0 0 0-2.63 2.62v4.49a3.5 3.5 0 1 0 1.75 0v-4.49a.87.87 0 0 1 .88-.87h6.12v5.36a3.5 3.5 0 1 0 1.75 0v-5.36h6.13a.88.88 0 0 1 .87.87v4.49a3.5 3.5 0 1 0 1.75 0v-4.49A2.63 2.63 0 0 0 26.17 18h-6.13v-7h7c.97 0 1.75-.79 1.75-1.75v-3.5c0-.97-.78-1.75-1.75-1.75H11.3Zm7.87 5.25h7.87v-3.5H11.3v3.5h7.88ZM8.67 28.5a1.75 1.75 0 1 1 3.5 0 1.75 1.75 0 0 1-3.5 0Zm10.5-1.75a1.75 1.75 0 1 0 0 3.5 1.75 1.75 0 0 0 0-3.5Zm7 1.75a1.75 1.75 0 1 1 3.5 0 1.75 1.75 0 0 1-3.5 0Z" opacity=".8"/>
</svg>
