<svg xmlns="http://www.w3.org/2000/svg" viewBox="0 0 40 40">
	<path d="M20 9C13.9 9 9 13.9 9 20s4.9 11 11 11 11-4.9 11-11S26.1 9 20 9zm7.3 5.1c1.3 1.6 2.1 3.6 2.1 5.8-.3-.1-3.4-.7-6.5-.3-.1-.2-.1-.3-.2-.5-.2-.5-.4-.9-.6-1.4 3.4-1.3 5-3.4 5.2-3.6zM20 10.6c2.4 0 4.6.9 6.2 2.4-.2.2-1.6 2.1-4.9 3.4-1.5-2.8-3.2-5.1-3.5-5.5.7-.2 1.4-.3 2.2-.3zm-4 .9c.3.3 1.9 2.7 3.5 5.4-4.4 1.2-8.3 1.1-8.7 1.1a9.5 9.5 0 0 1 5.2-6.5zM10.6 20v-.3c.4 0 5 .1 9.7-1.3.3.5.5 1.1.8 1.6-.1 0-.3.1-.4.1a14.9 14.9 0 0 0-7.6 6.2 9.1 9.1 0 0 1-2.5-6.3zm9.4 9.4c-2.2 0-4.2-.7-5.8-2 .2-.3 2.1-4 7.4-5.9h.1c1.3 3.4 1.9 6.3 2 7.1-1.2.5-2.4.8-3.7.8zm5.2-1.6c-.1-.6-.6-3.3-1.8-6.7 2.9-.5 5.5.3 5.8.4-.3 2.6-1.9 4.9-4 6.3z"/>
</svg>