<svg xmlns="http://www.w3.org/2000/svg" width="40" height="40">
  <path d="M29.188 25.35a.958.958 0 0 1-1.35.15l-5.588-4.47-2.25 1.8-2.25-1.8-5.588 4.47a.959.959 0 0 1-1.2-1.499l5.251-4.201-5.25-4.201a.96.96 0 1 1 1.2-1.499l6.2 4.961L20 20.372l1.636-1.309.002-.001 6.2-4.961a.96.96 0 1 1 1.2 1.499L23.787 19.8l5.25 4.2a.96.96 0 0 1 .15 1.35M30.097 12H9.904A1.904 1.904 0 0 0 8 13.904v11.792c0 1.052.853 1.904 1.904 1.904h20.192A1.904 1.904 0 0 0 32 25.696V13.904A1.904 1.904 0 0 0 30.096 12"/>
</svg>