<svg xmlns="http://www.w3.org/2000/svg" width="40" height="40">
  <path d="M23.543 27.824c0-1.394-.466-2.306-.987-2.767 3.242-.37 6.647-1.632 6.647-7.371 0-1.631-.564-2.964-1.497-4.009.15-.378.65-1.896-.145-3.953 0 0-1.22-.402-3.999 1.532a13.646 13.646 0 0 0-3.646-.504 13.615 13.615 0 0 0-3.645.504c-2.782-1.934-4.004-1.532-4.004-1.532-.792 2.057-.292 3.575-.143 3.953-.93 1.045-1.499 2.378-1.499 4.009 0 5.725 3.4 7.006 6.633 7.383-.416.373-.792 1.032-.924 1.997-.83.383-2.94 1.042-4.238-1.241 0 0-.769-1.434-2.23-1.54 0 0-1.422-.018-.1.909 0 0 .954.46 1.617 2.185 0 0 .854 2.906 4.904 2.002.006.983.055 2.868.076 3.799 1.13.323 2.32.51 3.552.51 1.276 0 2.505-.195 3.671-.541-.012-1.151-.043-3.697-.043-5.325"/>
</svg>