<svg xmlns="http://www.w3.org/2000/svg" viewBox="0 0 40 40">
	<path d="M25.3 13.5c-.7 0-1.2.5-1.2 1.2s.5 1.2 1.2 1.2 1.2-.5 1.2-1.2-.5-1.2-1.2-1.2zM20 14.9c-2.8 0-5.1 2.3-5.1 5.1s2.3 5.1 5.1 5.1 5.1-2.3 5.1-5.1-2.3-5.1-5.1-5.1zm0 8.4c-1.8 0-3.3-1.5-3.3-3.3s1.5-3.3 3.3-3.3c1.8 0 3.3 1.5 3.3 3.3s-1.5 3.3-3.3 3.3zm9.9-7.4a5 5 0 00-.5-2.4c-.3-.7-.6-1.2-1.2-1.8-.6-.6-1.1-.9-1.8-1.2A11 11 0 0024 10h-4l-4.1.1a5 5 0 00-2.4.5c-.7.3-1.2.6-1.8 1.2-.6.6-.9 1.1-1.2 1.8A11 11 0 0010 16l-.1 4.1.1 4.1a5 5 0 00.5 2.4c.3.7.6 1.2 1.2 1.8.6.6 1.1.9 1.8 1.2.6.2 1.4.4 2.4.5l4.1.1 4.1-.1a5 5 0 002.4-.5c.7-.3 1.2-.6 1.8-1.2.6-.6.9-1.1 1.2-1.8.2-.6.4-1.4.5-2.4l.1-4.1c0-2.7-.1-3.2-.2-4.2zM28.1 24c0 1-.2 1.5-.3 1.9a3 3 0 01-.7 1.1c-.3.3-.7.6-1.1.7-.4.1-.9.3-1.9.3l-4 .1-4-.1c-1 0-1.5-.2-1.9-.3a3 3 0 01-1.1-.7c-.3-.3-.6-.7-.7-1.1-.1-.4-.3-.9-.3-1.9l-.1-4 .1-4c0-1 .2-1.5.3-1.9l.7-1.1c.3-.3.7-.6 1.1-.7.4-.1.9-.3 1.9-.3l4-.1 4 .1c1 0 1.5.2 1.9.3l1.1.7c.3.3.6.7.7 1.1.1.4.3.9.3 1.9l.1 4-.1 4z"/>
</svg>