<svg xmlns="http://www.w3.org/2000/svg" width="40" height="40">
  <path d="M23.863 13c1.113 0 2.085.403 2.914 1.209.048.047.095.07.142.07h.048c.83-.189 1.54-.473 2.18-.805.024-.024.26-.142.308-.166-.332.972-.924 1.706-1.777 2.251a9.095 9.095 0 0 0 1.16-.213c.38-.095.76-.237 1.162-.403a6.76 6.76 0 0 1-.592.782 8.8 8.8 0 0 1-1.375 1.28c-.047.047-.07.07-.07.142V17.858c-.096 2.82-1.067 5.332-2.892 7.512-1.493 1.73-3.341 2.914-5.569 3.507-.687.19-1.398.308-2.085.38H15.427c-.57 0-1.114-.096-1.66-.214a11.663 11.663 0 0 1-3.696-1.493L10 27.479c.308.023.592.047.9.047.759 0 1.54-.095 2.275-.308a7.705 7.705 0 0 0 2.844-1.445c-1.872-.166-3.152-1.114-3.815-2.844.237.048.497.048.734.048.356 0 .735-.048 1.09-.143-.947-.213-1.73-.71-2.346-1.47-.616-.757-.9-1.634-.9-2.63.569.309 1.185.498 1.825.498-.877-.64-1.446-1.445-1.683-2.488-.237-1.043-.07-2.038.45-2.986.071.071.119.119.166.19 1.73 2.014 3.887 3.294 6.493 3.862.569.119 1.114.19 1.683.237h.094c.048 0 .048-.023.048-.094a4.223 4.223 0 0 1-.071-1.09c.07-1.162.545-2.11 1.422-2.868.64-.568 1.374-.9 2.227-.971.095 0 .26-.024.427-.024"/>
</svg>