<svg xmlns="http://www.w3.org/2000/svg" width="40" height="40">
  <path d="M23.9 13a4 4 0 012.9 1.2h.1a9 9 0 002.2-.7l.4-.2c-.4 1-1 1.7-1.8 2.3a9.1 9.1 0 001.1-.3c.4 0 .8-.2 1.2-.4a6.8 6.8 0 01-.6.8A8.8 8.8 0 0128 17v.9a12 12 0 01-3 7.5 11 11 0 01-7.6 3.9h-2l-1.6-.3a11.7 11.7 0 01-3.7-1.4l-.1-.1h.9c.8 0 1.5 0 2.3-.3a7.7 7.7 0 002.8-1.4 4.2 4.2 0 01-3.8-2.9H14a4.1 4.1 0 01-3.2-4.2c.6.3 1.2.5 1.8.5a4.1 4.1 0 01-1.2-5.4l.1.1a11.6 11.6 0 008.2 4.1h.1a4.2 4.2 0 010-1.1 4 4 0 011.4-3c.6-.5 1.4-.8 2.2-.9h.5"/>
</svg>