<svg xmlns="http://www.w3.org/2000/svg" width="40" height="40">
  <defs>
    <mask id="my-mask">
      <rect x="0" y="0" width="40" height="40" fill="#FFF"/>
      <path fill="#000" d="M24.711 11.004L22.291 11c-2.72 0-4.477 1.803-4.477 4.594v2.117h-2.433a.38.38 0 0 0-.381.381v3.069c0 .21.17.38.38.38h2.434v7.743c0 .21.17.38.38.38h3.176c.21 0 .38-.17.38-.38v-7.743h2.846c.21 0 .38-.17.38-.38l.002-3.069a.38.38 0 0 0-.381-.38H21.75v-1.796c0-.863.206-1.3 1.33-1.3l1.63-.001c.21 0 .381-.17.381-.381v-2.85a.38.38 0 0 0-.38-.38"/>
    </mask>
  </defs>
  <circle cx="20" cy="20" r="20" fill="#FFF" style="mask: url(#my-mask)"/>
</svg>